%TF.GenerationSoftware,KiCad,Pcbnew,9.0.2*%
%TF.CreationDate,2025-07-09T23:02:58+05:30*%
%TF.ProjectId,comfort40pcb,636f6d66-6f72-4743-9430-7063622e6b69,rev?*%
%TF.SameCoordinates,Original*%
%TF.FileFunction,Soldermask,Bot*%
%TF.FilePolarity,Negative*%
%FSLAX46Y46*%
G04 Gerber Fmt 4.6, Leading zero omitted, Abs format (unit mm)*
G04 Created by KiCad (PCBNEW 9.0.2) date 2025-07-09 23:02:58*
%MOMM*%
%LPD*%
G01*
G04 APERTURE LIST*
G04 Aperture macros list*
%AMRoundRect*
0 Rectangle with rounded corners*
0 $1 Rounding radius*
0 $2 $3 $4 $5 $6 $7 $8 $9 X,Y pos of 4 corners*
0 Add a 4 corners polygon primitive as box body*
4,1,4,$2,$3,$4,$5,$6,$7,$8,$9,$2,$3,0*
0 Add four circle primitives for the rounded corners*
1,1,$1+$1,$2,$3*
1,1,$1+$1,$4,$5*
1,1,$1+$1,$6,$7*
1,1,$1+$1,$8,$9*
0 Add four rect primitives between the rounded corners*
20,1,$1+$1,$2,$3,$4,$5,0*
20,1,$1+$1,$4,$5,$6,$7,0*
20,1,$1+$1,$6,$7,$8,$9,0*
20,1,$1+$1,$8,$9,$2,$3,0*%
G04 Aperture macros list end*
%ADD10C,0.120000*%
%ADD11C,1.701800*%
%ADD12C,3.987800*%
%ADD13C,2.540000*%
%ADD14C,3.250000*%
%ADD15C,3.300000*%
%ADD16O,2.600000X1.500000*%
%ADD17O,1.500000X2.600000*%
%ADD18C,3.048000*%
%ADD19C,1.700000*%
%ADD20R,2.000000X2.000000*%
%ADD21C,2.000000*%
%ADD22C,1.600000*%
%ADD23R,2.000000X3.200000*%
%ADD24RoundRect,0.225000X0.375000X-0.225000X0.375000X0.225000X-0.375000X0.225000X-0.375000X-0.225000X0*%
%ADD25RoundRect,0.225000X-0.225000X-0.375000X0.225000X-0.375000X0.225000X0.375000X-0.225000X0.375000X0*%
G04 APERTURE END LIST*
D10*
%TO.C,SW15*%
X94858000Y-84296250D02*
G75*
G02*
X93842000Y-84296250I-508000J0D01*
G01*
X93842000Y-84296250D02*
G75*
G02*
X94858000Y-84296250I508000J0D01*
G01*
%TO.C,SW26*%
X305149250Y-86836250D02*
G75*
G02*
X304133250Y-86836250I-508000J0D01*
G01*
X304133250Y-86836250D02*
G75*
G02*
X305149250Y-86836250I508000J0D01*
G01*
%TO.C,SW8*%
X224186750Y-67786250D02*
G75*
G02*
X223170750Y-67786250I-508000J0D01*
G01*
X223170750Y-67786250D02*
G75*
G02*
X224186750Y-67786250I508000J0D01*
G01*
%TO.C,SW34*%
X219424250Y-105886250D02*
G75*
G02*
X218408250Y-105886250I-508000J0D01*
G01*
X218408250Y-105886250D02*
G75*
G02*
X219424250Y-105886250I508000J0D01*
G01*
%TO.C,SW37*%
X276574250Y-105886250D02*
G75*
G02*
X275558250Y-105886250I-508000J0D01*
G01*
X275558250Y-105886250D02*
G75*
G02*
X276574250Y-105886250I508000J0D01*
G01*
%TO.C,SW20*%
X190849250Y-86836250D02*
G75*
G02*
X189833250Y-86836250I-508000J0D01*
G01*
X189833250Y-86836250D02*
G75*
G02*
X190849250Y-86836250I508000J0D01*
G01*
%TO.C,SW6*%
X186086750Y-67786250D02*
G75*
G02*
X185070750Y-67786250I-508000J0D01*
G01*
X185070750Y-67786250D02*
G75*
G02*
X186086750Y-67786250I508000J0D01*
G01*
%TO.C,SW12*%
X300386750Y-67786250D02*
G75*
G02*
X299370750Y-67786250I-508000J0D01*
G01*
X299370750Y-67786250D02*
G75*
G02*
X300386750Y-67786250I508000J0D01*
G01*
%TO.C,SW36*%
X257524250Y-105886250D02*
G75*
G02*
X256508250Y-105886250I-508000J0D01*
G01*
X256508250Y-105886250D02*
G75*
G02*
X257524250Y-105886250I508000J0D01*
G01*
%TO.C,SW24*%
X267049250Y-86836250D02*
G75*
G02*
X266033250Y-86836250I-508000J0D01*
G01*
X266033250Y-86836250D02*
G75*
G02*
X267049250Y-86836250I508000J0D01*
G01*
%TO.C,SW27*%
X337693000Y-84296250D02*
G75*
G02*
X336677000Y-84296250I-508000J0D01*
G01*
X336677000Y-84296250D02*
G75*
G02*
X337693000Y-84296250I508000J0D01*
G01*
%TO.C,SW7*%
X205136750Y-67786250D02*
G75*
G02*
X204120750Y-67786250I-508000J0D01*
G01*
X204120750Y-67786250D02*
G75*
G02*
X205136750Y-67786250I508000J0D01*
G01*
%TO.C,SW9*%
X243236750Y-67786250D02*
G75*
G02*
X242220750Y-67786250I-508000J0D01*
G01*
X242220750Y-67786250D02*
G75*
G02*
X243236750Y-67786250I508000J0D01*
G01*
%TO.C,SW32*%
X181324250Y-105886250D02*
G75*
G02*
X180308250Y-105886250I-508000J0D01*
G01*
X180308250Y-105886250D02*
G75*
G02*
X181324250Y-105886250I508000J0D01*
G01*
%TO.C,SW30*%
X143224250Y-105886250D02*
G75*
G02*
X142208250Y-105886250I-508000J0D01*
G01*
X142208250Y-105886250D02*
G75*
G02*
X143224250Y-105886250I508000J0D01*
G01*
%TO.C,SW16*%
X114649250Y-86836250D02*
G75*
G02*
X113633250Y-86836250I-508000J0D01*
G01*
X113633250Y-86836250D02*
G75*
G02*
X114649250Y-86836250I508000J0D01*
G01*
%TO.C,SW29*%
X124174250Y-105886250D02*
G75*
G02*
X123158250Y-105886250I-508000J0D01*
G01*
X123158250Y-105886250D02*
G75*
G02*
X124174250Y-105886250I508000J0D01*
G01*
%TO.C,SW23*%
X247999250Y-86836250D02*
G75*
G02*
X246983250Y-86836250I-508000J0D01*
G01*
X246983250Y-86836250D02*
G75*
G02*
X247999250Y-86836250I508000J0D01*
G01*
%TO.C,SW45*%
X152749250Y-124936250D02*
G75*
G02*
X151733250Y-124936250I-508000J0D01*
G01*
X151733250Y-124936250D02*
G75*
G02*
X152749250Y-124936250I508000J0D01*
G01*
%TO.C,SW14*%
X338486750Y-67786250D02*
G75*
G02*
X337470750Y-67786250I-508000J0D01*
G01*
X337470750Y-67786250D02*
G75*
G02*
X338486750Y-67786250I508000J0D01*
G01*
%TO.C,SW22*%
X228949250Y-86836250D02*
G75*
G02*
X227933250Y-86836250I-508000J0D01*
G01*
X227933250Y-86836250D02*
G75*
G02*
X228949250Y-86836250I508000J0D01*
G01*
%TO.C,SW18*%
X152749250Y-86836250D02*
G75*
G02*
X151733250Y-86836250I-508000J0D01*
G01*
X151733250Y-86836250D02*
G75*
G02*
X152749250Y-86836250I508000J0D01*
G01*
%TO.C,SW17*%
X133699250Y-86836250D02*
G75*
G02*
X132683250Y-86836250I-508000J0D01*
G01*
X132683250Y-86836250D02*
G75*
G02*
X133699250Y-86836250I508000J0D01*
G01*
%TO.C,SW5*%
X167036750Y-67786250D02*
G75*
G02*
X166020750Y-67786250I-508000J0D01*
G01*
X166020750Y-67786250D02*
G75*
G02*
X167036750Y-67786250I508000J0D01*
G01*
%TO.C,SW2*%
X109886750Y-67786250D02*
G75*
G02*
X108870750Y-67786250I-508000J0D01*
G01*
X108870750Y-67786250D02*
G75*
G02*
X109886750Y-67786250I508000J0D01*
G01*
%TO.C,SW31*%
X162274250Y-105886250D02*
G75*
G02*
X161258250Y-105886250I-508000J0D01*
G01*
X161258250Y-105886250D02*
G75*
G02*
X162274250Y-105886250I508000J0D01*
G01*
%TO.C,SW19*%
X171799250Y-86836250D02*
G75*
G02*
X170783250Y-86836250I-508000J0D01*
G01*
X170783250Y-86836250D02*
G75*
G02*
X171799250Y-86836250I508000J0D01*
G01*
%TO.C,SW50*%
X267049250Y-124936250D02*
G75*
G02*
X266033250Y-124936250I-508000J0D01*
G01*
X266033250Y-124936250D02*
G75*
G02*
X267049250Y-124936250I508000J0D01*
G01*
%TO.C,SW48*%
X209899250Y-124936250D02*
G75*
G02*
X208883250Y-124936250I-508000J0D01*
G01*
X208883250Y-124936250D02*
G75*
G02*
X209899250Y-124936250I508000J0D01*
G01*
%TO.C,SW10*%
X262286750Y-67786250D02*
G75*
G02*
X261270750Y-67786250I-508000J0D01*
G01*
X261270750Y-67786250D02*
G75*
G02*
X262286750Y-67786250I508000J0D01*
G01*
%TO.C,SW3*%
X128936750Y-67786250D02*
G75*
G02*
X127920750Y-67786250I-508000J0D01*
G01*
X127920750Y-67786250D02*
G75*
G02*
X128936750Y-67786250I508000J0D01*
G01*
%TO.C,SW11*%
X281336750Y-67786250D02*
G75*
G02*
X280320750Y-67786250I-508000J0D01*
G01*
X280320750Y-67786250D02*
G75*
G02*
X281336750Y-67786250I508000J0D01*
G01*
%TO.C,SW13*%
X319436750Y-67786250D02*
G75*
G02*
X318420750Y-67786250I-508000J0D01*
G01*
X318420750Y-67786250D02*
G75*
G02*
X319436750Y-67786250I508000J0D01*
G01*
%TO.C,SW55*%
X94805500Y-84296250D02*
G75*
G02*
X93789500Y-84296250I-508000J0D01*
G01*
X93789500Y-84296250D02*
G75*
G02*
X94805500Y-84296250I508000J0D01*
G01*
%TO.C,SW41*%
X338486750Y-105886250D02*
G75*
G02*
X337470750Y-105886250I-508000J0D01*
G01*
X337470750Y-105886250D02*
G75*
G02*
X338486750Y-105886250I508000J0D01*
G01*
%TO.C,SW21*%
X209899250Y-86836250D02*
G75*
G02*
X208883250Y-86836250I-508000J0D01*
G01*
X208883250Y-86836250D02*
G75*
G02*
X209899250Y-86836250I508000J0D01*
G01*
%TO.C,SW25*%
X286099250Y-86836250D02*
G75*
G02*
X285083250Y-86836250I-508000J0D01*
G01*
X285083250Y-86836250D02*
G75*
G02*
X286099250Y-86836250I508000J0D01*
G01*
%TO.C,SW4*%
X147986750Y-67786250D02*
G75*
G02*
X146970750Y-67786250I-508000J0D01*
G01*
X146970750Y-67786250D02*
G75*
G02*
X147986750Y-67786250I508000J0D01*
G01*
%TO.C,SW33*%
X200374250Y-105886250D02*
G75*
G02*
X199358250Y-105886250I-508000J0D01*
G01*
X199358250Y-105886250D02*
G75*
G02*
X200374250Y-105886250I508000J0D01*
G01*
%TO.C,SW35*%
X238474250Y-105886250D02*
G75*
G02*
X237458250Y-105886250I-508000J0D01*
G01*
X237458250Y-105886250D02*
G75*
G02*
X238474250Y-105886250I508000J0D01*
G01*
%TO.C,SW38*%
X295624250Y-105886250D02*
G75*
G02*
X294608250Y-105886250I-508000J0D01*
G01*
X294608250Y-105886250D02*
G75*
G02*
X295624250Y-105886250I508000J0D01*
G01*
%TD*%
D11*
%TO.C,SW15*%
X86730000Y-89376250D03*
D12*
X91810000Y-89376250D03*
D11*
X96890000Y-89376250D03*
D13*
X94350000Y-84296250D03*
X88000000Y-86836250D03*
%TD*%
D14*
%TO.C,*%
X98896119Y-134476257D03*
%TD*%
D15*
%TO.C,*%
X377758619Y-89478093D03*
%TD*%
D11*
%TO.C,SW26*%
X303371250Y-89376250D03*
D12*
X308451250Y-89376250D03*
D11*
X313531250Y-89376250D03*
D13*
X310991250Y-84296250D03*
X304641250Y-86836250D03*
%TD*%
D11*
%TO.C,SW8*%
X222408750Y-70326250D03*
D12*
X227488750Y-70326250D03*
D11*
X232568750Y-70326250D03*
D13*
X230028750Y-65246250D03*
X223678750Y-67786250D03*
%TD*%
D16*
%TO.C,U1*%
X373994150Y-62520000D03*
X373994150Y-65060000D03*
X373994150Y-67600000D03*
X373994150Y-70140000D03*
X373994150Y-72680000D03*
X373994150Y-75220000D03*
X373994150Y-77760000D03*
X373994150Y-80300000D03*
X373994150Y-82840000D03*
D17*
X370904150Y-83390000D03*
X368364150Y-83390000D03*
X365824150Y-83390000D03*
X363284150Y-83390000D03*
X360744150Y-83390000D03*
D16*
X357654150Y-82840000D03*
X357654150Y-80300000D03*
X357654150Y-77760000D03*
X357654150Y-75220000D03*
X357654150Y-72680000D03*
X357654150Y-70140000D03*
X357654150Y-67600000D03*
X357654150Y-65060000D03*
X357654150Y-62520000D03*
%TD*%
D11*
%TO.C,SW34*%
X217646250Y-108426250D03*
D12*
X222726250Y-108426250D03*
D11*
X227806250Y-108426250D03*
D13*
X225266250Y-103346250D03*
X218916250Y-105886250D03*
%TD*%
D15*
%TO.C,*%
X217958619Y-63326251D03*
%TD*%
D11*
%TO.C,SW37*%
X274796250Y-108426250D03*
D12*
X279876250Y-108426250D03*
D11*
X284956250Y-108426250D03*
D13*
X282416250Y-103346250D03*
X276066250Y-105886250D03*
%TD*%
D12*
%TO.C,SW54*%
X222694500Y-119221250D03*
D18*
X222694500Y-134461250D03*
D11*
X229552500Y-127476250D03*
D12*
X234632500Y-127476250D03*
D11*
X239712500Y-127476250D03*
D12*
X246570500Y-119221250D03*
D18*
X246570500Y-134461250D03*
D13*
X232092500Y-122396250D03*
X238442500Y-124936250D03*
%TD*%
D11*
%TO.C,SW20*%
X189071250Y-89376250D03*
D12*
X194151250Y-89376250D03*
D11*
X199231250Y-89376250D03*
D13*
X196691250Y-84296250D03*
X190341250Y-86836250D03*
%TD*%
D11*
%TO.C,SW6*%
X184308750Y-70326250D03*
D12*
X189388750Y-70326250D03*
D11*
X194468750Y-70326250D03*
D13*
X191928750Y-65246250D03*
X185578750Y-67786250D03*
%TD*%
D11*
%TO.C,SW12*%
X298608750Y-70326250D03*
D12*
X303688750Y-70326250D03*
D11*
X308768750Y-70326250D03*
D13*
X306228750Y-65246250D03*
X299878750Y-67786250D03*
%TD*%
D11*
%TO.C,SW36*%
X255746250Y-108426250D03*
D12*
X260826250Y-108426250D03*
D11*
X265906250Y-108426250D03*
D13*
X263366250Y-103346250D03*
X257016250Y-105886250D03*
%TD*%
D15*
%TO.C,*%
X353864619Y-63301251D03*
%TD*%
D18*
%TO.C,SW47*%
X175069500Y-120491250D03*
D12*
X175069500Y-135731250D03*
D11*
X181927500Y-127476250D03*
D12*
X187007500Y-127476250D03*
D11*
X192087500Y-127476250D03*
D18*
X198945500Y-120491250D03*
D12*
X198945500Y-135731250D03*
D13*
X189547500Y-122396250D03*
X183197500Y-124936250D03*
%TD*%
D12*
%TO.C,SW46*%
X156051250Y-119221250D03*
D18*
X156051250Y-134461250D03*
D11*
X170021250Y-127476250D03*
D12*
X175101250Y-127476250D03*
D11*
X180181250Y-127476250D03*
D12*
X194151250Y-119221250D03*
D18*
X194151250Y-134461250D03*
D13*
X177641250Y-122396250D03*
X171291250Y-124936250D03*
%TD*%
D19*
%TO.C,SW3*%
X359698250Y-115200000D03*
D20*
X359698250Y-105090000D03*
D21*
X359698250Y-107630000D03*
X359698250Y-110170000D03*
X359698250Y-112710000D03*
D22*
X358473250Y-102250000D03*
X360323250Y-102250000D03*
%TD*%
D11*
%TO.C,SW24*%
X265271250Y-89376250D03*
D12*
X270351250Y-89376250D03*
D11*
X275431250Y-89376250D03*
D13*
X272891250Y-84296250D03*
X266541250Y-86836250D03*
%TD*%
D15*
%TO.C,MP*%
X365824119Y-134476253D03*
%TD*%
D11*
%TO.C,SW27*%
X329565000Y-89376250D03*
D12*
X334645000Y-89376250D03*
D11*
X339725000Y-89376250D03*
D13*
X337185000Y-84296250D03*
X330835000Y-86836250D03*
%TD*%
D11*
%TO.C,SW7*%
X203358750Y-70326250D03*
D12*
X208438750Y-70326250D03*
D11*
X213518750Y-70326250D03*
D13*
X210978750Y-65246250D03*
X204628750Y-67786250D03*
%TD*%
D11*
%TO.C,SW9*%
X241458750Y-70326250D03*
D12*
X246538750Y-70326250D03*
D11*
X251618750Y-70326250D03*
D13*
X249078750Y-65246250D03*
X242728750Y-67786250D03*
%TD*%
D11*
%TO.C,SW39*%
X315277500Y-108426250D03*
D12*
X320357500Y-108426250D03*
D11*
X325437500Y-108426250D03*
D13*
X322897500Y-103346250D03*
X316547500Y-105886250D03*
%TD*%
D11*
%TO.C,SW32*%
X179546250Y-108426250D03*
D12*
X184626250Y-108426250D03*
D11*
X189706250Y-108426250D03*
D13*
X187166250Y-103346250D03*
X180816250Y-105886250D03*
%TD*%
D11*
%TO.C,SW30*%
X141446250Y-108426250D03*
D12*
X146526250Y-108426250D03*
D11*
X151606250Y-108426250D03*
D13*
X149066250Y-103346250D03*
X142716250Y-105886250D03*
%TD*%
D20*
%TO.C,SW55*%
X368324150Y-112710000D03*
D21*
X363324150Y-112710000D03*
X365824150Y-112710000D03*
D23*
X371424150Y-120210000D03*
X360224150Y-120210000D03*
D21*
X363324150Y-127210000D03*
X368324150Y-127210000D03*
%TD*%
D11*
%TO.C,SW16*%
X112871250Y-89376250D03*
D12*
X117951250Y-89376250D03*
D11*
X123031250Y-89376250D03*
D13*
X120491250Y-84296250D03*
X114141250Y-86836250D03*
%TD*%
D11*
%TO.C,SW29*%
X122396250Y-108426250D03*
D12*
X127476250Y-108426250D03*
D11*
X132556250Y-108426250D03*
D13*
X130016250Y-103346250D03*
X123666250Y-105886250D03*
%TD*%
D14*
%TO.C,*%
X281062369Y-134476257D03*
%TD*%
D11*
%TO.C,SW23*%
X246221250Y-89376250D03*
D12*
X251301250Y-89376250D03*
D11*
X256381250Y-89376250D03*
D13*
X253841250Y-84296250D03*
X247491250Y-86836250D03*
%TD*%
D15*
%TO.C,*%
X101267974Y-63326251D03*
%TD*%
D11*
%TO.C,SW45*%
X150971250Y-127476250D03*
D12*
X156051250Y-127476250D03*
D11*
X161131250Y-127476250D03*
D13*
X158591250Y-122396250D03*
X152241250Y-124936250D03*
%TD*%
D15*
%TO.C,*%
X377783619Y-134501255D03*
%TD*%
%TO.C,*%
X377783619Y-63301251D03*
%TD*%
%TO.C,*%
X332258619Y-63326249D03*
%TD*%
D12*
%TO.C,SW\u002A\u002A*%
X163163250Y-119221250D03*
D18*
X163163250Y-134461250D03*
D12*
X187039250Y-119221250D03*
D18*
X187039250Y-134461250D03*
%TD*%
D11*
%TO.C,SW14*%
X336708750Y-70326250D03*
D12*
X341788750Y-70326250D03*
D11*
X346868750Y-70326250D03*
D13*
X344328750Y-65246250D03*
X337978750Y-67786250D03*
%TD*%
D11*
%TO.C,SW22*%
X227171250Y-89376250D03*
D12*
X232251250Y-89376250D03*
D11*
X237331250Y-89376250D03*
D13*
X234791250Y-84296250D03*
X228441250Y-86836250D03*
%TD*%
D11*
%TO.C,SW52*%
X310515000Y-127476250D03*
D12*
X315595000Y-127476250D03*
D11*
X320675000Y-127476250D03*
D13*
X318135000Y-122396250D03*
X311785000Y-124936250D03*
%TD*%
D11*
%TO.C,SW18*%
X150971250Y-89376250D03*
D12*
X156051250Y-89376250D03*
D11*
X161131250Y-89376250D03*
D13*
X158591250Y-84296250D03*
X152241250Y-86836250D03*
%TD*%
D11*
%TO.C,SW17*%
X131921250Y-89376250D03*
D12*
X137001250Y-89376250D03*
D11*
X142081250Y-89376250D03*
D13*
X139541250Y-84296250D03*
X133191250Y-86836250D03*
%TD*%
D15*
%TO.C,*%
X353864619Y-134501253D03*
%TD*%
D18*
%TO.C,SW40*%
X317944500Y-101441250D03*
D12*
X317944500Y-116681250D03*
D11*
X324802500Y-108426250D03*
D12*
X329882500Y-108426250D03*
D11*
X334962500Y-108426250D03*
D18*
X341820500Y-101441250D03*
D12*
X341820500Y-116681250D03*
D13*
X332422500Y-103346250D03*
X326072500Y-105886250D03*
%TD*%
D11*
%TO.C,SW5*%
X165258750Y-70326250D03*
D12*
X170338750Y-70326250D03*
D11*
X175418750Y-70326250D03*
D13*
X172878750Y-65246250D03*
X166528750Y-67786250D03*
%TD*%
D11*
%TO.C,SW2*%
X108108750Y-70326250D03*
D12*
X113188750Y-70326250D03*
D11*
X118268750Y-70326250D03*
D13*
X115728750Y-65246250D03*
X109378750Y-67786250D03*
%TD*%
D11*
%TO.C,SW31*%
X160496250Y-108426250D03*
D12*
X165576250Y-108426250D03*
D11*
X170656250Y-108426250D03*
D13*
X168116250Y-103346250D03*
X161766250Y-105886250D03*
%TD*%
D14*
%TO.C,*%
X145329869Y-134476257D03*
%TD*%
D11*
%TO.C,SW19*%
X170021250Y-89376250D03*
D12*
X175101250Y-89376250D03*
D11*
X180181250Y-89376250D03*
D13*
X177641250Y-84296250D03*
X171291250Y-86836250D03*
%TD*%
D12*
%TO.C,SW49*%
X232251250Y-119221250D03*
D18*
X232251250Y-134461250D03*
D11*
X246221250Y-127476250D03*
D12*
X251301250Y-127476250D03*
D11*
X256381250Y-127476250D03*
D12*
X270351250Y-119221250D03*
D18*
X270351250Y-134461250D03*
D13*
X253841250Y-122396250D03*
X247491250Y-124936250D03*
%TD*%
D11*
%TO.C,SW50*%
X265271250Y-127476250D03*
D12*
X270351250Y-127476250D03*
D11*
X275431250Y-127476250D03*
D13*
X272891250Y-122396250D03*
X266541250Y-124936250D03*
%TD*%
D18*
%TO.C,SW28*%
X84582000Y-101441250D03*
D12*
X84582000Y-116681250D03*
D11*
X91440000Y-108426250D03*
D12*
X96520000Y-108426250D03*
D11*
X101600000Y-108426250D03*
D18*
X108458000Y-101441250D03*
D12*
X108458000Y-116681250D03*
D13*
X99060000Y-103346250D03*
X92710000Y-105886250D03*
%TD*%
D11*
%TO.C,SW51*%
X286702500Y-127476250D03*
D12*
X291782500Y-127476250D03*
D11*
X296862500Y-127476250D03*
D13*
X294322500Y-122396250D03*
X287972500Y-124936250D03*
%TD*%
D11*
%TO.C,SW48*%
X208121250Y-127476250D03*
D12*
X213201250Y-127476250D03*
D11*
X218281250Y-127476250D03*
D13*
X215741250Y-122396250D03*
X209391250Y-124936250D03*
%TD*%
D11*
%TO.C,SW10*%
X260508750Y-70326250D03*
D12*
X265588750Y-70326250D03*
D11*
X270668750Y-70326250D03*
D13*
X268128750Y-65246250D03*
X261778750Y-67786250D03*
%TD*%
D11*
%TO.C,SW3*%
X127158750Y-70326250D03*
D12*
X132238750Y-70326250D03*
D11*
X137318750Y-70326250D03*
D13*
X134778750Y-65246250D03*
X128428750Y-67786250D03*
%TD*%
D11*
%TO.C,SW44*%
X129540000Y-127476250D03*
D12*
X134620000Y-127476250D03*
D11*
X139700000Y-127476250D03*
D13*
X137160000Y-122396250D03*
X130810000Y-124936250D03*
%TD*%
D11*
%TO.C,SW42*%
X81915000Y-127476250D03*
D12*
X86995000Y-127476250D03*
D11*
X92075000Y-127476250D03*
D13*
X89535000Y-122396250D03*
X83185000Y-124936250D03*
%TD*%
D11*
%TO.C,SW11*%
X279558750Y-70326250D03*
D12*
X284638750Y-70326250D03*
D11*
X289718750Y-70326250D03*
D13*
X287178750Y-65246250D03*
X280828750Y-67786250D03*
%TD*%
D11*
%TO.C,SW13*%
X317658750Y-70326250D03*
D12*
X322738750Y-70326250D03*
D11*
X327818750Y-70326250D03*
D13*
X325278750Y-65246250D03*
X318928750Y-67786250D03*
%TD*%
D11*
%TO.C,SW1*%
X84296250Y-70326250D03*
D12*
X89376250Y-70326250D03*
D11*
X94456250Y-70326250D03*
D13*
X91916250Y-65246250D03*
X85566250Y-67786250D03*
%TD*%
D11*
%TO.C,SW55*%
X86677500Y-89376250D03*
D12*
X91757500Y-89376250D03*
D11*
X96837500Y-89376250D03*
D13*
X94297500Y-84296250D03*
X87947500Y-86836250D03*
%TD*%
D12*
%TO.C,SW\u002A\u002A*%
X239363250Y-119221250D03*
D18*
X239363250Y-134461250D03*
D12*
X263239250Y-119221250D03*
D18*
X263239250Y-134461250D03*
%TD*%
D11*
%TO.C,SW41*%
X336708750Y-108426250D03*
D12*
X341788750Y-108426250D03*
D11*
X346868750Y-108426250D03*
D13*
X344328750Y-103346250D03*
X337978750Y-105886250D03*
%TD*%
D11*
%TO.C,SW21*%
X208121250Y-89376250D03*
D12*
X213201250Y-89376250D03*
D11*
X218281250Y-89376250D03*
D13*
X215741250Y-84296250D03*
X209391250Y-86836250D03*
%TD*%
D11*
%TO.C,SW25*%
X284321250Y-89376250D03*
D12*
X289401250Y-89376250D03*
D11*
X294481250Y-89376250D03*
D13*
X291941250Y-84296250D03*
X285591250Y-86836250D03*
%TD*%
D11*
%TO.C,SW4*%
X146208750Y-70326250D03*
D12*
X151288750Y-70326250D03*
D11*
X156368750Y-70326250D03*
D13*
X153828750Y-65246250D03*
X147478750Y-67786250D03*
%TD*%
D11*
%TO.C,SW43*%
X105727500Y-127476250D03*
D12*
X110807500Y-127476250D03*
D11*
X115887500Y-127476250D03*
D13*
X113347500Y-122396250D03*
X106997500Y-124936250D03*
%TD*%
D11*
%TO.C,SW33*%
X198596250Y-108426250D03*
D12*
X203676250Y-108426250D03*
D11*
X208756250Y-108426250D03*
D13*
X206216250Y-103346250D03*
X199866250Y-105886250D03*
%TD*%
D14*
%TO.C,*%
X327496119Y-134476257D03*
%TD*%
D11*
%TO.C,SW35*%
X236696250Y-108426250D03*
D12*
X241776250Y-108426250D03*
D11*
X246856250Y-108426250D03*
D13*
X244316250Y-103346250D03*
X237966250Y-105886250D03*
%TD*%
D11*
%TO.C,SW53*%
X334327500Y-127476250D03*
D12*
X339407500Y-127476250D03*
D11*
X344487500Y-127476250D03*
D13*
X341947500Y-122396250D03*
X335597500Y-124936250D03*
%TD*%
D11*
%TO.C,SW38*%
X293846250Y-108426250D03*
D12*
X298926250Y-108426250D03*
D11*
X304006250Y-108426250D03*
D13*
X301466250Y-103346250D03*
X295116250Y-105886250D03*
%TD*%
D24*
%TO.C,D30*%
X149788750Y-113620000D03*
X149788750Y-110320000D03*
%TD*%
%TO.C,D25*%
X292656250Y-94500000D03*
X292656250Y-91200000D03*
%TD*%
%TO.C,D42*%
X342700000Y-132510000D03*
X342700000Y-129210000D03*
%TD*%
%TO.C,D24*%
X273606250Y-94500000D03*
X273606250Y-91200000D03*
%TD*%
%TO.C,D5*%
X173618750Y-75460000D03*
X173618750Y-72160000D03*
%TD*%
%TO.C,D48*%
X190250000Y-132510000D03*
X190250000Y-129210000D03*
%TD*%
%TO.C,D16*%
X121206250Y-94500000D03*
X121206250Y-91200000D03*
%TD*%
%TO.C,D51*%
X114056250Y-132510000D03*
X114056250Y-129210000D03*
%TD*%
%TO.C,D18*%
X159306250Y-94500000D03*
X159306250Y-91200000D03*
%TD*%
%TO.C,D11*%
X287918750Y-75460000D03*
X287918750Y-72160000D03*
%TD*%
%TO.C,D13*%
X326018750Y-75460000D03*
X326018750Y-72160000D03*
%TD*%
%TO.C,D37*%
X283138750Y-113620000D03*
X283138750Y-110320000D03*
%TD*%
%TO.C,D43*%
X318828750Y-132510000D03*
X318828750Y-129210000D03*
%TD*%
%TO.C,D17*%
X140256250Y-94500000D03*
X140256250Y-91200000D03*
%TD*%
%TO.C,D23*%
X254556250Y-94500000D03*
X254556250Y-91200000D03*
%TD*%
%TO.C,D47*%
X216500000Y-132510000D03*
X216500000Y-129210000D03*
%TD*%
%TO.C,D8*%
X230768750Y-75460000D03*
X230768750Y-72160000D03*
%TD*%
%TO.C,D4*%
X154568750Y-75460000D03*
X154568750Y-72160000D03*
%TD*%
%TO.C,D20*%
X197406250Y-94500000D03*
X197406250Y-91200000D03*
%TD*%
%TO.C,D7*%
X211718750Y-75460000D03*
X211718750Y-72160000D03*
%TD*%
%TO.C,D35*%
X245038750Y-113620000D03*
X245038750Y-110320000D03*
%TD*%
D25*
%TO.C,D40*%
X350000000Y-127210000D03*
X353300000Y-127210000D03*
%TD*%
D24*
%TO.C,D33*%
X206938750Y-113620000D03*
X206938750Y-110320000D03*
%TD*%
%TO.C,D45*%
X273646250Y-132510000D03*
X273646250Y-129210000D03*
%TD*%
%TO.C,D32*%
X187888750Y-113620000D03*
X187888750Y-110320000D03*
%TD*%
%TO.C,D50*%
X137888750Y-132510000D03*
X137888750Y-129210000D03*
%TD*%
%TO.C,D36*%
X264088750Y-113620000D03*
X264088750Y-110320000D03*
%TD*%
%TO.C,D1*%
X92650000Y-75460000D03*
X92650000Y-72160000D03*
%TD*%
%TO.C,D39*%
X333220000Y-113620000D03*
X333220000Y-110320000D03*
%TD*%
%TO.C,D41*%
X345050000Y-113620000D03*
X345050000Y-110320000D03*
%TD*%
%TO.C,D46*%
X254538750Y-132435000D03*
X254538750Y-129135000D03*
%TD*%
%TO.C,D22*%
X235506250Y-94500000D03*
X235506250Y-91200000D03*
%TD*%
%TO.C,D28*%
X99766250Y-113620000D03*
X99766250Y-110320000D03*
%TD*%
%TO.C,D12*%
X306968750Y-75460000D03*
X306968750Y-72160000D03*
%TD*%
%TO.C,D27*%
X337900000Y-94500000D03*
X337900000Y-91200000D03*
%TD*%
%TO.C,D15*%
X95000000Y-94500000D03*
X95000000Y-91200000D03*
%TD*%
%TO.C,D52*%
X90260000Y-132510000D03*
X90260000Y-129210000D03*
%TD*%
%TO.C,D2*%
X116468750Y-75460000D03*
X116468750Y-72160000D03*
%TD*%
%TO.C,D38*%
X302188750Y-113620000D03*
X302188750Y-110320000D03*
%TD*%
%TO.C,D34*%
X225988750Y-113620000D03*
X225988750Y-110320000D03*
%TD*%
%TO.C,D26*%
X311706250Y-94500000D03*
X311706250Y-91200000D03*
%TD*%
%TO.C,D6*%
X192668750Y-75460000D03*
X192668750Y-72160000D03*
%TD*%
%TO.C,D19*%
X178356250Y-94500000D03*
X178356250Y-91200000D03*
%TD*%
%TO.C,D21*%
X216456250Y-94500000D03*
X216456250Y-91200000D03*
%TD*%
%TO.C,D9*%
X249658750Y-75460000D03*
X249658750Y-72160000D03*
%TD*%
%TO.C,D3*%
X135518750Y-75460000D03*
X135518750Y-72160000D03*
%TD*%
%TO.C,D49*%
X159316250Y-132510000D03*
X159316250Y-129210000D03*
%TD*%
%TO.C,D10*%
X268706250Y-75460000D03*
X268706250Y-72160000D03*
%TD*%
%TO.C,D31*%
X168838750Y-113620000D03*
X168838750Y-110320000D03*
%TD*%
%TO.C,D44*%
X295008750Y-132510000D03*
X295008750Y-129210000D03*
%TD*%
%TO.C,D29*%
X130738750Y-113620000D03*
X130738750Y-110320000D03*
%TD*%
%TO.C,D14*%
X345050000Y-75450000D03*
X345050000Y-72150000D03*
%TD*%
M02*
