%TF.GenerationSoftware,KiCad,Pcbnew,9.0.2*%
%TF.CreationDate,2025-07-09T23:02:58+05:30*%
%TF.ProjectId,comfort40pcb,636f6d66-6f72-4743-9430-7063622e6b69,rev?*%
%TF.SameCoordinates,Original*%
%TF.FileFunction,Copper,L2,Bot*%
%TF.FilePolarity,Positive*%
%FSLAX46Y46*%
G04 Gerber Fmt 4.6, Leading zero omitted, Abs format (unit mm)*
G04 Created by KiCad (PCBNEW 9.0.2) date 2025-07-09 23:02:58*
%MOMM*%
%LPD*%
G01*
G04 APERTURE LIST*
G04 Aperture macros list*
%AMRoundRect*
0 Rectangle with rounded corners*
0 $1 Rounding radius*
0 $2 $3 $4 $5 $6 $7 $8 $9 X,Y pos of 4 corners*
0 Add a 4 corners polygon primitive as box body*
4,1,4,$2,$3,$4,$5,$6,$7,$8,$9,$2,$3,0*
0 Add four circle primitives for the rounded corners*
1,1,$1+$1,$2,$3*
1,1,$1+$1,$4,$5*
1,1,$1+$1,$6,$7*
1,1,$1+$1,$8,$9*
0 Add four rect primitives between the rounded corners*
20,1,$1+$1,$2,$3,$4,$5,0*
20,1,$1+$1,$4,$5,$6,$7,0*
20,1,$1+$1,$6,$7,$8,$9,0*
20,1,$1+$1,$8,$9,$2,$3,0*%
G04 Aperture macros list end*
%TA.AperFunction,ComponentPad*%
%ADD10C,2.540000*%
%TD*%
%TA.AperFunction,ComponentPad*%
%ADD11C,3.250000*%
%TD*%
%TA.AperFunction,ComponentPad*%
%ADD12C,3.300000*%
%TD*%
%TA.AperFunction,ComponentPad*%
%ADD13O,2.600000X1.500000*%
%TD*%
%TA.AperFunction,ComponentPad*%
%ADD14O,1.500000X2.600000*%
%TD*%
%TA.AperFunction,ComponentPad*%
%ADD15R,2.000000X2.000000*%
%TD*%
%TA.AperFunction,ComponentPad*%
%ADD16C,2.000000*%
%TD*%
%TA.AperFunction,ComponentPad*%
%ADD17C,1.600000*%
%TD*%
%TA.AperFunction,ComponentPad*%
%ADD18R,2.000000X3.200000*%
%TD*%
%TA.AperFunction,SMDPad,CuDef*%
%ADD19RoundRect,0.225000X0.375000X-0.225000X0.375000X0.225000X-0.375000X0.225000X-0.375000X-0.225000X0*%
%TD*%
%TA.AperFunction,SMDPad,CuDef*%
%ADD20RoundRect,0.225000X-0.225000X-0.375000X0.225000X-0.375000X0.225000X0.375000X-0.225000X0.375000X0*%
%TD*%
%TA.AperFunction,ViaPad*%
%ADD21C,0.500000*%
%TD*%
%TA.AperFunction,Conductor*%
%ADD22C,0.250000*%
%TD*%
G04 APERTURE END LIST*
D10*
%TO.P,SW15,1,Col*%
%TO.N,Net-(D15-A)*%
X94350000Y-84296250D03*
%TO.P,SW15,2,Row*%
%TO.N,COL0*%
X88000000Y-86836250D03*
%TD*%
D11*
%TO.P,,*%
%TO.N,*%
X98896119Y-134476257D03*
%TD*%
D12*
%TO.P,,*%
%TO.N,*%
X377758619Y-89478093D03*
%TD*%
D10*
%TO.P,SW26,1,Col*%
%TO.N,Net-(D26-A)*%
X310991250Y-84296250D03*
%TO.P,SW26,2,Row*%
%TO.N,COL11*%
X304641250Y-86836250D03*
%TD*%
%TO.P,SW8,1,Col*%
%TO.N,Net-(D8-A)*%
X230028750Y-65246250D03*
%TO.P,SW8,2,Row*%
%TO.N,COL7*%
X223678750Y-67786250D03*
%TD*%
D13*
%TO.P,U1,1,1*%
%TO.N,ENC_CW*%
X373994150Y-62520000D03*
%TO.P,U1,2,2*%
%TO.N,ROW3*%
X373994150Y-65060000D03*
%TO.P,U1,3,3*%
%TO.N,ROW2*%
X373994150Y-67600000D03*
%TO.P,U1,4,4*%
%TO.N,COL13*%
X373994150Y-70140000D03*
%TO.P,U1,5,5*%
%TO.N,COL12*%
X373994150Y-72680000D03*
%TO.P,U1,6,6*%
%TO.N,COL11*%
X373994150Y-75220000D03*
%TO.P,U1,7,7*%
%TO.N,COL10*%
X373994150Y-77760000D03*
%TO.P,U1,8,8*%
%TO.N,COL9*%
X373994150Y-80300000D03*
%TO.P,U1,9,9*%
%TO.N,COL8*%
X373994150Y-82840000D03*
D14*
%TO.P,U1,10,10*%
%TO.N,COL7*%
X370904150Y-83390000D03*
%TO.P,U1,11,11*%
%TO.N,COL6*%
X368364150Y-83390000D03*
%TO.P,U1,12,12*%
%TO.N,COL5*%
X365824150Y-83390000D03*
%TO.P,U1,13,13*%
%TO.N,COL4*%
X363284150Y-83390000D03*
%TO.P,U1,14,14*%
%TO.N,COL3*%
X360744150Y-83390000D03*
D13*
%TO.P,U1,15,15*%
%TO.N,COL2*%
X357654150Y-82840000D03*
%TO.P,U1,16*%
%TO.N,N/C*%
X357654150Y-80300000D03*
%TO.P,U1,17*%
X357654150Y-77760000D03*
%TO.P,U1,18*%
X357654150Y-75220000D03*
%TO.P,U1,19*%
X357654150Y-72680000D03*
%TO.P,U1,20*%
X357654150Y-70140000D03*
%TO.P,U1,21*%
X357654150Y-67600000D03*
%TO.P,U1,22*%
X357654150Y-65060000D03*
%TO.P,U1,23*%
X357654150Y-62520000D03*
%TD*%
D10*
%TO.P,SW34,1,Col*%
%TO.N,Net-(D34-A)*%
X225266250Y-103346250D03*
%TO.P,SW34,2,Row*%
%TO.N,COL6*%
X218916250Y-105886250D03*
%TD*%
D12*
%TO.P,,*%
%TO.N,*%
X217958619Y-63326251D03*
%TD*%
D10*
%TO.P,SW37,1,Col*%
%TO.N,Net-(D37-A)*%
X282416250Y-103346250D03*
%TO.P,SW37,2,Row*%
%TO.N,COL9*%
X276066250Y-105886250D03*
%TD*%
%TO.P,SW54,1,Col*%
%TO.N,Net-(D46-A)*%
X232092500Y-122396250D03*
%TO.P,SW54,2,Row*%
%TO.N,COL8*%
X238442500Y-124936250D03*
%TD*%
%TO.P,SW20,1,Col*%
%TO.N,Net-(D20-A)*%
X196691250Y-84296250D03*
%TO.P,SW20,2,Row*%
%TO.N,COL5*%
X190341250Y-86836250D03*
%TD*%
%TO.P,SW6,1,Col*%
%TO.N,Net-(D6-A)*%
X191928750Y-65246250D03*
%TO.P,SW6,2,Row*%
%TO.N,COL5*%
X185578750Y-67786250D03*
%TD*%
%TO.P,SW12,1,Col*%
%TO.N,Net-(D12-A)*%
X306228750Y-65246250D03*
%TO.P,SW12,2,Row*%
%TO.N,COL11*%
X299878750Y-67786250D03*
%TD*%
%TO.P,SW36,1,Col*%
%TO.N,Net-(D36-A)*%
X263366250Y-103346250D03*
%TO.P,SW36,2,Row*%
%TO.N,COL8*%
X257016250Y-105886250D03*
%TD*%
D12*
%TO.P,,*%
%TO.N,*%
X353864619Y-63301251D03*
%TD*%
D10*
%TO.P,SW47,1,Col*%
%TO.N,Net-(D48-A)*%
X189547500Y-122396250D03*
%TO.P,SW47,2,Row*%
%TO.N,COL4*%
X183197500Y-124936250D03*
%TD*%
%TO.P,SW46,1,Col*%
%TO.N,Net-(D48-A)*%
X177641250Y-122396250D03*
%TO.P,SW46,2,Row*%
%TO.N,COL4*%
X171291250Y-124936250D03*
%TD*%
D15*
%TO.P,SW3,A*%
%TO.N,ENC_CCW*%
X359698250Y-105090000D03*
D16*
%TO.P,SW3,B*%
%TO.N,ENC_CW*%
X359698250Y-107630000D03*
%TO.P,SW3,C*%
%TO.N,GND*%
X359698250Y-110170000D03*
%TO.P,SW3,D*%
%TO.N,N/C*%
X359698250Y-112710000D03*
D17*
%TO.P,SW3,S1*%
%TO.N,Net-(D40-A)*%
X358473250Y-102250000D03*
%TO.P,SW3,S2*%
%TO.N,COL12*%
X360323250Y-102250000D03*
%TD*%
D10*
%TO.P,SW24,1,Col*%
%TO.N,Net-(D24-A)*%
X272891250Y-84296250D03*
%TO.P,SW24,2,Row*%
%TO.N,COL9*%
X266541250Y-86836250D03*
%TD*%
D12*
%TO.P,MP,*%
%TO.N,*%
X365824119Y-134476253D03*
%TD*%
D10*
%TO.P,SW27,1,Col*%
%TO.N,Net-(D27-A)*%
X337185000Y-84296250D03*
%TO.P,SW27,2,Row*%
%TO.N,COL12*%
X330835000Y-86836250D03*
%TD*%
%TO.P,SW7,1,Col*%
%TO.N,Net-(D7-A)*%
X210978750Y-65246250D03*
%TO.P,SW7,2,Row*%
%TO.N,COL6*%
X204628750Y-67786250D03*
%TD*%
%TO.P,SW9,1,Col*%
%TO.N,Net-(D9-A)*%
X249078750Y-65246250D03*
%TO.P,SW9,2,Row*%
%TO.N,COL8*%
X242728750Y-67786250D03*
%TD*%
%TO.P,SW39,1,Col*%
%TO.N,Net-(D39-A)*%
X322897500Y-103346250D03*
%TO.P,SW39,2,Row*%
%TO.N,COL11*%
X316547500Y-105886250D03*
%TD*%
%TO.P,SW32,1,Col*%
%TO.N,Net-(D32-A)*%
X187166250Y-103346250D03*
%TO.P,SW32,2,Row*%
%TO.N,COL4*%
X180816250Y-105886250D03*
%TD*%
%TO.P,SW30,1,Col*%
%TO.N,Net-(D30-A)*%
X149066250Y-103346250D03*
%TO.P,SW30,2,Row*%
%TO.N,COL2*%
X142716250Y-105886250D03*
%TD*%
D15*
%TO.P,SW55,A,A*%
%TO.N,ENC_CCW*%
X368324150Y-112710000D03*
D16*
%TO.P,SW55,B,B*%
%TO.N,ENC_CW*%
X363324150Y-112710000D03*
%TO.P,SW55,C,C*%
%TO.N,GND*%
X365824150Y-112710000D03*
D18*
%TO.P,SW55,MP*%
%TO.N,N/C*%
X371424150Y-120210000D03*
X360224150Y-120210000D03*
D16*
%TO.P,SW55,S1,S1*%
%TO.N,Net-(D40-A)*%
X363324150Y-127210000D03*
%TO.P,SW55,S2,S2*%
%TO.N,COL12*%
X368324150Y-127210000D03*
%TD*%
D10*
%TO.P,SW16,1,Col*%
%TO.N,Net-(D16-A)*%
X120491250Y-84296250D03*
%TO.P,SW16,2,Row*%
%TO.N,COL1*%
X114141250Y-86836250D03*
%TD*%
%TO.P,SW29,1,Col*%
%TO.N,Net-(D29-A)*%
X130016250Y-103346250D03*
%TO.P,SW29,2,Row*%
%TO.N,COL1*%
X123666250Y-105886250D03*
%TD*%
D11*
%TO.P,,*%
%TO.N,*%
X281062369Y-134476257D03*
%TD*%
D10*
%TO.P,SW23,1,Col*%
%TO.N,Net-(D23-A)*%
X253841250Y-84296250D03*
%TO.P,SW23,2,Row*%
%TO.N,COL8*%
X247491250Y-86836250D03*
%TD*%
D12*
%TO.P,,*%
%TO.N,*%
X101267974Y-63326251D03*
%TD*%
D10*
%TO.P,SW45,1,Col*%
%TO.N,Net-(D49-A)*%
X158591250Y-122396250D03*
%TO.P,SW45,2,Row*%
%TO.N,COL3*%
X152241250Y-124936250D03*
%TD*%
D12*
%TO.P,,*%
%TO.N,*%
X377783619Y-134501255D03*
%TD*%
%TO.P,,*%
%TO.N,*%
X377783619Y-63301251D03*
%TD*%
%TO.P,,*%
%TO.N,*%
X332258619Y-63326249D03*
%TD*%
D10*
%TO.P,SW14,1,Col*%
%TO.N,Net-(D14-A)*%
X344328750Y-65246250D03*
%TO.P,SW14,2,Row*%
%TO.N,COL13*%
X337978750Y-67786250D03*
%TD*%
%TO.P,SW22,1,Col*%
%TO.N,Net-(D22-A)*%
X234791250Y-84296250D03*
%TO.P,SW22,2,Row*%
%TO.N,COL7*%
X228441250Y-86836250D03*
%TD*%
%TO.P,SW52,1,Col*%
%TO.N,Net-(D43-A)*%
X318135000Y-122396250D03*
%TO.P,SW52,2,Row*%
%TO.N,COL11*%
X311785000Y-124936250D03*
%TD*%
%TO.P,SW18,1,Col*%
%TO.N,Net-(D18-A)*%
X158591250Y-84296250D03*
%TO.P,SW18,2,Row*%
%TO.N,COL3*%
X152241250Y-86836250D03*
%TD*%
%TO.P,SW17,1,Col*%
%TO.N,Net-(D17-A)*%
X139541250Y-84296250D03*
%TO.P,SW17,2,Row*%
%TO.N,COL2*%
X133191250Y-86836250D03*
%TD*%
D12*
%TO.P,,*%
%TO.N,*%
X353864619Y-134501253D03*
%TD*%
D10*
%TO.P,SW40,1,Col*%
%TO.N,Net-(D39-A)*%
X332422500Y-103346250D03*
%TO.P,SW40,2,Row*%
%TO.N,COL11*%
X326072500Y-105886250D03*
%TD*%
%TO.P,SW5,1,Col*%
%TO.N,Net-(D5-A)*%
X172878750Y-65246250D03*
%TO.P,SW5,2,Row*%
%TO.N,COL4*%
X166528750Y-67786250D03*
%TD*%
%TO.P,SW2,1,Col*%
%TO.N,Net-(D2-A)*%
X115728750Y-65246250D03*
%TO.P,SW2,2,Row*%
%TO.N,COL1*%
X109378750Y-67786250D03*
%TD*%
%TO.P,SW31,1,Col*%
%TO.N,Net-(D31-A)*%
X168116250Y-103346250D03*
%TO.P,SW31,2,Row*%
%TO.N,COL3*%
X161766250Y-105886250D03*
%TD*%
D11*
%TO.P,,*%
%TO.N,*%
X145329869Y-134476257D03*
%TD*%
D10*
%TO.P,SW19,1,Col*%
%TO.N,Net-(D19-A)*%
X177641250Y-84296250D03*
%TO.P,SW19,2,Row*%
%TO.N,COL4*%
X171291250Y-86836250D03*
%TD*%
%TO.P,SW49,1,Col*%
%TO.N,Net-(D46-A)*%
X253841250Y-122396250D03*
%TO.P,SW49,2,Row*%
%TO.N,COL8*%
X247491250Y-124936250D03*
%TD*%
%TO.P,SW50,1,Col*%
%TO.N,Net-(D45-A)*%
X272891250Y-122396250D03*
%TO.P,SW50,2,Row*%
%TO.N,COL9*%
X266541250Y-124936250D03*
%TD*%
%TO.P,SW28,1,Col*%
%TO.N,Net-(D28-A)*%
X99060000Y-103346250D03*
%TO.P,SW28,2,Row*%
%TO.N,COL0*%
X92710000Y-105886250D03*
%TD*%
%TO.P,SW51,1,Col*%
%TO.N,Net-(D44-A)*%
X294322500Y-122396250D03*
%TO.P,SW51,2,Row*%
%TO.N,COL10*%
X287972500Y-124936250D03*
%TD*%
%TO.P,SW48,1,Col*%
%TO.N,Net-(D47-A)*%
X215741250Y-122396250D03*
%TO.P,SW48,2,Row*%
%TO.N,COL6*%
X209391250Y-124936250D03*
%TD*%
%TO.P,SW10,1,Col*%
%TO.N,Net-(D10-A)*%
X268128750Y-65246250D03*
%TO.P,SW10,2,Row*%
%TO.N,COL9*%
X261778750Y-67786250D03*
%TD*%
%TO.P,SW3,1,Col*%
%TO.N,Net-(D3-A)*%
X134778750Y-65246250D03*
%TO.P,SW3,2,Row*%
%TO.N,COL2*%
X128428750Y-67786250D03*
%TD*%
%TO.P,SW44,1,Col*%
%TO.N,Net-(D50-A)*%
X137160000Y-122396250D03*
%TO.P,SW44,2,Row*%
%TO.N,COL2*%
X130810000Y-124936250D03*
%TD*%
%TO.P,SW42,1,Col*%
%TO.N,Net-(D52-A)*%
X89535000Y-122396250D03*
%TO.P,SW42,2,Row*%
%TO.N,COL0*%
X83185000Y-124936250D03*
%TD*%
%TO.P,SW11,1,Col*%
%TO.N,Net-(D11-A)*%
X287178750Y-65246250D03*
%TO.P,SW11,2,Row*%
%TO.N,COL10*%
X280828750Y-67786250D03*
%TD*%
%TO.P,SW13,1,Col*%
%TO.N,Net-(D13-A)*%
X325278750Y-65246250D03*
%TO.P,SW13,2,Row*%
%TO.N,COL12*%
X318928750Y-67786250D03*
%TD*%
%TO.P,SW1,1,Col*%
%TO.N,Net-(D1-A)*%
X91916250Y-65246250D03*
%TO.P,SW1,2,Row*%
%TO.N,COL0*%
X85566250Y-67786250D03*
%TD*%
%TO.P,SW55,1*%
%TO.N,Net-(D15-A)*%
X94297500Y-84296250D03*
%TO.P,SW55,2*%
%TO.N,COL0*%
X87947500Y-86836250D03*
%TD*%
%TO.P,SW41,1,Col*%
%TO.N,Net-(D41-A)*%
X344328750Y-103346250D03*
%TO.P,SW41,2,Row*%
%TO.N,COL13*%
X337978750Y-105886250D03*
%TD*%
%TO.P,SW21,1,Col*%
%TO.N,Net-(D21-A)*%
X215741250Y-84296250D03*
%TO.P,SW21,2,Row*%
%TO.N,COL6*%
X209391250Y-86836250D03*
%TD*%
%TO.P,SW25,1,Col*%
%TO.N,Net-(D25-A)*%
X291941250Y-84296250D03*
%TO.P,SW25,2,Row*%
%TO.N,COL10*%
X285591250Y-86836250D03*
%TD*%
%TO.P,SW4,1,Col*%
%TO.N,Net-(D4-A)*%
X153828750Y-65246250D03*
%TO.P,SW4,2,Row*%
%TO.N,COL3*%
X147478750Y-67786250D03*
%TD*%
%TO.P,SW43,1,Col*%
%TO.N,Net-(D51-A)*%
X113347500Y-122396250D03*
%TO.P,SW43,2,Row*%
%TO.N,COL1*%
X106997500Y-124936250D03*
%TD*%
%TO.P,SW33,1,Col*%
%TO.N,Net-(D33-A)*%
X206216250Y-103346250D03*
%TO.P,SW33,2,Row*%
%TO.N,COL5*%
X199866250Y-105886250D03*
%TD*%
D11*
%TO.P,,*%
%TO.N,*%
X327496119Y-134476257D03*
%TD*%
D10*
%TO.P,SW35,1,Col*%
%TO.N,Net-(D35-A)*%
X244316250Y-103346250D03*
%TO.P,SW35,2,Row*%
%TO.N,COL7*%
X237966250Y-105886250D03*
%TD*%
%TO.P,SW53,1,Col*%
%TO.N,Net-(D42-A)*%
X341947500Y-122396250D03*
%TO.P,SW53,2,Row*%
%TO.N,COL13*%
X335597500Y-124936250D03*
%TD*%
%TO.P,SW38,1,Col*%
%TO.N,Net-(D38-A)*%
X301466250Y-103346250D03*
%TO.P,SW38,2,Row*%
%TO.N,COL10*%
X295116250Y-105886250D03*
%TD*%
D19*
%TO.P,D30,1,K*%
%TO.N,ROW2*%
X149788750Y-113620000D03*
%TO.P,D30,2,A*%
%TO.N,Net-(D30-A)*%
X149788750Y-110320000D03*
%TD*%
%TO.P,D25,1,K*%
%TO.N,ROW1*%
X292656250Y-94500000D03*
%TO.P,D25,2,A*%
%TO.N,Net-(D25-A)*%
X292656250Y-91200000D03*
%TD*%
%TO.P,D42,1,K*%
%TO.N,ROW3*%
X342700000Y-132510000D03*
%TO.P,D42,2,A*%
%TO.N,Net-(D42-A)*%
X342700000Y-129210000D03*
%TD*%
%TO.P,D24,1,K*%
%TO.N,ROW1*%
X273606250Y-94500000D03*
%TO.P,D24,2,A*%
%TO.N,Net-(D24-A)*%
X273606250Y-91200000D03*
%TD*%
%TO.P,D5,1,K*%
%TO.N,ROW0*%
X173618750Y-75460000D03*
%TO.P,D5,2,A*%
%TO.N,Net-(D5-A)*%
X173618750Y-72160000D03*
%TD*%
%TO.P,D48,1,K*%
%TO.N,ROW3*%
X190250000Y-132510000D03*
%TO.P,D48,2,A*%
%TO.N,Net-(D48-A)*%
X190250000Y-129210000D03*
%TD*%
%TO.P,D16,1,K*%
%TO.N,ROW1*%
X121206250Y-94500000D03*
%TO.P,D16,2,A*%
%TO.N,Net-(D16-A)*%
X121206250Y-91200000D03*
%TD*%
%TO.P,D51,1,K*%
%TO.N,ROW3*%
X114056250Y-132510000D03*
%TO.P,D51,2,A*%
%TO.N,Net-(D51-A)*%
X114056250Y-129210000D03*
%TD*%
%TO.P,D18,1,K*%
%TO.N,ROW1*%
X159306250Y-94500000D03*
%TO.P,D18,2,A*%
%TO.N,Net-(D18-A)*%
X159306250Y-91200000D03*
%TD*%
%TO.P,D11,1,K*%
%TO.N,ROW0*%
X287918750Y-75460000D03*
%TO.P,D11,2,A*%
%TO.N,Net-(D11-A)*%
X287918750Y-72160000D03*
%TD*%
%TO.P,D13,1,K*%
%TO.N,ROW0*%
X326018750Y-75460000D03*
%TO.P,D13,2,A*%
%TO.N,Net-(D13-A)*%
X326018750Y-72160000D03*
%TD*%
%TO.P,D37,1,K*%
%TO.N,ROW2*%
X283138750Y-113620000D03*
%TO.P,D37,2,A*%
%TO.N,Net-(D37-A)*%
X283138750Y-110320000D03*
%TD*%
%TO.P,D43,1,K*%
%TO.N,ROW3*%
X318828750Y-132510000D03*
%TO.P,D43,2,A*%
%TO.N,Net-(D43-A)*%
X318828750Y-129210000D03*
%TD*%
%TO.P,D17,1,K*%
%TO.N,ROW1*%
X140256250Y-94500000D03*
%TO.P,D17,2,A*%
%TO.N,Net-(D17-A)*%
X140256250Y-91200000D03*
%TD*%
%TO.P,D23,1,K*%
%TO.N,ROW1*%
X254556250Y-94500000D03*
%TO.P,D23,2,A*%
%TO.N,Net-(D23-A)*%
X254556250Y-91200000D03*
%TD*%
%TO.P,D47,1,K*%
%TO.N,ROW3*%
X216500000Y-132510000D03*
%TO.P,D47,2,A*%
%TO.N,Net-(D47-A)*%
X216500000Y-129210000D03*
%TD*%
%TO.P,D8,1,K*%
%TO.N,ROW0*%
X230768750Y-75460000D03*
%TO.P,D8,2,A*%
%TO.N,Net-(D8-A)*%
X230768750Y-72160000D03*
%TD*%
%TO.P,D4,1,K*%
%TO.N,ROW0*%
X154568750Y-75460000D03*
%TO.P,D4,2,A*%
%TO.N,Net-(D4-A)*%
X154568750Y-72160000D03*
%TD*%
%TO.P,D20,1,K*%
%TO.N,ROW1*%
X197406250Y-94500000D03*
%TO.P,D20,2,A*%
%TO.N,Net-(D20-A)*%
X197406250Y-91200000D03*
%TD*%
%TO.P,D7,1,K*%
%TO.N,ROW0*%
X211718750Y-75460000D03*
%TO.P,D7,2,A*%
%TO.N,Net-(D7-A)*%
X211718750Y-72160000D03*
%TD*%
%TO.P,D35,1,K*%
%TO.N,ROW2*%
X245038750Y-113620000D03*
%TO.P,D35,2,A*%
%TO.N,Net-(D35-A)*%
X245038750Y-110320000D03*
%TD*%
D20*
%TO.P,D40,1,K*%
%TO.N,ROW3*%
X350000000Y-127210000D03*
%TO.P,D40,2,A*%
%TO.N,Net-(D40-A)*%
X353300000Y-127210000D03*
%TD*%
D19*
%TO.P,D33,1,K*%
%TO.N,ROW2*%
X206938750Y-113620000D03*
%TO.P,D33,2,A*%
%TO.N,Net-(D33-A)*%
X206938750Y-110320000D03*
%TD*%
%TO.P,D45,1,K*%
%TO.N,ROW3*%
X273646250Y-132510000D03*
%TO.P,D45,2,A*%
%TO.N,Net-(D45-A)*%
X273646250Y-129210000D03*
%TD*%
%TO.P,D32,1,K*%
%TO.N,ROW2*%
X187888750Y-113620000D03*
%TO.P,D32,2,A*%
%TO.N,Net-(D32-A)*%
X187888750Y-110320000D03*
%TD*%
%TO.P,D50,1,K*%
%TO.N,ROW3*%
X137888750Y-132510000D03*
%TO.P,D50,2,A*%
%TO.N,Net-(D50-A)*%
X137888750Y-129210000D03*
%TD*%
%TO.P,D36,1,K*%
%TO.N,ROW2*%
X264088750Y-113620000D03*
%TO.P,D36,2,A*%
%TO.N,Net-(D36-A)*%
X264088750Y-110320000D03*
%TD*%
%TO.P,D1,1,K*%
%TO.N,ROW0*%
X92650000Y-75460000D03*
%TO.P,D1,2,A*%
%TO.N,Net-(D1-A)*%
X92650000Y-72160000D03*
%TD*%
%TO.P,D39,1,K*%
%TO.N,ROW2*%
X333220000Y-113620000D03*
%TO.P,D39,2,A*%
%TO.N,Net-(D39-A)*%
X333220000Y-110320000D03*
%TD*%
%TO.P,D41,1,K*%
%TO.N,ROW2*%
X345050000Y-113620000D03*
%TO.P,D41,2,A*%
%TO.N,Net-(D41-A)*%
X345050000Y-110320000D03*
%TD*%
%TO.P,D46,1,K*%
%TO.N,ROW3*%
X254538750Y-132435000D03*
%TO.P,D46,2,A*%
%TO.N,Net-(D46-A)*%
X254538750Y-129135000D03*
%TD*%
%TO.P,D22,1,K*%
%TO.N,ROW1*%
X235506250Y-94500000D03*
%TO.P,D22,2,A*%
%TO.N,Net-(D22-A)*%
X235506250Y-91200000D03*
%TD*%
%TO.P,D28,1,K*%
%TO.N,ROW2*%
X99766250Y-113620000D03*
%TO.P,D28,2,A*%
%TO.N,Net-(D28-A)*%
X99766250Y-110320000D03*
%TD*%
%TO.P,D12,1,K*%
%TO.N,ROW0*%
X306968750Y-75460000D03*
%TO.P,D12,2,A*%
%TO.N,Net-(D12-A)*%
X306968750Y-72160000D03*
%TD*%
%TO.P,D27,1,K*%
%TO.N,ROW1*%
X337900000Y-94500000D03*
%TO.P,D27,2,A*%
%TO.N,Net-(D27-A)*%
X337900000Y-91200000D03*
%TD*%
%TO.P,D15,1,K*%
%TO.N,ROW1*%
X95000000Y-94500000D03*
%TO.P,D15,2,A*%
%TO.N,Net-(D15-A)*%
X95000000Y-91200000D03*
%TD*%
%TO.P,D52,1,K*%
%TO.N,ROW3*%
X90260000Y-132510000D03*
%TO.P,D52,2,A*%
%TO.N,Net-(D52-A)*%
X90260000Y-129210000D03*
%TD*%
%TO.P,D2,1,K*%
%TO.N,ROW0*%
X116468750Y-75460000D03*
%TO.P,D2,2,A*%
%TO.N,Net-(D2-A)*%
X116468750Y-72160000D03*
%TD*%
%TO.P,D38,1,K*%
%TO.N,ROW2*%
X302188750Y-113620000D03*
%TO.P,D38,2,A*%
%TO.N,Net-(D38-A)*%
X302188750Y-110320000D03*
%TD*%
%TO.P,D34,1,K*%
%TO.N,ROW2*%
X225988750Y-113620000D03*
%TO.P,D34,2,A*%
%TO.N,Net-(D34-A)*%
X225988750Y-110320000D03*
%TD*%
%TO.P,D26,1,K*%
%TO.N,ROW1*%
X311706250Y-94500000D03*
%TO.P,D26,2,A*%
%TO.N,Net-(D26-A)*%
X311706250Y-91200000D03*
%TD*%
%TO.P,D6,1,K*%
%TO.N,ROW0*%
X192668750Y-75460000D03*
%TO.P,D6,2,A*%
%TO.N,Net-(D6-A)*%
X192668750Y-72160000D03*
%TD*%
%TO.P,D19,1,K*%
%TO.N,ROW1*%
X178356250Y-94500000D03*
%TO.P,D19,2,A*%
%TO.N,Net-(D19-A)*%
X178356250Y-91200000D03*
%TD*%
%TO.P,D21,1,K*%
%TO.N,ROW1*%
X216456250Y-94500000D03*
%TO.P,D21,2,A*%
%TO.N,Net-(D21-A)*%
X216456250Y-91200000D03*
%TD*%
%TO.P,D9,1,K*%
%TO.N,ROW0*%
X249658750Y-75460000D03*
%TO.P,D9,2,A*%
%TO.N,Net-(D9-A)*%
X249658750Y-72160000D03*
%TD*%
%TO.P,D3,1,K*%
%TO.N,ROW0*%
X135518750Y-75460000D03*
%TO.P,D3,2,A*%
%TO.N,Net-(D3-A)*%
X135518750Y-72160000D03*
%TD*%
%TO.P,D49,1,K*%
%TO.N,ROW3*%
X159316250Y-132510000D03*
%TO.P,D49,2,A*%
%TO.N,Net-(D49-A)*%
X159316250Y-129210000D03*
%TD*%
%TO.P,D10,1,K*%
%TO.N,ROW0*%
X268706250Y-75460000D03*
%TO.P,D10,2,A*%
%TO.N,Net-(D10-A)*%
X268706250Y-72160000D03*
%TD*%
%TO.P,D31,1,K*%
%TO.N,ROW2*%
X168838750Y-113620000D03*
%TO.P,D31,2,A*%
%TO.N,Net-(D31-A)*%
X168838750Y-110320000D03*
%TD*%
%TO.P,D44,1,K*%
%TO.N,ROW3*%
X295008750Y-132510000D03*
%TO.P,D44,2,A*%
%TO.N,Net-(D44-A)*%
X295008750Y-129210000D03*
%TD*%
%TO.P,D29,1,K*%
%TO.N,ROW2*%
X130738750Y-113620000D03*
%TO.P,D29,2,A*%
%TO.N,Net-(D29-A)*%
X130738750Y-110320000D03*
%TD*%
%TO.P,D14,1,K*%
%TO.N,ROW0*%
X345050000Y-75450000D03*
%TO.P,D14,2,A*%
%TO.N,Net-(D14-A)*%
X345050000Y-72150000D03*
%TD*%
D21*
%TO.N,ROW1*%
X350100000Y-76735500D03*
X350100000Y-88100000D03*
%TO.N,COL13*%
X337978750Y-112800000D03*
%TO.N,COL12*%
X371000000Y-108600000D03*
X330835000Y-101200000D03*
%TD*%
D22*
%TO.N,ROW0*%
X345050000Y-75450000D02*
X92660000Y-75450000D01*
X356375913Y-70141937D02*
X358569813Y-70141937D01*
X351189340Y-75010660D02*
X355620660Y-70579340D01*
X345050000Y-75450000D02*
X350128680Y-75450000D01*
X355620660Y-70579340D02*
G75*
G02*
X356681320Y-70140014I1060640J-1060660D01*
G01*
X350128680Y-75450000D02*
G75*
G03*
X351189350Y-75010670I20J1500000D01*
G01*
%TO.N,Net-(D1-A)*%
X92650000Y-72160000D02*
X92650000Y-66808427D01*
X92064213Y-65394213D02*
G75*
G02*
X92649981Y-66808427I-1414213J-1414187D01*
G01*
%TO.N,Net-(D2-A)*%
X116468750Y-72160000D02*
X116468750Y-66814677D01*
X116468750Y-66814677D02*
G75*
G03*
X115882941Y-65400485I-1999950J-23D01*
G01*
%TO.N,Net-(D3-A)*%
X135518750Y-72160000D02*
X135518750Y-66814677D01*
X134932963Y-65400463D02*
G75*
G02*
X135518781Y-66814677I-1414163J-1414237D01*
G01*
%TO.N,Net-(D4-A)*%
X154568750Y-72160000D02*
X154568750Y-66814677D01*
X154568750Y-66814677D02*
G75*
G03*
X153982941Y-65400485I-1999950J-23D01*
G01*
%TO.N,Net-(D5-A)*%
X173618750Y-72160000D02*
X173618750Y-66814677D01*
X173618750Y-66814677D02*
G75*
G03*
X173032941Y-65400485I-1999950J-23D01*
G01*
%TO.N,Net-(D6-A)*%
X192668750Y-72160000D02*
X192668750Y-66814677D01*
X192668750Y-66814677D02*
G75*
G03*
X192082941Y-65400485I-1999950J-23D01*
G01*
%TO.N,Net-(D7-A)*%
X211718750Y-72160000D02*
X211718750Y-66814677D01*
X211132963Y-65400463D02*
G75*
G02*
X211718781Y-66814677I-1414163J-1414237D01*
G01*
%TO.N,Net-(D8-A)*%
X230768750Y-72160000D02*
X230768750Y-66814677D01*
X230182963Y-65400463D02*
G75*
G02*
X230768781Y-66814677I-1414163J-1414237D01*
G01*
%TO.N,Net-(D9-A)*%
X249658750Y-72160000D02*
X249658750Y-66240464D01*
X249365857Y-65533357D02*
G75*
G02*
X249658790Y-66240464I-707057J-707143D01*
G01*
%TO.N,Net-(D10-A)*%
X268706250Y-72160000D02*
X268706250Y-66237964D01*
X268413357Y-65530857D02*
G75*
G02*
X268706290Y-66237964I-707057J-707143D01*
G01*
%TO.N,Net-(D11-A)*%
X287918750Y-72160000D02*
X287918750Y-66814677D01*
X287332963Y-65400463D02*
G75*
G02*
X287918781Y-66814677I-1414163J-1414237D01*
G01*
%TO.N,Net-(D12-A)*%
X306968750Y-72160000D02*
X306968750Y-66814677D01*
X306382963Y-65400463D02*
G75*
G02*
X306968781Y-66814677I-1414163J-1414237D01*
G01*
%TO.N,Net-(D13-A)*%
X326018750Y-72160000D02*
X326018750Y-66814677D01*
X325432963Y-65400463D02*
G75*
G02*
X326018781Y-66814677I-1414163J-1414237D01*
G01*
%TO.N,Net-(D14-A)*%
X345050000Y-72150000D02*
X345050000Y-66795927D01*
X345050000Y-66795927D02*
G75*
G03*
X344464227Y-65381699I-2000000J27D01*
G01*
%TO.N,ROW1*%
X95000000Y-94500000D02*
X337900000Y-94500000D01*
X350100000Y-88100000D02*
X350100000Y-90678680D01*
X351803840Y-76296160D02*
X354980660Y-73119340D01*
X346278680Y-94500000D02*
X337900000Y-94500000D01*
X356041320Y-72680000D02*
X358204150Y-72680000D01*
X349660660Y-91739340D02*
X347339340Y-94060660D01*
X350100000Y-76735500D02*
X350743180Y-76735500D01*
X351803840Y-76296160D02*
G75*
G02*
X350743180Y-76735486I-1060640J1060660D01*
G01*
X350100000Y-90678680D02*
G75*
G02*
X349660670Y-91739350I-1500000J-20D01*
G01*
X346278680Y-94500000D02*
G75*
G03*
X347339350Y-94060670I20J1500000D01*
G01*
X354980660Y-73119340D02*
G75*
G02*
X356041320Y-72680014I1060640J-1060660D01*
G01*
%TO.N,Net-(D15-A)*%
X95000000Y-91200000D02*
X95000000Y-85827177D01*
X95000000Y-85827177D02*
G75*
G03*
X94414202Y-84412974I-2000000J-23D01*
G01*
%TO.N,Net-(D16-A)*%
X121206250Y-91200000D02*
X121206250Y-85839677D01*
X120620463Y-84425463D02*
G75*
G02*
X121206281Y-85839677I-1414163J-1414237D01*
G01*
%TO.N,Net-(D17-A)*%
X140256250Y-91200000D02*
X140256250Y-85839677D01*
X139670463Y-84425463D02*
G75*
G02*
X140256281Y-85839677I-1414163J-1414237D01*
G01*
%TO.N,Net-(D18-A)*%
X159306250Y-91200000D02*
X159306250Y-85839677D01*
X158720463Y-84425463D02*
G75*
G02*
X159306281Y-85839677I-1414163J-1414237D01*
G01*
%TO.N,Net-(D19-A)*%
X178356250Y-91200000D02*
X178356250Y-85839677D01*
X177770463Y-84425463D02*
G75*
G02*
X178356281Y-85839677I-1414163J-1414237D01*
G01*
%TO.N,Net-(D20-A)*%
X197406250Y-91200000D02*
X197406250Y-85839677D01*
X197406250Y-85839677D02*
G75*
G03*
X196820441Y-84425485I-1999950J-23D01*
G01*
%TO.N,Net-(D21-A)*%
X216456250Y-91200000D02*
X216456250Y-85839677D01*
X215870463Y-84425463D02*
G75*
G02*
X216456281Y-85839677I-1414163J-1414237D01*
G01*
%TO.N,Net-(D22-A)*%
X235506250Y-91200000D02*
X235506250Y-85839677D01*
X235506250Y-85839677D02*
G75*
G03*
X234920441Y-84425485I-1999950J-23D01*
G01*
%TO.N,Net-(D23-A)*%
X254556250Y-91200000D02*
X254556250Y-85839677D01*
X254556250Y-85839677D02*
G75*
G03*
X253970441Y-84425485I-1999950J-23D01*
G01*
%TO.N,Net-(D24-A)*%
X273606250Y-91200000D02*
X273606250Y-85839677D01*
X273606250Y-85839677D02*
G75*
G03*
X273020441Y-84425485I-1999950J-23D01*
G01*
%TO.N,Net-(D25-A)*%
X292656250Y-91200000D02*
X292656250Y-85839677D01*
X292070463Y-84425463D02*
G75*
G02*
X292656281Y-85839677I-1414163J-1414237D01*
G01*
%TO.N,Net-(D26-A)*%
X311706250Y-91200000D02*
X311706250Y-85839677D01*
X311706250Y-85839677D02*
G75*
G03*
X311120441Y-84425485I-1999950J-23D01*
G01*
%TO.N,Net-(D27-A)*%
X337900000Y-91200000D02*
X337900000Y-85839677D01*
X337900000Y-85839677D02*
G75*
G03*
X337314202Y-84425474I-2000000J-23D01*
G01*
%TO.N,ROW2*%
X349550000Y-108498680D02*
X349550000Y-100642387D01*
X377700000Y-83824264D02*
X377700000Y-74021320D01*
X345050000Y-113620000D02*
X349110660Y-109559340D01*
X377260660Y-72960660D02*
X374879340Y-70579340D01*
X99766250Y-113620000D02*
X130738750Y-113620000D01*
X149788750Y-113620000D02*
X130738750Y-113620000D01*
X360392387Y-89800000D02*
X371517157Y-89800000D01*
X345050000Y-113620000D02*
X149788750Y-113620000D01*
X372931371Y-89214213D02*
X377260660Y-84884924D01*
X350135787Y-99228173D02*
X358978174Y-90385786D01*
X377700000Y-74021320D02*
G75*
G03*
X377260670Y-72960650I-1500000J20D01*
G01*
X349110660Y-109559340D02*
G75*
G03*
X349549986Y-108498680I-1060660J1060640D01*
G01*
X360392387Y-89800000D02*
G75*
G03*
X358978180Y-90385792I13J-2000000D01*
G01*
X377260660Y-84884924D02*
G75*
G03*
X377699974Y-83824264I-1060660J1060624D01*
G01*
X349550000Y-100642387D02*
G75*
G02*
X350135793Y-99228179I2000000J-13D01*
G01*
X372931371Y-89214213D02*
G75*
G02*
X371517157Y-89799970I-1414171J1414213D01*
G01*
%TO.N,Net-(D28-A)*%
X99766250Y-110320000D02*
X99766250Y-104880927D01*
X99766250Y-104880927D02*
G75*
G03*
X99180466Y-103466710I-1999950J27D01*
G01*
%TO.N,Net-(D29-A)*%
X130738750Y-110320000D02*
X130738750Y-104897177D01*
X130152963Y-103482963D02*
G75*
G02*
X130738781Y-104897177I-1414163J-1414237D01*
G01*
%TO.N,Net-(D30-A)*%
X149788750Y-110320000D02*
X149788750Y-104897177D01*
X149788750Y-104897177D02*
G75*
G03*
X149202941Y-103482985I-1999950J-23D01*
G01*
%TO.N,Net-(D31-A)*%
X168838750Y-110320000D02*
X168838750Y-104897177D01*
X168838750Y-104897177D02*
G75*
G03*
X168252941Y-103482985I-1999950J-23D01*
G01*
%TO.N,Net-(D32-A)*%
X187888750Y-110320000D02*
X187888750Y-104897177D01*
X187888750Y-104897177D02*
G75*
G03*
X187302941Y-103482985I-1999950J-23D01*
G01*
%TO.N,Net-(D33-A)*%
X206938750Y-110320000D02*
X206938750Y-104897177D01*
X206352963Y-103482963D02*
G75*
G02*
X206938781Y-104897177I-1414163J-1414237D01*
G01*
%TO.N,Net-(D34-A)*%
X225988750Y-110320000D02*
X225988750Y-104897177D01*
X225402963Y-103482963D02*
G75*
G02*
X225988781Y-104897177I-1414163J-1414237D01*
G01*
%TO.N,Net-(D35-A)*%
X245038750Y-110320000D02*
X245038750Y-104897177D01*
X244452963Y-103482963D02*
G75*
G02*
X245038781Y-104897177I-1414163J-1414237D01*
G01*
%TO.N,Net-(D36-A)*%
X264088750Y-110320000D02*
X264088750Y-104897177D01*
X263502963Y-103482963D02*
G75*
G02*
X264088781Y-104897177I-1414163J-1414237D01*
G01*
%TO.N,Net-(D37-A)*%
X283138750Y-110320000D02*
X283138750Y-104897177D01*
X283138750Y-104897177D02*
G75*
G03*
X282552941Y-103482985I-1999950J-23D01*
G01*
%TO.N,Net-(D38-A)*%
X302188750Y-110320000D02*
X302188750Y-104897177D01*
X302188750Y-104897177D02*
G75*
G03*
X301602941Y-103482985I-1999950J-23D01*
G01*
%TO.N,Net-(D39-A)*%
X333220000Y-110320000D02*
X333220000Y-104557964D01*
X322897500Y-103346250D02*
X332422500Y-103346250D01*
X332927107Y-103850857D02*
G75*
G02*
X333220026Y-104557964I-707107J-707143D01*
G01*
%TO.N,Net-(D41-A)*%
X345050000Y-110240000D02*
X345050000Y-104895927D01*
X344464213Y-103481713D02*
G75*
G02*
X345049981Y-104895927I-1414213J-1414187D01*
G01*
%TO.N,ROW3*%
X378150000Y-71871320D02*
X378150000Y-84010660D01*
X359164570Y-90835786D02*
X350585787Y-99414569D01*
X342700000Y-132510000D02*
X216500000Y-132510000D01*
X216500000Y-132510000D02*
X90260000Y-132510000D01*
X348000000Y-132510000D02*
X342700000Y-132510000D01*
X350000000Y-127300000D02*
X350000000Y-130510000D01*
X350000000Y-100828783D02*
X350000000Y-127300000D01*
X377710660Y-85071320D02*
X373117767Y-89664213D01*
X374939340Y-68039340D02*
X377710660Y-70810660D01*
X371703553Y-90250000D02*
X360578783Y-90250000D01*
X350585787Y-99414569D02*
G75*
G03*
X349999988Y-100828783I1414213J-1414231D01*
G01*
X360578783Y-90250000D02*
G75*
G03*
X359164578Y-90835794I17J-2000000D01*
G01*
X378150000Y-84010660D02*
G75*
G02*
X377710680Y-85071340I-1500000J-40D01*
G01*
X373117767Y-89664213D02*
G75*
G02*
X371703553Y-90249967I-1414167J1414213D01*
G01*
X350000000Y-130510000D02*
G75*
G02*
X348000000Y-132510000I-2000000J0D01*
G01*
X377710660Y-70810660D02*
G75*
G02*
X378149986Y-71871320I-1060660J-1060640D01*
G01*
%TO.N,Net-(D42-A)*%
X342700000Y-129210000D02*
X342700000Y-123977177D01*
X342700000Y-123977177D02*
G75*
G03*
X342114202Y-122562974I-2000000J-23D01*
G01*
%TO.N,Net-(D43-A)*%
X318828750Y-129210000D02*
X318828750Y-123918427D01*
X318828750Y-123918427D02*
G75*
G03*
X318242966Y-122504210I-1999950J27D01*
G01*
%TO.N,Net-(D44-A)*%
X295008750Y-129210000D02*
X295008750Y-123910927D01*
X294422963Y-122496713D02*
G75*
G02*
X295008745Y-123910927I-1414163J-1414187D01*
G01*
%TO.N,Net-(D45-A)*%
X273646250Y-129210000D02*
X273646250Y-123979677D01*
X273060463Y-122565463D02*
G75*
G02*
X273646281Y-123979677I-1414163J-1414237D01*
G01*
%TO.N,Net-(D46-A)*%
X253841250Y-122396250D02*
X237172500Y-122396250D01*
X254538750Y-129135000D02*
X254538750Y-123922177D01*
X253952963Y-122507963D02*
G75*
G02*
X254538781Y-123922177I-1414163J-1414237D01*
G01*
%TO.N,Net-(D47-A)*%
X216500000Y-129210000D02*
X216500000Y-123983427D01*
X216500000Y-123983427D02*
G75*
G03*
X215914227Y-122569199I-2000000J27D01*
G01*
%TO.N,Net-(D48-A)*%
X189547500Y-122396250D02*
X177641250Y-122396250D01*
X190250000Y-129210000D02*
X190250000Y-123927177D01*
X190250000Y-123927177D02*
G75*
G03*
X189664202Y-122512974I-2000000J-23D01*
G01*
%TO.N,Net-(D49-A)*%
X159316250Y-129210000D02*
X159316250Y-123949677D01*
X158730463Y-122535463D02*
G75*
G02*
X159316281Y-123949677I-1414163J-1414237D01*
G01*
%TO.N,Net-(D50-A)*%
X137888750Y-129210000D02*
X137888750Y-123953427D01*
X137888750Y-123953427D02*
G75*
G03*
X137302966Y-122539210I-1999950J27D01*
G01*
%TO.N,Net-(D51-A)*%
X114056250Y-129210000D02*
X114056250Y-123933427D01*
X114056250Y-123933427D02*
G75*
G03*
X113470466Y-122519210I-1999950J27D01*
G01*
%TO.N,Net-(D52-A)*%
X90260000Y-129210000D02*
X90260000Y-123949677D01*
X90260000Y-123949677D02*
G75*
G03*
X89674202Y-122535474I-2000000J-23D01*
G01*
%TO.N,Net-(D40-A)*%
X353300000Y-127210000D02*
X363324150Y-127210000D01*
%TO.N,ENC_CCW*%
X366324150Y-105090000D02*
X360248250Y-105090000D01*
X351485787Y-99787361D02*
X359537362Y-91735786D01*
X360951575Y-91150000D02*
X372076345Y-91150000D01*
X373490559Y-90564213D02*
X378610660Y-85444112D01*
X379050000Y-84383452D02*
X379050000Y-67996320D01*
X350900000Y-104090000D02*
X350900000Y-101201575D01*
X368324150Y-112710000D02*
X368324150Y-107090000D01*
X360248250Y-105090000D02*
X351900000Y-105090000D01*
X378610660Y-66935660D02*
X374634340Y-62959340D01*
X350900000Y-101201575D02*
G75*
G02*
X351485799Y-99787373I2000000J-25D01*
G01*
X351900000Y-105090000D02*
G75*
G02*
X350900000Y-104090000I0J1000000D01*
G01*
X372076345Y-91150000D02*
G75*
G03*
X373490537Y-90564191I-45J2000000D01*
G01*
X360951575Y-91150000D02*
G75*
G03*
X359537374Y-91735798I25J-2000000D01*
G01*
X379050000Y-67996320D02*
G75*
G03*
X378610670Y-66935650I-1500000J20D01*
G01*
X366324150Y-105090000D02*
G75*
G02*
X368324200Y-107090000I50J-2000000D01*
G01*
X378610660Y-85444112D02*
G75*
G03*
X379049966Y-84383452I-1060660J1060612D01*
G01*
%TO.N,ENC_CW*%
X378160660Y-68760660D02*
X374899340Y-65499340D01*
X373304163Y-90114213D02*
X378160660Y-85257716D01*
X360765179Y-90700000D02*
X371889949Y-90700000D01*
X350450000Y-106630000D02*
X350450000Y-101015179D01*
X360248250Y-107630000D02*
X351450000Y-107630000D01*
X351035787Y-99600965D02*
X359350966Y-91285786D01*
X378600000Y-84197056D02*
X378600000Y-69821320D01*
X351450000Y-107630000D02*
G75*
G02*
X350450000Y-106630000I0J1000000D01*
G01*
X360765179Y-90700000D02*
G75*
G03*
X359350976Y-91285796I21J-2000000D01*
G01*
X378600000Y-69821320D02*
G75*
G03*
X378160670Y-68760650I-1500000J20D01*
G01*
X378160660Y-85257716D02*
G75*
G03*
X378599969Y-84197056I-1060660J1060616D01*
G01*
X350450000Y-101015179D02*
G75*
G02*
X351035797Y-99600975I2000000J-21D01*
G01*
X371889949Y-90700000D02*
G75*
G03*
X373304139Y-90114189I-49J2000000D01*
G01*
%TO.N,GND*%
X360248250Y-110170000D02*
X364324150Y-110170000D01*
X365824150Y-111670000D02*
X365824150Y-112710000D01*
X364324150Y-110170000D02*
G75*
G02*
X365824100Y-111670000I-50J-1500000D01*
G01*
%TO.N,COL0*%
X354638723Y-75661277D02*
X353429340Y-76870660D01*
X352368680Y-77310000D02*
X94368104Y-77310000D01*
X358571750Y-75220000D02*
X356197850Y-75220000D01*
X356197850Y-75220000D02*
X356195913Y-75221937D01*
X356195913Y-75221937D02*
X355699383Y-75221937D01*
X91539677Y-78481573D02*
X83185000Y-86836250D01*
X83185000Y-86836250D02*
X87947500Y-86836250D01*
X94368104Y-77310000D02*
G75*
G03*
X91539675Y-78481571I-4J-4000000D01*
G01*
X355699383Y-75221937D02*
G75*
G03*
X354638739Y-75661293I17J-1499963D01*
G01*
X353429340Y-76870660D02*
G75*
G02*
X352368680Y-77310027I-1060740J1060760D01*
G01*
%TO.N,COL1*%
X122045927Y-78931573D02*
X114141250Y-86836250D01*
X358571750Y-77760000D02*
X124874354Y-77760000D01*
X122045927Y-78931573D02*
G75*
G02*
X124874354Y-77759968I2828473J-2828427D01*
G01*
%TO.N,COL2*%
X352388680Y-78210000D02*
X143474354Y-78210000D01*
X140645927Y-79381573D02*
X133191250Y-86836250D01*
X358569813Y-80298063D02*
X355719383Y-80298063D01*
X354658723Y-79858723D02*
X353449340Y-78649340D01*
X140645927Y-79381573D02*
G75*
G02*
X143474354Y-78209968I2828473J-2828427D01*
G01*
X355719383Y-80298063D02*
G75*
G02*
X354658739Y-79858707I17J1499963D01*
G01*
X353449340Y-78649340D02*
G75*
G03*
X352388680Y-78210014I-1060640J-1060660D01*
G01*
%TO.N,COL3*%
X355098723Y-82398723D02*
X351799340Y-79099340D01*
X350738680Y-78660000D02*
X162074354Y-78660000D01*
X159245927Y-79831573D02*
X152241250Y-86836250D01*
X358569813Y-82838063D02*
X356159383Y-82838063D01*
X162074354Y-78660000D02*
G75*
G03*
X159245950Y-79831596I46J-4000000D01*
G01*
X351799340Y-79099340D02*
G75*
G03*
X350738680Y-78660014I-1060640J-1060660D01*
G01*
X356159383Y-82838063D02*
G75*
G02*
X355098739Y-82398707I17J1499963D01*
G01*
%TO.N,COL4*%
X189830927Y-96871573D02*
X180816250Y-105886250D01*
X346678680Y-95700000D02*
X192659354Y-95700000D01*
X359930877Y-84719123D02*
X360158364Y-84491636D01*
X347739340Y-95260660D02*
X357114214Y-85885786D01*
X171291250Y-124936250D02*
X183197500Y-124936250D01*
X357114214Y-85885786D02*
G75*
G02*
X358528427Y-85300019I1414186J-1414214D01*
G01*
X347739340Y-95260660D02*
G75*
G02*
X346678680Y-95699986I-1060640J1060660D01*
G01*
X360744150Y-83077423D02*
G75*
G02*
X360158342Y-84491614I-1999950J23D01*
G01*
X189830927Y-96871573D02*
G75*
G02*
X192659354Y-95699968I2828473J-2828427D01*
G01*
X359930877Y-84719123D02*
G75*
G02*
X358528427Y-85300022I-1402377J1402323D01*
G01*
%TO.N,COL5*%
X208430927Y-97321573D02*
X199866250Y-105886250D01*
X362698363Y-84601637D02*
X362135786Y-85164214D01*
X360721573Y-85750000D02*
X358714823Y-85750000D01*
X357300609Y-86335787D02*
X347925736Y-95710660D01*
X346865076Y-96150000D02*
X211259354Y-96150000D01*
X357300609Y-86335787D02*
G75*
G02*
X358714823Y-85750016I1414191J-1414213D01*
G01*
X211259354Y-96150000D02*
G75*
G03*
X208430950Y-97321596I46J-4000000D01*
G01*
X363284150Y-83187423D02*
G75*
G02*
X362698341Y-84601615I-1999950J23D01*
G01*
X362135786Y-85164214D02*
G75*
G02*
X360721573Y-85749981I-1414186J1414214D01*
G01*
X347925736Y-95710660D02*
G75*
G02*
X346865076Y-96149983I-1060636J1060660D01*
G01*
%TO.N,COL6*%
X357487005Y-86785787D02*
X348123964Y-96148828D01*
X347766484Y-96416956D02*
X347696643Y-96452540D01*
X347551661Y-96512591D02*
X347477110Y-96536812D01*
X347099159Y-96599196D02*
X347068328Y-96599716D01*
X362971573Y-86200000D02*
X358901219Y-86200000D01*
X347168857Y-96593120D02*
X347099159Y-96599196D01*
X365238363Y-84761637D02*
X364385786Y-85614214D01*
X348112065Y-96160627D02*
X348106126Y-96166468D01*
X347324526Y-96573441D02*
X347307995Y-96576059D01*
X347043046Y-96600000D02*
X229859354Y-96600000D01*
X347913683Y-96325231D02*
X347900283Y-96334966D01*
X348077910Y-96193757D02*
X348024274Y-96238796D01*
X347051464Y-96599929D02*
X347043046Y-96600000D01*
X227030927Y-97771573D02*
X218916250Y-105886250D01*
X348106126Y-96166468D02*
X348077910Y-96193757D01*
X347307995Y-96576059D02*
G75*
G02*
X347168857Y-96593119I-312795J1975159D01*
G01*
X347051464Y-96599929D02*
G75*
G03*
X347068328Y-96599716I-17264J2031829D01*
G01*
X365238363Y-84761637D02*
G75*
G03*
X365824181Y-83347423I-1414163J1414237D01*
G01*
X347477110Y-96536812D02*
G75*
G02*
X347324527Y-96573445I-309010J951012D01*
G01*
X347913683Y-96325231D02*
G75*
G03*
X348024276Y-96238798I-1175483J1618031D01*
G01*
X364385786Y-85614214D02*
G75*
G02*
X362971573Y-86199981I-1414186J1414214D01*
G01*
X229859354Y-96600000D02*
G75*
G03*
X227030950Y-97771596I46J-4000000D01*
G01*
X347900283Y-96334966D02*
G75*
G02*
X347766486Y-96416961I-587783J808966D01*
G01*
X348112065Y-96160627D02*
G75*
G03*
X348123964Y-96148828I-1392165J1415827D01*
G01*
X358901219Y-86200000D02*
G75*
G03*
X357486995Y-86785777I-19J-2000000D01*
G01*
X347696643Y-96452540D02*
G75*
G02*
X347551661Y-96512590I-453943J890940D01*
G01*
%TO.N,COL7*%
X247775708Y-97110008D02*
X247583201Y-97148302D01*
X248177035Y-97060800D02*
X247969847Y-97081209D01*
X347220820Y-97050000D02*
X248471248Y-97050000D01*
X245709800Y-98144576D02*
X245639539Y-98213166D01*
X245622416Y-98230084D02*
X237966250Y-105886250D01*
X347355763Y-97047990D02*
X347254913Y-97049709D01*
X357673401Y-87235787D02*
X348310465Y-96598723D01*
X348213756Y-96692617D02*
X348150341Y-96738689D01*
X246319984Y-97671559D02*
X246156787Y-97780606D01*
X245999143Y-97897525D02*
X245838088Y-98029702D01*
X247392810Y-97195995D02*
X247204987Y-97252973D01*
X367778363Y-84671637D02*
X366385786Y-86064214D01*
X247020191Y-97319096D02*
X246838855Y-97394210D01*
X347882744Y-96902666D02*
X347812903Y-96938250D01*
X347812903Y-96938250D02*
X347738352Y-96962471D01*
X248447461Y-97050141D02*
X248349300Y-97051309D01*
X246661431Y-97478128D02*
X246488332Y-97570653D01*
X364971573Y-86650000D02*
X359087615Y-86650000D01*
X347433185Y-97035729D02*
X347355763Y-97047990D01*
X348286390Y-96622395D02*
X348213756Y-96692617D01*
X245999143Y-97897525D02*
G75*
G02*
X246156784Y-97780602I1269057J-1546275D01*
G01*
X347882744Y-96902666D02*
G75*
G03*
X348150341Y-96738689I-907844J1781866D01*
G01*
X248471248Y-97050000D02*
G75*
G03*
X248447461Y-97050141I-48J-1992300D01*
G01*
X367778363Y-84671637D02*
G75*
G03*
X368364181Y-83257423I-1414163J1414237D01*
G01*
X347433185Y-97035729D02*
G75*
G03*
X347738354Y-96962476I-312785J1975329D01*
G01*
X245639539Y-98213166D02*
G75*
G03*
X245622417Y-98230085I1389261J-1423134D01*
G01*
X248349300Y-97051309D02*
G75*
G03*
X248177035Y-97060802I23800J-1999691D01*
G01*
X247392810Y-97195995D02*
G75*
G02*
X247583201Y-97148301I580690J-1914205D01*
G01*
X247969847Y-97081209D02*
G75*
G03*
X247775707Y-97110005I196053J-1990591D01*
G01*
X348286390Y-96622395D02*
G75*
G03*
X348310465Y-96598723I-1393690J1441495D01*
G01*
X245838088Y-98029702D02*
G75*
G03*
X245709798Y-98144574I1268912J-1546198D01*
G01*
X246661431Y-97478128D02*
G75*
G02*
X246838854Y-97394208I942769J-1763672D01*
G01*
X359087615Y-86650000D02*
G75*
G03*
X357673393Y-87235779I-15J-2000000D01*
G01*
X347254913Y-97049709D02*
G75*
G02*
X347220820Y-97049999I-34113J2003909D01*
G01*
X246488332Y-97570653D02*
G75*
G03*
X246319984Y-97671558I942868J-1763947D01*
G01*
X366385786Y-86064214D02*
G75*
G02*
X364971573Y-86649981I-1414186J1414214D01*
G01*
X247204987Y-97252973D02*
G75*
G03*
X247020193Y-97319100I580513J-1913527D01*
G01*
%TO.N,COL8*%
X264230927Y-98671573D02*
X257016250Y-105886250D01*
X230822500Y-124936250D02*
X247491250Y-124936250D01*
X370318363Y-84631637D02*
X368435786Y-86514214D01*
X357859797Y-87685787D02*
X348484924Y-97060660D01*
X367021573Y-87100000D02*
X359274011Y-87100000D01*
X347424264Y-97500000D02*
X267059354Y-97500000D01*
X348484924Y-97060660D02*
G75*
G02*
X347424264Y-97499974I-1060624J1060660D01*
G01*
X267059354Y-97500000D02*
G75*
G03*
X264230950Y-98671596I46J-4000000D01*
G01*
X370904150Y-83217423D02*
G75*
G02*
X370318341Y-84631615I-1999950J23D01*
G01*
X368435786Y-86514214D02*
G75*
G02*
X367021573Y-87099981I-1414186J1414214D01*
G01*
X359274011Y-87100000D02*
G75*
G03*
X357859791Y-87685781I-11J-2000000D01*
G01*
%TO.N,COL9*%
X282830927Y-99121573D02*
X276066250Y-105886250D01*
X369471573Y-87550000D02*
X359460407Y-87550000D01*
X347610660Y-97950000D02*
X285659354Y-97950000D01*
X372858363Y-84991637D02*
X370885786Y-86964214D01*
X373444150Y-82840000D02*
X373444150Y-83577423D01*
X358046193Y-88135787D02*
X348671320Y-97510660D01*
X373444150Y-83577423D02*
G75*
G02*
X372858341Y-84991615I-1999950J23D01*
G01*
X369471573Y-87550000D02*
G75*
G03*
X370885800Y-86964228I27J2000000D01*
G01*
X348671320Y-97510660D02*
G75*
G02*
X347610660Y-97949971I-1060620J1060660D01*
G01*
X359460407Y-87550000D02*
G75*
G03*
X358046189Y-88135783I-7J-2000000D01*
G01*
X285659354Y-97950000D02*
G75*
G03*
X282830950Y-99121596I46J-4000000D01*
G01*
%TO.N,COL10*%
X374939340Y-80739340D02*
X375460660Y-81260660D01*
X375460660Y-84139340D02*
X372185786Y-87414214D01*
X301430927Y-99571573D02*
X295116250Y-105886250D01*
X375900000Y-82321320D02*
X375900000Y-83078680D01*
X347797056Y-98400000D02*
X304259354Y-98400000D01*
X358232589Y-88585787D02*
X348857716Y-97960660D01*
X370771573Y-88000000D02*
X359646803Y-88000000D01*
X348857716Y-97960660D02*
G75*
G02*
X347797056Y-98399969I-1060616J1060660D01*
G01*
X375460660Y-81260660D02*
G75*
G02*
X375899986Y-82321320I-1060660J-1060640D01*
G01*
X370771573Y-88000000D02*
G75*
G03*
X372185800Y-87414228I27J2000000D01*
G01*
X359646803Y-88000000D02*
G75*
G03*
X358232587Y-88585785I-3J-2000000D01*
G01*
X304259354Y-98400000D02*
G75*
G03*
X301430950Y-99571596I46J-4000000D01*
G01*
X375900000Y-83078680D02*
G75*
G02*
X375460670Y-84139350I-1500000J-20D01*
G01*
%TO.N,COL11*%
X374899340Y-78199340D02*
X375910660Y-79210660D01*
X376350000Y-80271320D02*
X376350000Y-83265076D01*
X370957969Y-88450000D02*
X359833199Y-88450000D01*
X322412178Y-100021573D02*
X316547500Y-105886250D01*
X326072500Y-105886250D02*
X316547500Y-105886250D01*
X375910660Y-84325736D02*
X372372182Y-87864214D01*
X347983452Y-98850000D02*
X325240605Y-98850000D01*
X358418985Y-89035787D02*
X349044112Y-98410660D01*
X349044112Y-98410660D02*
G75*
G02*
X347983452Y-98849966I-1060612J1060660D01*
G01*
X376350000Y-83265076D02*
G75*
G02*
X375910672Y-84325748I-1500000J-24D01*
G01*
X325240605Y-98850000D02*
G75*
G03*
X322412175Y-100021570I-5J-4000000D01*
G01*
X375910660Y-79210660D02*
G75*
G02*
X376349986Y-80271320I-1060660J-1060640D01*
G01*
X370957969Y-88450000D02*
G75*
G03*
X372372198Y-87864230I31J2000000D01*
G01*
X358418985Y-89035787D02*
G75*
G02*
X359833199Y-88449999I1414215J-1414213D01*
G01*
%TO.N,COL13*%
X349685787Y-99041777D02*
X358791778Y-89935786D01*
X377250000Y-83637868D02*
X377250000Y-76371320D01*
X337978750Y-112800000D02*
X344612284Y-112800000D01*
X376810660Y-75310660D02*
X374619340Y-73119340D01*
X345672944Y-112360660D02*
X348660660Y-109372944D01*
X349100000Y-108312284D02*
X349100000Y-100455991D01*
X360205991Y-89350000D02*
X371330761Y-89350000D01*
X372744975Y-88764213D02*
X376810660Y-84698528D01*
X360205991Y-89350000D02*
G75*
G03*
X358791782Y-89935790I9J-2000000D01*
G01*
X349685787Y-99041777D02*
G75*
G03*
X349099994Y-100455991I1414213J-1414223D01*
G01*
X376810660Y-84698528D02*
G75*
G03*
X377249977Y-83637868I-1060660J1060628D01*
G01*
X377250000Y-76371320D02*
G75*
G03*
X376810670Y-75310650I-1500000J20D01*
G01*
X371330761Y-89350000D02*
G75*
G03*
X372744995Y-88764233I39J2000000D01*
G01*
X348660660Y-109372944D02*
G75*
G03*
X349099988Y-108312284I-1060660J1060644D01*
G01*
X344612284Y-112800000D02*
G75*
G03*
X345672952Y-112360668I16J1500000D01*
G01*
%TO.N,COL12*%
X360323250Y-102250000D02*
X369000000Y-102250000D01*
X371000000Y-104250000D02*
X371000000Y-108600000D01*
X358605382Y-89485786D02*
X349301359Y-98789809D01*
X374859340Y-75659340D02*
X376360660Y-77160660D01*
X348069648Y-99300000D02*
X333977641Y-99300000D01*
X376360660Y-84512132D02*
X372558579Y-88314213D01*
X371144365Y-88900000D02*
X360019595Y-88900000D01*
X331856320Y-100178680D02*
X330835000Y-101200000D01*
X376800000Y-78221320D02*
X376800000Y-83451472D01*
X349301359Y-98789809D02*
G75*
G02*
X348069648Y-99300035I-1231759J1231709D01*
G01*
X372558579Y-88314213D02*
G75*
G02*
X371144365Y-88899975I-1414179J1414213D01*
G01*
X360019595Y-88900000D02*
G75*
G03*
X358605384Y-89485788I5J-2000000D01*
G01*
X376360660Y-77160660D02*
G75*
G02*
X376799986Y-78221320I-1060660J-1060640D01*
G01*
X376800000Y-83451472D02*
G75*
G02*
X376360674Y-84512146I-1500000J-28D01*
G01*
X331856320Y-100178680D02*
G75*
G02*
X333977641Y-99300029I2121280J-2121320D01*
G01*
X371000000Y-104250000D02*
G75*
G03*
X369000000Y-102250000I-2000000J0D01*
G01*
%TD*%
M02*
