%TF.GenerationSoftware,KiCad,Pcbnew,9.0.2*%
%TF.CreationDate,2025-07-09T23:02:58+05:30*%
%TF.ProjectId,comfort40pcb,636f6d66-6f72-4743-9430-7063622e6b69,rev?*%
%TF.SameCoordinates,Original*%
%TF.FileFunction,Profile,NP*%
%FSLAX46Y46*%
G04 Gerber Fmt 4.6, Leading zero omitted, Abs format (unit mm)*
G04 Created by KiCad (PCBNEW 9.0.2) date 2025-07-09 23:02:58*
%MOMM*%
%LPD*%
G01*
G04 APERTURE LIST*
%TA.AperFunction,Profile*%
%ADD10C,0.100000*%
%TD*%
%TA.AperFunction,Profile*%
%ADD11C,0.050000*%
%TD*%
G04 APERTURE END LIST*
D10*
X371597619Y-81701253D02*
X360097619Y-81701253D01*
X76383619Y-137000000D02*
X378983619Y-137000000D01*
X378983619Y-60801249D02*
X373697619Y-60801249D01*
X371775636Y-81681239D02*
X371597619Y-81701253D01*
X76383619Y-137000000D02*
G75*
G02*
X75083600Y-135700000I-19J1300000D01*
G01*
X372397619Y-80901253D02*
X372377552Y-81079271D01*
X372318381Y-81248363D02*
X372223072Y-81400051D01*
X359317618Y-81079275D02*
X359297619Y-80901253D01*
X355300000Y-60801249D02*
X76383619Y-60801249D01*
X359750496Y-81622035D02*
X359598802Y-81526727D01*
X359598802Y-81526727D02*
X359472118Y-81400055D01*
X372223072Y-81400051D02*
X372096402Y-81526731D01*
X372377552Y-81079271D02*
X372318381Y-81248363D01*
X372397619Y-62101249D02*
G75*
G02*
X373697619Y-60801319I1299881J49D01*
G01*
X359297619Y-80900000D02*
X359297619Y-62101249D01*
X359376797Y-81248369D02*
X359317618Y-81079275D01*
X380283619Y-135700000D02*
G75*
G02*
X378983619Y-137000019I-1300019J0D01*
G01*
X75083619Y-135700000D02*
X75083619Y-62101249D01*
X355300000Y-60801249D02*
X357997619Y-60801249D01*
X75083619Y-62101249D02*
G75*
G02*
X76383619Y-60801319I1299881J49D01*
G01*
X360097619Y-81701253D02*
X359919595Y-81681199D01*
X359472118Y-81400055D02*
X359376797Y-81248369D01*
X372397619Y-80901253D02*
X372397619Y-62101249D01*
X378983619Y-60801249D02*
G75*
G02*
X380283551Y-62101249I-19J-1299951D01*
G01*
X357997619Y-60801249D02*
G75*
G02*
X359297651Y-62101249I-19J-1300051D01*
G01*
X371944722Y-81622054D02*
X371775636Y-81681239D01*
X372096402Y-81526731D02*
X371944722Y-81622054D01*
X359919595Y-81681199D02*
X359750496Y-81622035D01*
X380283619Y-62101249D02*
X380283619Y-135700000D01*
D11*
%TO.C,SW3*%
X372723250Y-116600000D02*
X372723250Y-101200000D01*
X373123250Y-100800000D02*
X375723250Y-100800000D01*
X375723250Y-117000000D02*
X373123250Y-117000000D01*
X376123250Y-101200000D02*
X376123250Y-116600000D01*
X372723250Y-101200000D02*
G75*
G02*
X373123250Y-100800000I400000J0D01*
G01*
X373123250Y-117000000D02*
G75*
G02*
X372723250Y-116600000I0J400000D01*
G01*
X375723250Y-100800000D02*
G75*
G02*
X376123250Y-101200000I0J-400000D01*
G01*
X376123250Y-116600000D02*
G75*
G02*
X375723250Y-117000000I-400000J0D01*
G01*
%TD*%
M02*
