M48
; DRILL file {KiCad 9.0.2} date 2025-07-09T23:01:19+0530
; FORMAT={-:-/ absolute / metric / decimal}
; #@! TF.CreationDate,2025-07-09T23:01:19+05:30
; #@! TF.GenerationSoftware,Kicad,Pcbnew,9.0.2
; #@! TF.FileFunction,NonPlated,1,2,NPTH
FMAT,2
METRIC
; #@! TA.AperFunction,NonPlated,NPTH,ComponentDrill
T1C1.700
; #@! TA.AperFunction,NonPlated,NPTH,ComponentDrill
T2C1.702
; #@! TA.AperFunction,NonPlated,NPTH,ComponentDrill
T3C3.048
; #@! TA.AperFunction,NonPlated,NPTH,ComponentDrill
T4C3.988
%
G90
G05
T1
X359.698Y-115.2
T2
X81.915Y-127.476
X84.296Y-70.326
X86.677Y-89.376
X86.73Y-89.376
X91.44Y-108.426
X92.075Y-127.476
X94.456Y-70.326
X96.837Y-89.376
X96.89Y-89.376
X101.6Y-108.426
X105.727Y-127.476
X108.109Y-70.326
X112.871Y-89.376
X115.887Y-127.476
X118.269Y-70.326
X122.396Y-108.426
X123.031Y-89.376
X127.159Y-70.326
X129.54Y-127.476
X131.921Y-89.376
X132.556Y-108.426
X137.319Y-70.326
X139.7Y-127.476
X141.446Y-108.426
X142.081Y-89.376
X146.209Y-70.326
X150.971Y-89.376
X150.971Y-127.476
X151.606Y-108.426
X156.369Y-70.326
X160.496Y-108.426
X161.131Y-89.376
X161.131Y-127.476
X165.259Y-70.326
X170.021Y-89.376
X170.021Y-127.476
X170.656Y-108.426
X175.419Y-70.326
X179.546Y-108.426
X180.181Y-89.376
X180.181Y-127.476
X181.927Y-127.476
X184.309Y-70.326
X189.071Y-89.376
X189.706Y-108.426
X192.087Y-127.476
X194.469Y-70.326
X198.596Y-108.426
X199.231Y-89.376
X203.359Y-70.326
X208.121Y-89.376
X208.121Y-127.476
X208.756Y-108.426
X213.519Y-70.326
X217.646Y-108.426
X218.281Y-89.376
X218.281Y-127.476
X222.409Y-70.326
X227.171Y-89.376
X227.806Y-108.426
X229.552Y-127.476
X232.569Y-70.326
X236.696Y-108.426
X237.331Y-89.376
X239.712Y-127.476
X241.459Y-70.326
X246.221Y-89.376
X246.221Y-127.476
X246.856Y-108.426
X251.619Y-70.326
X255.746Y-108.426
X256.381Y-89.376
X256.381Y-127.476
X260.509Y-70.326
X265.271Y-89.376
X265.271Y-127.476
X265.906Y-108.426
X270.669Y-70.326
X274.796Y-108.426
X275.431Y-89.376
X275.431Y-127.476
X279.559Y-70.326
X284.321Y-89.376
X284.956Y-108.426
X286.702Y-127.476
X289.719Y-70.326
X293.846Y-108.426
X294.481Y-89.376
X296.863Y-127.476
X298.609Y-70.326
X303.371Y-89.376
X304.006Y-108.426
X308.769Y-70.326
X310.515Y-127.476
X313.531Y-89.376
X315.277Y-108.426
X317.659Y-70.326
X320.675Y-127.476
X324.803Y-108.426
X325.438Y-108.426
X327.819Y-70.326
X329.565Y-89.376
X334.327Y-127.476
X334.962Y-108.426
X336.709Y-70.326
X336.709Y-108.426
X339.725Y-89.376
X344.488Y-127.476
X346.869Y-70.326
X346.869Y-108.426
T3
X84.582Y-101.441
X108.458Y-101.441
X156.051Y-134.461
X163.163Y-134.461
X175.07Y-120.491
X187.039Y-134.461
X194.151Y-134.461
X198.945Y-120.491
X222.694Y-134.461
X232.251Y-134.461
X239.363Y-134.461
X246.57Y-134.461
X263.239Y-134.461
X270.351Y-134.461
X317.945Y-101.441
X341.82Y-101.441
T4
X84.582Y-116.681
X86.995Y-127.476
X89.376Y-70.326
X91.757Y-89.376
X91.81Y-89.376
X96.52Y-108.426
X108.458Y-116.681
X110.807Y-127.476
X113.189Y-70.326
X117.951Y-89.376
X127.476Y-108.426
X132.239Y-70.326
X134.62Y-127.476
X137.001Y-89.376
X146.526Y-108.426
X151.289Y-70.326
X156.051Y-89.376
X156.051Y-119.221
X156.051Y-127.476
X163.163Y-119.221
X165.576Y-108.426
X170.339Y-70.326
X175.07Y-135.731
X175.101Y-89.376
X175.101Y-127.476
X184.626Y-108.426
X187.007Y-127.476
X187.039Y-119.221
X189.389Y-70.326
X194.151Y-89.376
X194.151Y-119.221
X198.945Y-135.731
X203.676Y-108.426
X208.439Y-70.326
X213.201Y-89.376
X213.201Y-127.476
X222.694Y-119.221
X222.726Y-108.426
X227.489Y-70.326
X232.251Y-89.376
X232.251Y-119.221
X234.632Y-127.476
X239.363Y-119.221
X241.776Y-108.426
X246.539Y-70.326
X246.57Y-119.221
X251.301Y-89.376
X251.301Y-127.476
X260.826Y-108.426
X263.239Y-119.221
X265.589Y-70.326
X270.351Y-89.376
X270.351Y-119.221
X270.351Y-127.476
X279.876Y-108.426
X284.639Y-70.326
X289.401Y-89.376
X291.782Y-127.476
X298.926Y-108.426
X303.689Y-70.326
X308.451Y-89.376
X315.595Y-127.476
X317.945Y-116.681
X320.357Y-108.426
X322.739Y-70.326
X329.882Y-108.426
X334.645Y-89.376
X339.407Y-127.476
X341.789Y-70.326
X341.789Y-108.426
X341.82Y-116.681
M30
