M48
; DRILL file {KiCad 9.0.2} date 2025-07-09T23:01:19+0530
; FORMAT={-:-/ absolute / metric / decimal}
; #@! TF.CreationDate,2025-07-09T23:01:19+05:30
; #@! TF.GenerationSoftware,Kicad,Pcbnew,9.0.2
; #@! TF.FileFunction,Plated,1,2,PTH
FMAT,2
METRIC
; #@! TA.AperFunction,Plated,PTH,ViaDrill
T1C0.300
; #@! TA.AperFunction,Plated,PTH,ComponentDrill
T2C1.000
; #@! TA.AperFunction,Plated,PTH,ComponentDrill
T3C1.500
; #@! TA.AperFunction,Plated,PTH,ComponentDrill
T4C1.524
; #@! TA.AperFunction,Plated,PTH,ComponentDrill
T5C2.000
%
G90
G05
T1
X330.835Y-101.2
X337.979Y-112.8
X350.1Y-76.736
X350.1Y-88.1
X371.0Y-108.6
T2
X358.204Y-62.52
X358.204Y-65.06
X358.204Y-67.6
X358.204Y-70.14
X358.204Y-72.68
X358.204Y-75.22
X358.204Y-77.76
X358.204Y-80.3
X358.204Y-82.84
X358.473Y-102.25
X359.698Y-105.09
X359.698Y-107.63
X359.698Y-110.17
X359.698Y-112.71
X360.323Y-102.25
X360.744Y-82.84
X363.284Y-82.84
X363.324Y-112.71
X363.324Y-127.21
X365.824Y-82.84
X365.824Y-112.71
X368.324Y-112.71
X368.324Y-127.21
X368.364Y-82.84
X370.904Y-82.84
X373.444Y-62.52
X373.444Y-65.06
X373.444Y-67.6
X373.444Y-70.14
X373.444Y-72.68
X373.444Y-75.22
X373.444Y-77.76
X373.444Y-80.3
X373.444Y-82.84
T4
X83.185Y-124.936
X85.566Y-67.786
X87.947Y-86.836
X88.0Y-86.836
X89.535Y-122.396
X91.916Y-65.246
X92.71Y-105.886
X94.297Y-84.296
X94.35Y-84.296
X99.06Y-103.346
X106.997Y-124.936
X109.379Y-67.786
X113.347Y-122.396
X114.141Y-86.836
X115.729Y-65.246
X120.491Y-84.296
X123.666Y-105.886
X128.429Y-67.786
X130.016Y-103.346
X130.81Y-124.936
X133.191Y-86.836
X134.779Y-65.246
X137.16Y-122.396
X139.541Y-84.296
X142.716Y-105.886
X147.479Y-67.786
X149.066Y-103.346
X152.241Y-86.836
X152.241Y-124.936
X153.829Y-65.246
X158.591Y-84.296
X158.591Y-122.396
X161.766Y-105.886
X166.529Y-67.786
X168.116Y-103.346
X171.291Y-86.836
X171.291Y-124.936
X172.879Y-65.246
X177.641Y-84.296
X177.641Y-122.396
X180.816Y-105.886
X183.197Y-124.936
X185.579Y-67.786
X187.166Y-103.346
X189.547Y-122.396
X190.341Y-86.836
X191.929Y-65.246
X196.691Y-84.296
X199.866Y-105.886
X204.629Y-67.786
X206.216Y-103.346
X209.391Y-86.836
X209.391Y-124.936
X210.979Y-65.246
X215.741Y-84.296
X215.741Y-122.396
X218.916Y-105.886
X223.679Y-67.786
X225.266Y-103.346
X228.441Y-86.836
X230.029Y-65.246
X232.093Y-122.396
X234.791Y-84.296
X237.966Y-105.886
X238.442Y-124.936
X242.729Y-67.786
X244.316Y-103.346
X247.491Y-86.836
X247.491Y-124.936
X249.079Y-65.246
X253.841Y-84.296
X253.841Y-122.396
X257.016Y-105.886
X261.779Y-67.786
X263.366Y-103.346
X266.541Y-86.836
X266.541Y-124.936
X268.129Y-65.246
X272.891Y-84.296
X272.891Y-122.396
X276.066Y-105.886
X280.829Y-67.786
X282.416Y-103.346
X285.591Y-86.836
X287.179Y-65.246
X287.972Y-124.936
X291.941Y-84.296
X294.322Y-122.396
X295.116Y-105.886
X299.879Y-67.786
X301.466Y-103.346
X304.641Y-86.836
X306.229Y-65.246
X310.991Y-84.296
X311.785Y-124.936
X316.548Y-105.886
X318.135Y-122.396
X318.929Y-67.786
X322.897Y-103.346
X325.279Y-65.246
X326.072Y-105.886
X330.835Y-86.836
X332.422Y-103.346
X335.597Y-124.936
X337.185Y-84.296
X337.979Y-67.786
X337.979Y-105.886
X341.947Y-122.396
X344.329Y-65.246
X344.329Y-103.346
T5
X98.896Y-134.476
X101.268Y-63.326
X145.33Y-134.476
X217.959Y-63.326
X281.062Y-134.476
X327.496Y-134.476
X332.259Y-63.326
X353.865Y-63.301
X353.865Y-134.501
X365.824Y-134.476
X377.759Y-89.478
X377.784Y-63.301
X377.784Y-134.501
T3
G00X360.224Y-119.56
M15
G01X360.224Y-120.86
M16
G05
G00X371.424Y-119.56
M15
G01X371.424Y-120.86
M16
G05
M30
