%TF.GenerationSoftware,KiCad,Pcbnew,9.0.2*%
%TF.CreationDate,2025-07-09T23:02:58+05:30*%
%TF.ProjectId,comfort40pcb,636f6d66-6f72-4743-9430-7063622e6b69,rev?*%
%TF.SameCoordinates,Original*%
%TF.FileFunction,Legend,Bot*%
%TF.FilePolarity,Positive*%
%FSLAX46Y46*%
G04 Gerber Fmt 4.6, Leading zero omitted, Abs format (unit mm)*
G04 Created by KiCad (PCBNEW 9.0.2) date 2025-07-09 23:02:58*
%MOMM*%
%LPD*%
G01*
G04 APERTURE LIST*
%ADD10C,0.150000*%
%ADD11C,0.300000*%
%ADD12C,0.100000*%
%ADD13C,0.500000*%
%ADD14C,0.120000*%
%ADD15C,0.000000*%
G04 APERTURE END LIST*
D10*
X378269819Y-68130826D02*
X377269819Y-68255826D01*
X377269819Y-68255826D02*
X377984104Y-68499874D01*
X377984104Y-68499874D02*
X377269819Y-68922493D01*
X377269819Y-68922493D02*
X378269819Y-68797493D01*
X378174580Y-69857017D02*
X378222200Y-69803445D01*
X378222200Y-69803445D02*
X378269819Y-69654636D01*
X378269819Y-69654636D02*
X378269819Y-69559398D01*
X378269819Y-69559398D02*
X378222200Y-69422493D01*
X378222200Y-69422493D02*
X378126961Y-69339160D01*
X378126961Y-69339160D02*
X378031723Y-69303445D01*
X378031723Y-69303445D02*
X377841247Y-69279636D01*
X377841247Y-69279636D02*
X377698390Y-69297493D01*
X377698390Y-69297493D02*
X377507914Y-69368921D01*
X377507914Y-69368921D02*
X377412676Y-69428445D01*
X377412676Y-69428445D02*
X377317438Y-69535588D01*
X377317438Y-69535588D02*
X377269819Y-69684398D01*
X377269819Y-69684398D02*
X377269819Y-69779636D01*
X377269819Y-69779636D02*
X377317438Y-69916541D01*
X377317438Y-69916541D02*
X377365057Y-69958207D01*
X377269819Y-70398683D02*
X378079342Y-70297493D01*
X378079342Y-70297493D02*
X378174580Y-70333207D01*
X378174580Y-70333207D02*
X378222200Y-70374874D01*
X378222200Y-70374874D02*
X378269819Y-70464160D01*
X378269819Y-70464160D02*
X378269819Y-70654636D01*
X378269819Y-70654636D02*
X378222200Y-70755826D01*
X378222200Y-70755826D02*
X378174580Y-70809398D01*
X378174580Y-70809398D02*
X378079342Y-70868921D01*
X378079342Y-70868921D02*
X377269819Y-70970112D01*
X378269819Y-72226065D02*
X378222200Y-72136779D01*
X378222200Y-72136779D02*
X378174580Y-72095112D01*
X378174580Y-72095112D02*
X378079342Y-72059398D01*
X378079342Y-72059398D02*
X377793628Y-72095112D01*
X377793628Y-72095112D02*
X377698390Y-72154636D01*
X377698390Y-72154636D02*
X377650771Y-72208207D01*
X377650771Y-72208207D02*
X377603152Y-72309398D01*
X377603152Y-72309398D02*
X377603152Y-72452255D01*
X377603152Y-72452255D02*
X377650771Y-72541541D01*
X377650771Y-72541541D02*
X377698390Y-72583207D01*
X377698390Y-72583207D02*
X377793628Y-72618922D01*
X377793628Y-72618922D02*
X378079342Y-72583207D01*
X378079342Y-72583207D02*
X378174580Y-72523684D01*
X378174580Y-72523684D02*
X378222200Y-72470112D01*
X378222200Y-72470112D02*
X378269819Y-72368922D01*
X378269819Y-72368922D02*
X378269819Y-72226065D01*
X377603152Y-73071303D02*
X378269819Y-72987969D01*
X377698390Y-73059398D02*
X377650771Y-73112969D01*
X377650771Y-73112969D02*
X377603152Y-73214160D01*
X377603152Y-73214160D02*
X377603152Y-73357017D01*
X377603152Y-73357017D02*
X377650771Y-73446303D01*
X377650771Y-73446303D02*
X377746009Y-73482017D01*
X377746009Y-73482017D02*
X378269819Y-73416541D01*
X377603152Y-74595113D02*
X377603152Y-74976065D01*
X377269819Y-74779636D02*
X378126961Y-74672494D01*
X378126961Y-74672494D02*
X378222200Y-74708208D01*
X378222200Y-74708208D02*
X378269819Y-74797494D01*
X378269819Y-74797494D02*
X378269819Y-74892732D01*
X378269819Y-75226065D02*
X377269819Y-75351065D01*
X378269819Y-75654637D02*
X377746009Y-75720113D01*
X377746009Y-75720113D02*
X377650771Y-75684399D01*
X377650771Y-75684399D02*
X377603152Y-75595113D01*
X377603152Y-75595113D02*
X377603152Y-75452256D01*
X377603152Y-75452256D02*
X377650771Y-75351065D01*
X377650771Y-75351065D02*
X377698390Y-75297494D01*
X378269819Y-76130827D02*
X377603152Y-76214161D01*
X377269819Y-76255827D02*
X377317438Y-76202256D01*
X377317438Y-76202256D02*
X377365057Y-76243923D01*
X377365057Y-76243923D02*
X377317438Y-76297494D01*
X377317438Y-76297494D02*
X377269819Y-76255827D01*
X377269819Y-76255827D02*
X377365057Y-76243923D01*
X378222200Y-76565351D02*
X378269819Y-76654636D01*
X378269819Y-76654636D02*
X378269819Y-76845113D01*
X378269819Y-76845113D02*
X378222200Y-76946303D01*
X378222200Y-76946303D02*
X378126961Y-77005827D01*
X378126961Y-77005827D02*
X378079342Y-77011779D01*
X378079342Y-77011779D02*
X377984104Y-76976065D01*
X377984104Y-76976065D02*
X377936485Y-76886779D01*
X377936485Y-76886779D02*
X377936485Y-76743922D01*
X377936485Y-76743922D02*
X377888866Y-76654636D01*
X377888866Y-76654636D02*
X377793628Y-76618922D01*
X377793628Y-76618922D02*
X377746009Y-76624875D01*
X377746009Y-76624875D02*
X377650771Y-76684398D01*
X377650771Y-76684398D02*
X377603152Y-76785589D01*
X377603152Y-76785589D02*
X377603152Y-76928446D01*
X377603152Y-76928446D02*
X377650771Y-77017732D01*
X378222200Y-78136780D02*
X378269819Y-78226065D01*
X378269819Y-78226065D02*
X378269819Y-78416542D01*
X378269819Y-78416542D02*
X378222200Y-78517732D01*
X378222200Y-78517732D02*
X378126961Y-78577256D01*
X378126961Y-78577256D02*
X378079342Y-78583208D01*
X378079342Y-78583208D02*
X377984104Y-78547494D01*
X377984104Y-78547494D02*
X377936485Y-78458208D01*
X377936485Y-78458208D02*
X377936485Y-78315351D01*
X377936485Y-78315351D02*
X377888866Y-78226065D01*
X377888866Y-78226065D02*
X377793628Y-78190351D01*
X377793628Y-78190351D02*
X377746009Y-78196304D01*
X377746009Y-78196304D02*
X377650771Y-78255827D01*
X377650771Y-78255827D02*
X377603152Y-78357018D01*
X377603152Y-78357018D02*
X377603152Y-78499875D01*
X377603152Y-78499875D02*
X377650771Y-78589161D01*
X378269819Y-78987970D02*
X377603152Y-79071304D01*
X377269819Y-79112970D02*
X377317438Y-79059399D01*
X377317438Y-79059399D02*
X377365057Y-79101066D01*
X377365057Y-79101066D02*
X377317438Y-79154637D01*
X377317438Y-79154637D02*
X377269819Y-79112970D01*
X377269819Y-79112970D02*
X377365057Y-79101066D01*
X378269819Y-79892732D02*
X377269819Y-80017732D01*
X378222200Y-79898684D02*
X378269819Y-79797494D01*
X378269819Y-79797494D02*
X378269819Y-79607018D01*
X378269819Y-79607018D02*
X378222200Y-79517732D01*
X378222200Y-79517732D02*
X378174580Y-79476065D01*
X378174580Y-79476065D02*
X378079342Y-79440351D01*
X378079342Y-79440351D02*
X377793628Y-79476065D01*
X377793628Y-79476065D02*
X377698390Y-79535589D01*
X377698390Y-79535589D02*
X377650771Y-79589160D01*
X377650771Y-79589160D02*
X377603152Y-79690351D01*
X377603152Y-79690351D02*
X377603152Y-79880827D01*
X377603152Y-79880827D02*
X377650771Y-79970113D01*
X378222200Y-80755827D02*
X378269819Y-80654637D01*
X378269819Y-80654637D02*
X378269819Y-80464160D01*
X378269819Y-80464160D02*
X378222200Y-80374875D01*
X378222200Y-80374875D02*
X378126961Y-80339160D01*
X378126961Y-80339160D02*
X377746009Y-80386780D01*
X377746009Y-80386780D02*
X377650771Y-80446303D01*
X377650771Y-80446303D02*
X377603152Y-80547494D01*
X377603152Y-80547494D02*
X377603152Y-80737970D01*
X377603152Y-80737970D02*
X377650771Y-80827256D01*
X377650771Y-80827256D02*
X377746009Y-80862970D01*
X377746009Y-80862970D02*
X377841247Y-80851065D01*
X377841247Y-80851065D02*
X377936485Y-80362970D01*
X378174580Y-81237970D02*
X378222200Y-81279637D01*
X378222200Y-81279637D02*
X378269819Y-81226065D01*
X378269819Y-81226065D02*
X378222200Y-81184399D01*
X378222200Y-81184399D02*
X378174580Y-81237970D01*
X378174580Y-81237970D02*
X378269819Y-81226065D01*
X377888866Y-81273684D02*
X377317438Y-81297494D01*
X377317438Y-81297494D02*
X377269819Y-81351065D01*
X377269819Y-81351065D02*
X377317438Y-81392732D01*
X377317438Y-81392732D02*
X377888866Y-81273684D01*
X377888866Y-81273684D02*
X377269819Y-81351065D01*
D11*
X192445489Y-81800828D02*
X192445489Y-80300828D01*
X192445489Y-80300828D02*
X191945489Y-81372257D01*
X191945489Y-81372257D02*
X191445489Y-80300828D01*
X191445489Y-80300828D02*
X191445489Y-81800828D01*
X190088346Y-81800828D02*
X190088346Y-81015114D01*
X190088346Y-81015114D02*
X190159774Y-80872257D01*
X190159774Y-80872257D02*
X190302631Y-80800828D01*
X190302631Y-80800828D02*
X190588346Y-80800828D01*
X190588346Y-80800828D02*
X190731203Y-80872257D01*
X190088346Y-81729400D02*
X190231203Y-81800828D01*
X190231203Y-81800828D02*
X190588346Y-81800828D01*
X190588346Y-81800828D02*
X190731203Y-81729400D01*
X190731203Y-81729400D02*
X190802631Y-81586542D01*
X190802631Y-81586542D02*
X190802631Y-81443685D01*
X190802631Y-81443685D02*
X190731203Y-81300828D01*
X190731203Y-81300828D02*
X190588346Y-81229400D01*
X190588346Y-81229400D02*
X190231203Y-81229400D01*
X190231203Y-81229400D02*
X190088346Y-81157971D01*
X188731203Y-81800828D02*
X188731203Y-80300828D01*
X188731203Y-81729400D02*
X188874060Y-81800828D01*
X188874060Y-81800828D02*
X189159774Y-81800828D01*
X189159774Y-81800828D02*
X189302631Y-81729400D01*
X189302631Y-81729400D02*
X189374060Y-81657971D01*
X189374060Y-81657971D02*
X189445488Y-81515114D01*
X189445488Y-81515114D02*
X189445488Y-81086542D01*
X189445488Y-81086542D02*
X189374060Y-80943685D01*
X189374060Y-80943685D02*
X189302631Y-80872257D01*
X189302631Y-80872257D02*
X189159774Y-80800828D01*
X189159774Y-80800828D02*
X188874060Y-80800828D01*
X188874060Y-80800828D02*
X188731203Y-80872257D01*
X187445488Y-81729400D02*
X187588345Y-81800828D01*
X187588345Y-81800828D02*
X187874060Y-81800828D01*
X187874060Y-81800828D02*
X188016917Y-81729400D01*
X188016917Y-81729400D02*
X188088345Y-81586542D01*
X188088345Y-81586542D02*
X188088345Y-81015114D01*
X188088345Y-81015114D02*
X188016917Y-80872257D01*
X188016917Y-80872257D02*
X187874060Y-80800828D01*
X187874060Y-80800828D02*
X187588345Y-80800828D01*
X187588345Y-80800828D02*
X187445488Y-80872257D01*
X187445488Y-80872257D02*
X187374060Y-81015114D01*
X187374060Y-81015114D02*
X187374060Y-81157971D01*
X187374060Y-81157971D02*
X188088345Y-81300828D01*
X185588346Y-81800828D02*
X185588346Y-80300828D01*
X185588346Y-80872257D02*
X185445489Y-80800828D01*
X185445489Y-80800828D02*
X185159774Y-80800828D01*
X185159774Y-80800828D02*
X185016917Y-80872257D01*
X185016917Y-80872257D02*
X184945489Y-80943685D01*
X184945489Y-80943685D02*
X184874060Y-81086542D01*
X184874060Y-81086542D02*
X184874060Y-81515114D01*
X184874060Y-81515114D02*
X184945489Y-81657971D01*
X184945489Y-81657971D02*
X185016917Y-81729400D01*
X185016917Y-81729400D02*
X185159774Y-81800828D01*
X185159774Y-81800828D02*
X185445489Y-81800828D01*
X185445489Y-81800828D02*
X185588346Y-81729400D01*
X184374060Y-80800828D02*
X184016917Y-81800828D01*
X183659774Y-80800828D02*
X184016917Y-81800828D01*
X184016917Y-81800828D02*
X184159774Y-82157971D01*
X184159774Y-82157971D02*
X184231203Y-82229400D01*
X184231203Y-82229400D02*
X184374060Y-82300828D01*
X181945489Y-81800828D02*
X181945489Y-80300828D01*
X181945489Y-80300828D02*
X181374060Y-80300828D01*
X181374060Y-80300828D02*
X181231203Y-80372257D01*
X181231203Y-80372257D02*
X181159774Y-80443685D01*
X181159774Y-80443685D02*
X181088346Y-80586542D01*
X181088346Y-80586542D02*
X181088346Y-80800828D01*
X181088346Y-80800828D02*
X181159774Y-80943685D01*
X181159774Y-80943685D02*
X181231203Y-81015114D01*
X181231203Y-81015114D02*
X181374060Y-81086542D01*
X181374060Y-81086542D02*
X181945489Y-81086542D01*
X180231203Y-81800828D02*
X180374060Y-81729400D01*
X180374060Y-81729400D02*
X180445489Y-81657971D01*
X180445489Y-81657971D02*
X180516917Y-81515114D01*
X180516917Y-81515114D02*
X180516917Y-81086542D01*
X180516917Y-81086542D02*
X180445489Y-80943685D01*
X180445489Y-80943685D02*
X180374060Y-80872257D01*
X180374060Y-80872257D02*
X180231203Y-80800828D01*
X180231203Y-80800828D02*
X180016917Y-80800828D01*
X180016917Y-80800828D02*
X179874060Y-80872257D01*
X179874060Y-80872257D02*
X179802632Y-80943685D01*
X179802632Y-80943685D02*
X179731203Y-81086542D01*
X179731203Y-81086542D02*
X179731203Y-81515114D01*
X179731203Y-81515114D02*
X179802632Y-81657971D01*
X179802632Y-81657971D02*
X179874060Y-81729400D01*
X179874060Y-81729400D02*
X180016917Y-81800828D01*
X180016917Y-81800828D02*
X180231203Y-81800828D01*
X178874060Y-81800828D02*
X179016917Y-81729400D01*
X179016917Y-81729400D02*
X179088346Y-81657971D01*
X179088346Y-81657971D02*
X179159774Y-81515114D01*
X179159774Y-81515114D02*
X179159774Y-81086542D01*
X179159774Y-81086542D02*
X179088346Y-80943685D01*
X179088346Y-80943685D02*
X179016917Y-80872257D01*
X179016917Y-80872257D02*
X178874060Y-80800828D01*
X178874060Y-80800828D02*
X178659774Y-80800828D01*
X178659774Y-80800828D02*
X178516917Y-80872257D01*
X178516917Y-80872257D02*
X178445489Y-80943685D01*
X178445489Y-80943685D02*
X178374060Y-81086542D01*
X178374060Y-81086542D02*
X178374060Y-81515114D01*
X178374060Y-81515114D02*
X178445489Y-81657971D01*
X178445489Y-81657971D02*
X178516917Y-81729400D01*
X178516917Y-81729400D02*
X178659774Y-81800828D01*
X178659774Y-81800828D02*
X178874060Y-81800828D01*
X177731203Y-80800828D02*
X177731203Y-82086542D01*
X177731203Y-82086542D02*
X177802631Y-82229400D01*
X177802631Y-82229400D02*
X177945488Y-82300828D01*
X177945488Y-82300828D02*
X178016917Y-82300828D01*
X177731203Y-80300828D02*
X177802631Y-80372257D01*
X177802631Y-80372257D02*
X177731203Y-80443685D01*
X177731203Y-80443685D02*
X177659774Y-80372257D01*
X177659774Y-80372257D02*
X177731203Y-80300828D01*
X177731203Y-80300828D02*
X177731203Y-80443685D01*
X177016917Y-81800828D02*
X177016917Y-80800828D01*
X177016917Y-80300828D02*
X177088345Y-80372257D01*
X177088345Y-80372257D02*
X177016917Y-80443685D01*
X177016917Y-80443685D02*
X176945488Y-80372257D01*
X176945488Y-80372257D02*
X177016917Y-80300828D01*
X177016917Y-80300828D02*
X177016917Y-80443685D01*
X176516916Y-80800828D02*
X175945488Y-80800828D01*
X176302631Y-80300828D02*
X176302631Y-81586542D01*
X176302631Y-81586542D02*
X176231202Y-81729400D01*
X176231202Y-81729400D02*
X176088345Y-81800828D01*
X176088345Y-81800828D02*
X175945488Y-81800828D01*
X174374059Y-81729400D02*
X174159774Y-81800828D01*
X174159774Y-81800828D02*
X173802631Y-81800828D01*
X173802631Y-81800828D02*
X173659774Y-81729400D01*
X173659774Y-81729400D02*
X173588345Y-81657971D01*
X173588345Y-81657971D02*
X173516916Y-81515114D01*
X173516916Y-81515114D02*
X173516916Y-81372257D01*
X173516916Y-81372257D02*
X173588345Y-81229400D01*
X173588345Y-81229400D02*
X173659774Y-81157971D01*
X173659774Y-81157971D02*
X173802631Y-81086542D01*
X173802631Y-81086542D02*
X174088345Y-81015114D01*
X174088345Y-81015114D02*
X174231202Y-80943685D01*
X174231202Y-80943685D02*
X174302631Y-80872257D01*
X174302631Y-80872257D02*
X174374059Y-80729400D01*
X174374059Y-80729400D02*
X174374059Y-80586542D01*
X174374059Y-80586542D02*
X174302631Y-80443685D01*
X174302631Y-80443685D02*
X174231202Y-80372257D01*
X174231202Y-80372257D02*
X174088345Y-80300828D01*
X174088345Y-80300828D02*
X173731202Y-80300828D01*
X173731202Y-80300828D02*
X173516916Y-80372257D01*
X172874060Y-81800828D02*
X172874060Y-80800828D01*
X172874060Y-81086542D02*
X172802631Y-80943685D01*
X172802631Y-80943685D02*
X172731203Y-80872257D01*
X172731203Y-80872257D02*
X172588345Y-80800828D01*
X172588345Y-80800828D02*
X172445488Y-80800828D01*
X171945489Y-81800828D02*
X171945489Y-80800828D01*
X171945489Y-80300828D02*
X172016917Y-80372257D01*
X172016917Y-80372257D02*
X171945489Y-80443685D01*
X171945489Y-80443685D02*
X171874060Y-80372257D01*
X171874060Y-80372257D02*
X171945489Y-80300828D01*
X171945489Y-80300828D02*
X171945489Y-80443685D01*
X171231203Y-81800828D02*
X171231203Y-80800828D01*
X171231203Y-81086542D02*
X171159774Y-80943685D01*
X171159774Y-80943685D02*
X171088346Y-80872257D01*
X171088346Y-80872257D02*
X170945488Y-80800828D01*
X170945488Y-80800828D02*
X170802631Y-80800828D01*
X169659775Y-81800828D02*
X169659775Y-81015114D01*
X169659775Y-81015114D02*
X169731203Y-80872257D01*
X169731203Y-80872257D02*
X169874060Y-80800828D01*
X169874060Y-80800828D02*
X170159775Y-80800828D01*
X170159775Y-80800828D02*
X170302632Y-80872257D01*
X169659775Y-81729400D02*
X169802632Y-81800828D01*
X169802632Y-81800828D02*
X170159775Y-81800828D01*
X170159775Y-81800828D02*
X170302632Y-81729400D01*
X170302632Y-81729400D02*
X170374060Y-81586542D01*
X170374060Y-81586542D02*
X170374060Y-81443685D01*
X170374060Y-81443685D02*
X170302632Y-81300828D01*
X170302632Y-81300828D02*
X170159775Y-81229400D01*
X170159775Y-81229400D02*
X169802632Y-81229400D01*
X169802632Y-81229400D02*
X169659775Y-81157971D01*
X168945489Y-81800828D02*
X168945489Y-80800828D01*
X168945489Y-80943685D02*
X168874060Y-80872257D01*
X168874060Y-80872257D02*
X168731203Y-80800828D01*
X168731203Y-80800828D02*
X168516917Y-80800828D01*
X168516917Y-80800828D02*
X168374060Y-80872257D01*
X168374060Y-80872257D02*
X168302632Y-81015114D01*
X168302632Y-81015114D02*
X168302632Y-81800828D01*
X168302632Y-81015114D02*
X168231203Y-80872257D01*
X168231203Y-80872257D02*
X168088346Y-80800828D01*
X168088346Y-80800828D02*
X167874060Y-80800828D01*
X167874060Y-80800828D02*
X167731203Y-80872257D01*
X167731203Y-80872257D02*
X167659774Y-81015114D01*
X167659774Y-81015114D02*
X167659774Y-81800828D01*
X165374060Y-80300828D02*
X165374060Y-81372257D01*
X165374060Y-81372257D02*
X165445489Y-81586542D01*
X165445489Y-81586542D02*
X165588346Y-81729400D01*
X165588346Y-81729400D02*
X165802632Y-81800828D01*
X165802632Y-81800828D02*
X165945489Y-81800828D01*
X164445489Y-81800828D02*
X164588346Y-81729400D01*
X164588346Y-81729400D02*
X164659775Y-81657971D01*
X164659775Y-81657971D02*
X164731203Y-81515114D01*
X164731203Y-81515114D02*
X164731203Y-81086542D01*
X164731203Y-81086542D02*
X164659775Y-80943685D01*
X164659775Y-80943685D02*
X164588346Y-80872257D01*
X164588346Y-80872257D02*
X164445489Y-80800828D01*
X164445489Y-80800828D02*
X164231203Y-80800828D01*
X164231203Y-80800828D02*
X164088346Y-80872257D01*
X164088346Y-80872257D02*
X164016918Y-80943685D01*
X164016918Y-80943685D02*
X163945489Y-81086542D01*
X163945489Y-81086542D02*
X163945489Y-81515114D01*
X163945489Y-81515114D02*
X164016918Y-81657971D01*
X164016918Y-81657971D02*
X164088346Y-81729400D01*
X164088346Y-81729400D02*
X164231203Y-81800828D01*
X164231203Y-81800828D02*
X164445489Y-81800828D01*
X163374060Y-81729400D02*
X163231203Y-81800828D01*
X163231203Y-81800828D02*
X162945489Y-81800828D01*
X162945489Y-81800828D02*
X162802632Y-81729400D01*
X162802632Y-81729400D02*
X162731203Y-81586542D01*
X162731203Y-81586542D02*
X162731203Y-81515114D01*
X162731203Y-81515114D02*
X162802632Y-81372257D01*
X162802632Y-81372257D02*
X162945489Y-81300828D01*
X162945489Y-81300828D02*
X163159775Y-81300828D01*
X163159775Y-81300828D02*
X163302632Y-81229400D01*
X163302632Y-81229400D02*
X163374060Y-81086542D01*
X163374060Y-81086542D02*
X163374060Y-81015114D01*
X163374060Y-81015114D02*
X163302632Y-80872257D01*
X163302632Y-80872257D02*
X163159775Y-80800828D01*
X163159775Y-80800828D02*
X162945489Y-80800828D01*
X162945489Y-80800828D02*
X162802632Y-80872257D01*
X161516917Y-81729400D02*
X161659774Y-81800828D01*
X161659774Y-81800828D02*
X161945489Y-81800828D01*
X161945489Y-81800828D02*
X162088346Y-81729400D01*
X162088346Y-81729400D02*
X162159774Y-81586542D01*
X162159774Y-81586542D02*
X162159774Y-81015114D01*
X162159774Y-81015114D02*
X162088346Y-80872257D01*
X162088346Y-80872257D02*
X161945489Y-80800828D01*
X161945489Y-80800828D02*
X161659774Y-80800828D01*
X161659774Y-80800828D02*
X161516917Y-80872257D01*
X161516917Y-80872257D02*
X161445489Y-81015114D01*
X161445489Y-81015114D02*
X161445489Y-81157971D01*
X161445489Y-81157971D02*
X162159774Y-81300828D01*
X160802632Y-80800828D02*
X160802632Y-82300828D01*
X160802632Y-80872257D02*
X160659775Y-80800828D01*
X160659775Y-80800828D02*
X160374060Y-80800828D01*
X160374060Y-80800828D02*
X160231203Y-80872257D01*
X160231203Y-80872257D02*
X160159775Y-80943685D01*
X160159775Y-80943685D02*
X160088346Y-81086542D01*
X160088346Y-81086542D02*
X160088346Y-81515114D01*
X160088346Y-81515114D02*
X160159775Y-81657971D01*
X160159775Y-81657971D02*
X160231203Y-81729400D01*
X160231203Y-81729400D02*
X160374060Y-81800828D01*
X160374060Y-81800828D02*
X160659775Y-81800828D01*
X160659775Y-81800828D02*
X160802632Y-81729400D01*
X159445489Y-81800828D02*
X159445489Y-80300828D01*
X158802632Y-81800828D02*
X158802632Y-81015114D01*
X158802632Y-81015114D02*
X158874060Y-80872257D01*
X158874060Y-80872257D02*
X159016917Y-80800828D01*
X159016917Y-80800828D02*
X159231203Y-80800828D01*
X159231203Y-80800828D02*
X159374060Y-80872257D01*
X159374060Y-80872257D02*
X159445489Y-80943685D01*
D12*
X355849122Y-67214895D02*
X355353884Y-67214895D01*
X355353884Y-67214895D02*
X355620550Y-67519657D01*
X355620550Y-67519657D02*
X355506265Y-67519657D01*
X355506265Y-67519657D02*
X355430074Y-67557752D01*
X355430074Y-67557752D02*
X355391979Y-67595847D01*
X355391979Y-67595847D02*
X355353884Y-67672038D01*
X355353884Y-67672038D02*
X355353884Y-67862514D01*
X355353884Y-67862514D02*
X355391979Y-67938704D01*
X355391979Y-67938704D02*
X355430074Y-67976800D01*
X355430074Y-67976800D02*
X355506265Y-68014895D01*
X355506265Y-68014895D02*
X355734836Y-68014895D01*
X355734836Y-68014895D02*
X355811027Y-67976800D01*
X355811027Y-67976800D02*
X355849122Y-67938704D01*
X355125312Y-67214895D02*
X354858645Y-68014895D01*
X354858645Y-68014895D02*
X354591979Y-67214895D01*
D13*
G36*
X370412679Y-96472562D02*
G01*
X370616560Y-96564703D01*
X370855247Y-96654645D01*
X371126906Y-96720957D01*
X371277374Y-96741399D01*
X371449673Y-96748618D01*
X371669462Y-96737732D01*
X371869920Y-96706221D01*
X372053258Y-96655378D01*
X372227105Y-96580999D01*
X372383910Y-96483839D01*
X372525501Y-96363019D01*
X372644590Y-96224755D01*
X372747144Y-96060737D01*
X372832881Y-95867512D01*
X372892583Y-95664193D01*
X372930276Y-95432734D01*
X372943523Y-95169038D01*
X372930953Y-94918994D01*
X372894852Y-94695029D01*
X372837094Y-94494012D01*
X372753930Y-94302871D01*
X372651428Y-94136271D01*
X372529531Y-93991543D01*
X372391848Y-93870138D01*
X372235800Y-93769050D01*
X372059303Y-93687827D01*
X371872808Y-93630670D01*
X371669655Y-93595389D01*
X371447475Y-93583230D01*
X371202607Y-93598025D01*
X370956730Y-93642765D01*
X370708430Y-93720810D01*
X370412679Y-93851775D01*
X370412679Y-94333545D01*
X370443453Y-94333545D01*
X370617135Y-94203040D01*
X370783450Y-94102964D01*
X370943541Y-94030012D01*
X371111091Y-93977578D01*
X371287477Y-93945748D01*
X371474219Y-93934940D01*
X371698051Y-93954310D01*
X371891325Y-94009678D01*
X372065333Y-94104112D01*
X372222335Y-94241953D01*
X372307533Y-94350080D01*
X372381135Y-94478412D01*
X372442703Y-94629750D01*
X372500671Y-94874725D01*
X372521471Y-95171053D01*
X372510885Y-95384256D01*
X372481086Y-95567097D01*
X372434460Y-95723714D01*
X372331696Y-95938445D01*
X372209879Y-96100153D01*
X372054040Y-96232195D01*
X371874839Y-96324368D01*
X371678828Y-96378601D01*
X371470189Y-96396908D01*
X371276720Y-96385575D01*
X371094200Y-96352210D01*
X370921009Y-96297257D01*
X370755891Y-96220868D01*
X370596305Y-96121753D01*
X370441438Y-95998304D01*
X370412679Y-95998304D01*
X370412679Y-96472562D01*
G37*
G36*
X369211517Y-94366883D02*
G01*
X369415423Y-94428583D01*
X369591852Y-94528456D01*
X369745346Y-94668401D01*
X369865955Y-94836778D01*
X369954864Y-95035391D01*
X370011128Y-95270038D01*
X370031110Y-95548042D01*
X370011111Y-95826077D01*
X369954825Y-96060515D01*
X369865918Y-96258737D01*
X369745346Y-96426584D01*
X369591922Y-96566003D01*
X369415518Y-96665546D01*
X369211587Y-96727064D01*
X368973600Y-96748618D01*
X368737891Y-96727149D01*
X368535151Y-96665765D01*
X368359040Y-96566238D01*
X368205151Y-96426584D01*
X368084075Y-96258667D01*
X367994834Y-96060420D01*
X367938353Y-95826007D01*
X367918288Y-95548042D01*
X368315793Y-95548042D01*
X368328858Y-95765593D01*
X368364712Y-95940627D01*
X368419499Y-96080652D01*
X368491098Y-96191927D01*
X368586235Y-96286195D01*
X368696154Y-96353038D01*
X368823793Y-96394207D01*
X368973600Y-96408632D01*
X369125548Y-96394009D01*
X369254327Y-96352370D01*
X369364587Y-96284910D01*
X369459399Y-96189912D01*
X369530715Y-96077700D01*
X369585157Y-95937493D01*
X369620689Y-95763323D01*
X369633605Y-95548042D01*
X369620504Y-95324367D01*
X369584786Y-95146823D01*
X369530651Y-95007017D01*
X369460498Y-94897929D01*
X369366513Y-94805982D01*
X369256431Y-94740324D01*
X369127044Y-94699602D01*
X368973600Y-94685254D01*
X368822438Y-94699513D01*
X368694232Y-94740098D01*
X368584437Y-94805741D01*
X368489999Y-94897929D01*
X368419362Y-95007093D01*
X368364890Y-95146932D01*
X368328967Y-95324451D01*
X368315793Y-95548042D01*
X367918288Y-95548042D01*
X367938336Y-95270108D01*
X367994795Y-95035486D01*
X368084038Y-94836847D01*
X368205151Y-94668401D01*
X368359109Y-94528221D01*
X368535245Y-94428363D01*
X368737960Y-94366797D01*
X368973600Y-94345268D01*
X369211517Y-94366883D01*
G37*
G36*
X363981887Y-96690000D02*
G01*
X364367119Y-96690000D01*
X364367119Y-95389590D01*
X364380491Y-95105474D01*
X364402642Y-94976529D01*
X364436728Y-94886571D01*
X364494281Y-94809327D01*
X364572100Y-94753764D01*
X364671030Y-94721570D01*
X364826173Y-94708702D01*
X364985884Y-94728347D01*
X365150039Y-94789485D01*
X365309321Y-94879665D01*
X365473722Y-94995015D01*
X365463647Y-95104375D01*
X365459434Y-95228023D01*
X365459434Y-96690000D01*
X365844666Y-96690000D01*
X365844666Y-95389590D01*
X365858038Y-95102360D01*
X365880169Y-94974249D01*
X365914275Y-94884556D01*
X365971864Y-94807507D01*
X366049647Y-94752665D01*
X366148492Y-94721272D01*
X366303720Y-94708702D01*
X366459510Y-94727571D01*
X366620442Y-94786371D01*
X366776668Y-94873351D01*
X366936981Y-94984757D01*
X366936981Y-96690000D01*
X367322213Y-96690000D01*
X367322213Y-94403886D01*
X366936981Y-94403886D01*
X366936981Y-94657594D01*
X366753208Y-94524230D01*
X366577394Y-94427883D01*
X366392792Y-94366061D01*
X366195093Y-94345268D01*
X366041953Y-94356888D01*
X365911090Y-94389828D01*
X365798687Y-94442355D01*
X365698919Y-94515550D01*
X365618485Y-94604487D01*
X365555788Y-94710900D01*
X365322177Y-94537286D01*
X365129523Y-94431181D01*
X364931139Y-94366948D01*
X364717546Y-94345268D01*
X364530707Y-94361429D01*
X364380228Y-94406275D01*
X364258791Y-94476706D01*
X364161222Y-94572964D01*
X364086812Y-94690017D01*
X364030833Y-94831681D01*
X363994821Y-95002784D01*
X363981887Y-95209155D01*
X363981887Y-96690000D01*
G37*
G36*
X362007916Y-93876322D02*
G01*
X362028432Y-93876322D01*
X362194395Y-93837670D01*
X362374647Y-93817704D01*
X362536559Y-93832170D01*
X362652611Y-93870401D01*
X362734416Y-93927796D01*
X362791126Y-94009380D01*
X362830537Y-94136066D01*
X362845974Y-94325668D01*
X362845974Y-94403886D01*
X362151348Y-94403886D01*
X362151348Y-94732149D01*
X362833701Y-94732149D01*
X362833701Y-96690000D01*
X363218933Y-96690000D01*
X363218933Y-94732149D01*
X363479235Y-94732149D01*
X363479235Y-94403886D01*
X363218933Y-94403886D01*
X363218933Y-94327500D01*
X363204395Y-94121437D01*
X363163934Y-93951829D01*
X363100808Y-93812233D01*
X363016150Y-93697536D01*
X362908049Y-93604484D01*
X362777641Y-93536319D01*
X362620340Y-93493141D01*
X362429968Y-93477718D01*
X362197509Y-93490174D01*
X362007916Y-93519300D01*
X362007916Y-93876322D01*
G37*
G36*
X361107540Y-94366883D02*
G01*
X361311446Y-94428583D01*
X361487875Y-94528456D01*
X361641369Y-94668401D01*
X361761978Y-94836778D01*
X361850886Y-95035391D01*
X361907150Y-95270038D01*
X361927133Y-95548042D01*
X361907133Y-95826077D01*
X361850847Y-96060515D01*
X361761940Y-96258737D01*
X361641369Y-96426584D01*
X361487944Y-96566003D01*
X361311540Y-96665546D01*
X361107609Y-96727064D01*
X360869622Y-96748618D01*
X360633913Y-96727149D01*
X360431174Y-96665765D01*
X360255062Y-96566238D01*
X360101173Y-96426584D01*
X359980098Y-96258667D01*
X359890856Y-96060420D01*
X359834375Y-95826007D01*
X359814310Y-95548042D01*
X360211815Y-95548042D01*
X360224880Y-95765593D01*
X360260734Y-95940627D01*
X360315521Y-96080652D01*
X360387120Y-96191927D01*
X360482257Y-96286195D01*
X360592176Y-96353038D01*
X360719816Y-96394207D01*
X360869622Y-96408632D01*
X361021571Y-96394009D01*
X361150349Y-96352370D01*
X361260610Y-96284910D01*
X361355421Y-96189912D01*
X361426737Y-96077700D01*
X361481179Y-95937493D01*
X361516712Y-95763323D01*
X361529627Y-95548042D01*
X361516526Y-95324367D01*
X361480808Y-95146823D01*
X361426673Y-95007017D01*
X361356520Y-94897929D01*
X361262535Y-94805982D01*
X361152453Y-94740324D01*
X361023066Y-94699602D01*
X360869622Y-94685254D01*
X360718460Y-94699513D01*
X360590254Y-94740098D01*
X360480459Y-94805741D01*
X360386021Y-94897929D01*
X360315384Y-95007093D01*
X360260913Y-95146932D01*
X360224989Y-95324451D01*
X360211815Y-95548042D01*
X359814310Y-95548042D01*
X359834359Y-95270108D01*
X359890817Y-95035486D01*
X359980060Y-94836847D01*
X360101173Y-94668401D01*
X360255131Y-94528221D01*
X360431268Y-94428363D01*
X360633982Y-94366797D01*
X360869622Y-94345268D01*
X361107540Y-94366883D01*
G37*
G36*
X357789964Y-94825938D02*
G01*
X357810481Y-94825938D01*
X357977543Y-94799193D01*
X358169151Y-94790767D01*
X358343694Y-94810271D01*
X358513350Y-94869352D01*
X358674806Y-94958474D01*
X358833003Y-95072318D01*
X358833003Y-96690000D01*
X359218235Y-96690000D01*
X359218235Y-94403886D01*
X358833003Y-94403886D01*
X358833003Y-94741674D01*
X358605587Y-94576922D01*
X358428354Y-94480640D01*
X358250247Y-94422848D01*
X358070782Y-94403886D01*
X357925153Y-94409016D01*
X357789964Y-94428616D01*
X357789964Y-94825938D01*
G37*
G36*
X356238961Y-96671498D02*
G01*
X356475632Y-96718393D01*
X356704244Y-96736894D01*
X356879327Y-96723507D01*
X357022844Y-96686231D01*
X357140623Y-96627853D01*
X357237120Y-96548949D01*
X357311201Y-96450629D01*
X357368044Y-96322493D01*
X357405567Y-96157308D01*
X357419387Y-95946097D01*
X357419387Y-94732149D01*
X357679505Y-94732149D01*
X357679505Y-94403886D01*
X357419387Y-94403886D01*
X357419387Y-93747362D01*
X357033971Y-93747362D01*
X357033971Y-94403886D01*
X356238961Y-94403886D01*
X356238961Y-94732149D01*
X357033971Y-94732149D01*
X357033971Y-95770608D01*
X357025911Y-96051243D01*
X357007382Y-96148924D01*
X356968392Y-96239738D01*
X356914390Y-96310939D01*
X356844561Y-96359173D01*
X356754582Y-96385867D01*
X356603677Y-96396908D01*
X356508715Y-96390499D01*
X356406939Y-96370530D01*
X356259477Y-96326566D01*
X356238961Y-96326566D01*
X356238961Y-96671498D01*
G37*
G36*
X355995878Y-95362845D02*
G01*
X355995878Y-95834173D01*
X354534634Y-95834173D01*
X354534634Y-96690000D01*
X354141159Y-96690000D01*
X354141159Y-95834173D01*
X353688150Y-95834173D01*
X353688150Y-95494187D01*
X354141159Y-95494187D01*
X354534634Y-95494187D01*
X355717075Y-95494187D01*
X354534634Y-94129480D01*
X354534634Y-95494187D01*
X354141159Y-95494187D01*
X354141159Y-93641849D01*
X354518148Y-93641849D01*
X355995878Y-95362845D01*
G37*
G36*
X352363513Y-93600420D02*
G01*
X352546328Y-93649005D01*
X352701773Y-93726387D01*
X352834318Y-93832600D01*
X352946628Y-93970294D01*
X353048361Y-94164533D01*
X353128797Y-94419108D01*
X353182744Y-94748152D01*
X353202717Y-95167939D01*
X353183034Y-95584450D01*
X353129806Y-95911866D01*
X353050343Y-96166008D01*
X352949743Y-96360638D01*
X352838625Y-96498330D01*
X352706534Y-96604713D01*
X352550670Y-96682390D01*
X352366358Y-96731281D01*
X352147405Y-96748618D01*
X351931884Y-96731605D01*
X351749393Y-96683510D01*
X351594090Y-96606919D01*
X351461549Y-96501851D01*
X351349097Y-96365767D01*
X351266045Y-96216380D01*
X351195946Y-96029197D01*
X351141144Y-95797007D01*
X351105033Y-95511605D01*
X351091909Y-95163909D01*
X351507916Y-95163909D01*
X351514886Y-95466436D01*
X351533561Y-95700816D01*
X351572096Y-95914788D01*
X351630831Y-96088796D01*
X351685502Y-96189735D01*
X351751033Y-96268890D01*
X351827752Y-96329314D01*
X351915729Y-96371961D01*
X352020961Y-96398993D01*
X352147222Y-96408632D01*
X352281710Y-96398246D01*
X352389652Y-96369590D01*
X352476217Y-96325101D01*
X352584395Y-96224925D01*
X352667825Y-96082751D01*
X352727893Y-95906137D01*
X352764179Y-95699717D01*
X352780514Y-95472722D01*
X352786710Y-95167939D01*
X352780005Y-94884405D01*
X352761065Y-94636345D01*
X352721976Y-94406805D01*
X352665810Y-94243053D01*
X352576742Y-94099839D01*
X352465959Y-94002718D01*
X352378548Y-93960006D01*
X352273594Y-93932897D01*
X352147222Y-93923217D01*
X352019601Y-93932969D01*
X351914824Y-93960138D01*
X351828668Y-94002718D01*
X351719672Y-94099093D01*
X351632846Y-94239023D01*
X351572975Y-94408379D01*
X351533561Y-94626086D01*
X351514831Y-94864250D01*
X351507916Y-95163909D01*
X351091909Y-95163909D01*
X351111441Y-94753529D01*
X351164454Y-94428349D01*
X351243953Y-94173580D01*
X351345067Y-93976339D01*
X351456388Y-93836562D01*
X351588618Y-93728759D01*
X351744501Y-93650163D01*
X351928694Y-93600745D01*
X352147405Y-93583230D01*
X352363513Y-93600420D01*
G37*
D12*
X175633706Y-130607419D02*
X175014658Y-130607419D01*
X175014658Y-130607419D02*
X175395611Y-130988371D01*
X175395611Y-130988371D02*
X175252753Y-130988371D01*
X175252753Y-130988371D02*
X175163468Y-131035990D01*
X175163468Y-131035990D02*
X175121801Y-131083609D01*
X175121801Y-131083609D02*
X175086087Y-131178847D01*
X175086087Y-131178847D02*
X175115849Y-131416942D01*
X175115849Y-131416942D02*
X175175372Y-131512180D01*
X175175372Y-131512180D02*
X175228944Y-131559800D01*
X175228944Y-131559800D02*
X175330134Y-131607419D01*
X175330134Y-131607419D02*
X175615849Y-131607419D01*
X175615849Y-131607419D02*
X175705134Y-131559800D01*
X175705134Y-131559800D02*
X175746801Y-131512180D01*
X174199182Y-130940752D02*
X174282515Y-131607419D01*
X174627753Y-130940752D02*
X174693230Y-131464561D01*
X174693230Y-131464561D02*
X174657515Y-131559800D01*
X174657515Y-131559800D02*
X174568230Y-131607419D01*
X174568230Y-131607419D02*
X174425372Y-131607419D01*
X174425372Y-131607419D02*
X174324182Y-131559800D01*
X174324182Y-131559800D02*
X174270610Y-131512180D01*
X195574790Y-115283126D02*
X194955742Y-115283126D01*
X194955742Y-115283126D02*
X195336695Y-115664078D01*
X195336695Y-115664078D02*
X195193837Y-115664078D01*
X195193837Y-115664078D02*
X195104552Y-115711697D01*
X195104552Y-115711697D02*
X195062885Y-115759316D01*
X195062885Y-115759316D02*
X195027171Y-115854554D01*
X195027171Y-115854554D02*
X195056933Y-116092649D01*
X195056933Y-116092649D02*
X195116456Y-116187887D01*
X195116456Y-116187887D02*
X195170028Y-116235507D01*
X195170028Y-116235507D02*
X195271218Y-116283126D01*
X195271218Y-116283126D02*
X195556933Y-116283126D01*
X195556933Y-116283126D02*
X195646218Y-116235507D01*
X195646218Y-116235507D02*
X195687885Y-116187887D01*
X155774679Y-115283101D02*
X155155631Y-115283101D01*
X155155631Y-115283101D02*
X155536584Y-115664053D01*
X155536584Y-115664053D02*
X155393726Y-115664053D01*
X155393726Y-115664053D02*
X155304441Y-115711672D01*
X155304441Y-115711672D02*
X155262774Y-115759291D01*
X155262774Y-115759291D02*
X155227060Y-115854529D01*
X155227060Y-115854529D02*
X155256822Y-116092624D01*
X155256822Y-116092624D02*
X155316345Y-116187862D01*
X155316345Y-116187862D02*
X155369917Y-116235482D01*
X155369917Y-116235482D02*
X155471107Y-116283101D01*
X155471107Y-116283101D02*
X155756822Y-116283101D01*
X155756822Y-116283101D02*
X155846107Y-116235482D01*
X155846107Y-116235482D02*
X155887774Y-116187862D01*
X154006822Y-115235482D02*
X155024679Y-116521196D01*
X153774679Y-115283101D02*
X153108012Y-115283101D01*
X153108012Y-115283101D02*
X153661584Y-116283101D01*
X321586384Y-113007419D02*
X322157813Y-113007419D01*
X321872098Y-113007419D02*
X321747098Y-112007419D01*
X321747098Y-112007419D02*
X321860194Y-112150276D01*
X321860194Y-112150276D02*
X321967337Y-112245514D01*
X321967337Y-112245514D02*
X322068527Y-112293133D01*
X321145908Y-112912180D02*
X321104241Y-112959800D01*
X321104241Y-112959800D02*
X321157813Y-113007419D01*
X321157813Y-113007419D02*
X321199479Y-112959800D01*
X321199479Y-112959800D02*
X321145908Y-112912180D01*
X321145908Y-112912180D02*
X321157813Y-113007419D01*
X320616146Y-112102657D02*
X320562575Y-112055038D01*
X320562575Y-112055038D02*
X320461385Y-112007419D01*
X320461385Y-112007419D02*
X320223289Y-112007419D01*
X320223289Y-112007419D02*
X320134004Y-112055038D01*
X320134004Y-112055038D02*
X320092337Y-112102657D01*
X320092337Y-112102657D02*
X320056623Y-112197895D01*
X320056623Y-112197895D02*
X320068527Y-112293133D01*
X320068527Y-112293133D02*
X320134004Y-112435990D01*
X320134004Y-112435990D02*
X320776861Y-113007419D01*
X320776861Y-113007419D02*
X320157813Y-113007419D01*
X319128051Y-112007419D02*
X319604242Y-112007419D01*
X319604242Y-112007419D02*
X319711385Y-112483609D01*
X319711385Y-112483609D02*
X319657813Y-112435990D01*
X319657813Y-112435990D02*
X319556623Y-112388371D01*
X319556623Y-112388371D02*
X319318527Y-112388371D01*
X319318527Y-112388371D02*
X319229242Y-112435990D01*
X319229242Y-112435990D02*
X319187575Y-112483609D01*
X319187575Y-112483609D02*
X319151861Y-112578847D01*
X319151861Y-112578847D02*
X319181623Y-112816942D01*
X319181623Y-112816942D02*
X319241146Y-112912180D01*
X319241146Y-112912180D02*
X319294718Y-112959800D01*
X319294718Y-112959800D02*
X319395908Y-113007419D01*
X319395908Y-113007419D02*
X319634004Y-113007419D01*
X319634004Y-113007419D02*
X319723289Y-112959800D01*
X319723289Y-112959800D02*
X319764956Y-112912180D01*
X318264956Y-112340752D02*
X318348289Y-113007419D01*
X318693527Y-112340752D02*
X318759004Y-112864561D01*
X318759004Y-112864561D02*
X318723289Y-112959800D01*
X318723289Y-112959800D02*
X318634004Y-113007419D01*
X318634004Y-113007419D02*
X318491146Y-113007419D01*
X318491146Y-113007419D02*
X318389956Y-112959800D01*
X318389956Y-112959800D02*
X318336384Y-112912180D01*
X161845029Y-115372404D02*
X161791458Y-115324785D01*
X161791458Y-115324785D02*
X161690268Y-115277166D01*
X161690268Y-115277166D02*
X161452172Y-115277166D01*
X161452172Y-115277166D02*
X161362887Y-115324785D01*
X161362887Y-115324785D02*
X161321220Y-115372404D01*
X161321220Y-115372404D02*
X161285506Y-115467642D01*
X161285506Y-115467642D02*
X161297410Y-115562880D01*
X161297410Y-115562880D02*
X161362887Y-115705737D01*
X161362887Y-115705737D02*
X162005744Y-116277166D01*
X162005744Y-116277166D02*
X161386696Y-116277166D01*
X188433129Y-115372310D02*
X188379558Y-115324691D01*
X188379558Y-115324691D02*
X188278368Y-115277072D01*
X188278368Y-115277072D02*
X188040272Y-115277072D01*
X188040272Y-115277072D02*
X187950987Y-115324691D01*
X187950987Y-115324691D02*
X187909320Y-115372310D01*
X187909320Y-115372310D02*
X187873606Y-115467548D01*
X187873606Y-115467548D02*
X187885510Y-115562786D01*
X187885510Y-115562786D02*
X187950987Y-115705643D01*
X187950987Y-115705643D02*
X188593844Y-116277072D01*
X188593844Y-116277072D02*
X187974796Y-116277072D01*
X251833706Y-130607419D02*
X251214658Y-130607419D01*
X251214658Y-130607419D02*
X251595611Y-130988371D01*
X251595611Y-130988371D02*
X251452753Y-130988371D01*
X251452753Y-130988371D02*
X251363468Y-131035990D01*
X251363468Y-131035990D02*
X251321801Y-131083609D01*
X251321801Y-131083609D02*
X251286087Y-131178847D01*
X251286087Y-131178847D02*
X251315849Y-131416942D01*
X251315849Y-131416942D02*
X251375372Y-131512180D01*
X251375372Y-131512180D02*
X251428944Y-131559800D01*
X251428944Y-131559800D02*
X251530134Y-131607419D01*
X251530134Y-131607419D02*
X251815849Y-131607419D01*
X251815849Y-131607419D02*
X251905134Y-131559800D01*
X251905134Y-131559800D02*
X251946801Y-131512180D01*
X250399182Y-130940752D02*
X250482515Y-131607419D01*
X250827753Y-130940752D02*
X250893230Y-131464561D01*
X250893230Y-131464561D02*
X250857515Y-131559800D01*
X250857515Y-131559800D02*
X250768230Y-131607419D01*
X250768230Y-131607419D02*
X250625372Y-131607419D01*
X250625372Y-131607419D02*
X250524182Y-131559800D01*
X250524182Y-131559800D02*
X250470610Y-131512180D01*
X230974744Y-115283166D02*
X230355696Y-115283166D01*
X230355696Y-115283166D02*
X230736649Y-115664118D01*
X230736649Y-115664118D02*
X230593791Y-115664118D01*
X230593791Y-115664118D02*
X230504506Y-115711737D01*
X230504506Y-115711737D02*
X230462839Y-115759356D01*
X230462839Y-115759356D02*
X230427125Y-115854594D01*
X230427125Y-115854594D02*
X230456887Y-116092689D01*
X230456887Y-116092689D02*
X230516410Y-116187927D01*
X230516410Y-116187927D02*
X230569982Y-116235547D01*
X230569982Y-116235547D02*
X230671172Y-116283166D01*
X230671172Y-116283166D02*
X230956887Y-116283166D01*
X230956887Y-116283166D02*
X231046172Y-116235547D01*
X231046172Y-116235547D02*
X231087839Y-116187927D01*
X272775075Y-115282840D02*
X272156027Y-115282840D01*
X272156027Y-115282840D02*
X272536980Y-115663792D01*
X272536980Y-115663792D02*
X272394122Y-115663792D01*
X272394122Y-115663792D02*
X272304837Y-115711411D01*
X272304837Y-115711411D02*
X272263170Y-115759030D01*
X272263170Y-115759030D02*
X272227456Y-115854268D01*
X272227456Y-115854268D02*
X272257218Y-116092363D01*
X272257218Y-116092363D02*
X272316741Y-116187601D01*
X272316741Y-116187601D02*
X272370313Y-116235221D01*
X272370313Y-116235221D02*
X272471503Y-116282840D01*
X272471503Y-116282840D02*
X272757218Y-116282840D01*
X272757218Y-116282840D02*
X272846503Y-116235221D01*
X272846503Y-116235221D02*
X272888170Y-116187601D01*
X271007218Y-115235221D02*
X272025075Y-116520935D01*
X270775075Y-115282840D02*
X270108408Y-115282840D01*
X270108408Y-115282840D02*
X270661980Y-116282840D01*
X213733706Y-130607419D02*
X213067039Y-130607419D01*
X213067039Y-130607419D02*
X213620611Y-131607419D01*
X212299182Y-130940752D02*
X212382515Y-131607419D01*
X212727753Y-130940752D02*
X212793230Y-131464561D01*
X212793230Y-131464561D02*
X212757515Y-131559800D01*
X212757515Y-131559800D02*
X212668230Y-131607419D01*
X212668230Y-131607419D02*
X212525372Y-131607419D01*
X212525372Y-131607419D02*
X212424182Y-131559800D01*
X212424182Y-131559800D02*
X212370610Y-131512180D01*
X92986384Y-94258669D02*
X93557813Y-94258669D01*
X93272098Y-94258669D02*
X93147098Y-93258669D01*
X93147098Y-93258669D02*
X93260194Y-93401526D01*
X93260194Y-93401526D02*
X93367337Y-93496764D01*
X93367337Y-93496764D02*
X93468527Y-93544383D01*
X92545908Y-94163430D02*
X92504241Y-94211050D01*
X92504241Y-94211050D02*
X92557813Y-94258669D01*
X92557813Y-94258669D02*
X92599479Y-94211050D01*
X92599479Y-94211050D02*
X92545908Y-94163430D01*
X92545908Y-94163430D02*
X92557813Y-94258669D01*
X92051861Y-93258669D02*
X91385194Y-93258669D01*
X91385194Y-93258669D02*
X91938766Y-94258669D01*
X90528051Y-93258669D02*
X91004242Y-93258669D01*
X91004242Y-93258669D02*
X91111385Y-93734859D01*
X91111385Y-93734859D02*
X91057813Y-93687240D01*
X91057813Y-93687240D02*
X90956623Y-93639621D01*
X90956623Y-93639621D02*
X90718527Y-93639621D01*
X90718527Y-93639621D02*
X90629242Y-93687240D01*
X90629242Y-93687240D02*
X90587575Y-93734859D01*
X90587575Y-93734859D02*
X90551861Y-93830097D01*
X90551861Y-93830097D02*
X90581623Y-94068192D01*
X90581623Y-94068192D02*
X90641146Y-94163430D01*
X90641146Y-94163430D02*
X90694718Y-94211050D01*
X90694718Y-94211050D02*
X90795908Y-94258669D01*
X90795908Y-94258669D02*
X91034004Y-94258669D01*
X91034004Y-94258669D02*
X91123289Y-94211050D01*
X91123289Y-94211050D02*
X91164956Y-94163430D01*
X89664956Y-93592002D02*
X89748289Y-94258669D01*
X90093527Y-93592002D02*
X90159004Y-94115811D01*
X90159004Y-94115811D02*
X90123289Y-94211050D01*
X90123289Y-94211050D02*
X90034004Y-94258669D01*
X90034004Y-94258669D02*
X89891146Y-94258669D01*
X89891146Y-94258669D02*
X89789956Y-94211050D01*
X89789956Y-94211050D02*
X89736384Y-94163430D01*
X264633034Y-115372404D02*
X264579463Y-115324785D01*
X264579463Y-115324785D02*
X264478273Y-115277166D01*
X264478273Y-115277166D02*
X264240177Y-115277166D01*
X264240177Y-115277166D02*
X264150892Y-115324785D01*
X264150892Y-115324785D02*
X264109225Y-115372404D01*
X264109225Y-115372404D02*
X264073511Y-115467642D01*
X264073511Y-115467642D02*
X264085415Y-115562880D01*
X264085415Y-115562880D02*
X264150892Y-115705737D01*
X264150892Y-115705737D02*
X264793749Y-116277166D01*
X264793749Y-116277166D02*
X264174701Y-116277166D01*
X238044989Y-115372364D02*
X237991418Y-115324745D01*
X237991418Y-115324745D02*
X237890228Y-115277126D01*
X237890228Y-115277126D02*
X237652132Y-115277126D01*
X237652132Y-115277126D02*
X237562847Y-115324745D01*
X237562847Y-115324745D02*
X237521180Y-115372364D01*
X237521180Y-115372364D02*
X237485466Y-115467602D01*
X237485466Y-115467602D02*
X237497370Y-115562840D01*
X237497370Y-115562840D02*
X237562847Y-115705697D01*
X237562847Y-115705697D02*
X238205704Y-116277126D01*
X238205704Y-116277126D02*
X237586656Y-116277126D01*
X341827158Y-113007419D02*
X342398587Y-113007419D01*
X342112872Y-113007419D02*
X341987872Y-112007419D01*
X341987872Y-112007419D02*
X342100968Y-112150276D01*
X342100968Y-112150276D02*
X342208111Y-112245514D01*
X342208111Y-112245514D02*
X342309301Y-112293133D01*
X340886682Y-112340752D02*
X340970015Y-113007419D01*
X341315253Y-112340752D02*
X341380730Y-112864561D01*
X341380730Y-112864561D02*
X341345015Y-112959800D01*
X341345015Y-112959800D02*
X341255730Y-113007419D01*
X341255730Y-113007419D02*
X341112872Y-113007419D01*
X341112872Y-113007419D02*
X341011682Y-112959800D01*
X341011682Y-112959800D02*
X340958110Y-112912180D01*
%TO.C,SW46*%
X153551115Y-119021250D02*
G75*
G02*
X155851250Y-116721115I2300135J0D01*
G01*
X194351250Y-116721164D02*
G75*
G02*
X196651336Y-119021250I0J-2300086D01*
G01*
%TO.C,SW\u002A\u002A*%
X160651245Y-119021250D02*
G75*
G02*
X162963250Y-116709245I2312006J-1D01*
G01*
X187239250Y-116709056D02*
G75*
G02*
X189551444Y-119021250I0J-2312194D01*
G01*
%TO.C,SW49*%
X229751245Y-119021250D02*
G75*
G02*
X232051250Y-116721245I2300005J0D01*
G01*
X270551250Y-116720593D02*
G75*
G02*
X272851907Y-119021250I0J-2300657D01*
G01*
%TO.C,SW\u002A\u002A*%
X236851164Y-119021250D02*
G75*
G02*
X239163250Y-116709164I2312085J1D01*
G01*
X263439250Y-116709245D02*
G75*
G02*
X265751255Y-119021250I0J-2312005D01*
G01*
D14*
%TO.C,D30*%
X148788750Y-114330000D02*
X148788750Y-110320000D01*
X150788750Y-114330000D02*
X148788750Y-114330000D01*
X150788750Y-114330000D02*
X150788750Y-110320000D01*
%TO.C,D25*%
X291656250Y-95210000D02*
X291656250Y-91200000D01*
X293656250Y-95210000D02*
X291656250Y-95210000D01*
X293656250Y-95210000D02*
X293656250Y-91200000D01*
%TO.C,D42*%
X341700000Y-133220000D02*
X341700000Y-129210000D01*
X343700000Y-133220000D02*
X341700000Y-133220000D01*
X343700000Y-133220000D02*
X343700000Y-129210000D01*
%TO.C,D24*%
X272606250Y-95210000D02*
X272606250Y-91200000D01*
X274606250Y-95210000D02*
X272606250Y-95210000D01*
X274606250Y-95210000D02*
X274606250Y-91200000D01*
%TO.C,D5*%
X172618750Y-76170000D02*
X172618750Y-72160000D01*
X174618750Y-76170000D02*
X172618750Y-76170000D01*
X174618750Y-76170000D02*
X174618750Y-72160000D01*
%TO.C,D48*%
X189250000Y-133220000D02*
X189250000Y-129210000D01*
X191250000Y-133220000D02*
X189250000Y-133220000D01*
X191250000Y-133220000D02*
X191250000Y-129210000D01*
%TO.C,D16*%
X120206250Y-95210000D02*
X120206250Y-91200000D01*
X122206250Y-95210000D02*
X120206250Y-95210000D01*
X122206250Y-95210000D02*
X122206250Y-91200000D01*
%TO.C,D51*%
X113056250Y-133220000D02*
X113056250Y-129210000D01*
X115056250Y-133220000D02*
X113056250Y-133220000D01*
X115056250Y-133220000D02*
X115056250Y-129210000D01*
%TO.C,D18*%
X158306250Y-95210000D02*
X158306250Y-91200000D01*
X160306250Y-95210000D02*
X158306250Y-95210000D01*
X160306250Y-95210000D02*
X160306250Y-91200000D01*
%TO.C,D11*%
X286918750Y-76170000D02*
X286918750Y-72160000D01*
X288918750Y-76170000D02*
X286918750Y-76170000D01*
X288918750Y-76170000D02*
X288918750Y-72160000D01*
%TO.C,D13*%
X325018750Y-76170000D02*
X325018750Y-72160000D01*
X327018750Y-76170000D02*
X325018750Y-76170000D01*
X327018750Y-76170000D02*
X327018750Y-72160000D01*
%TO.C,D37*%
X282138750Y-114330000D02*
X282138750Y-110320000D01*
X284138750Y-114330000D02*
X282138750Y-114330000D01*
X284138750Y-114330000D02*
X284138750Y-110320000D01*
%TO.C,D43*%
X317828750Y-133220000D02*
X317828750Y-129210000D01*
X319828750Y-133220000D02*
X317828750Y-133220000D01*
X319828750Y-133220000D02*
X319828750Y-129210000D01*
%TO.C,D17*%
X139256250Y-95210000D02*
X139256250Y-91200000D01*
X141256250Y-95210000D02*
X139256250Y-95210000D01*
X141256250Y-95210000D02*
X141256250Y-91200000D01*
%TO.C,D23*%
X253556250Y-95210000D02*
X253556250Y-91200000D01*
X255556250Y-95210000D02*
X253556250Y-95210000D01*
X255556250Y-95210000D02*
X255556250Y-91200000D01*
%TO.C,D47*%
X215500000Y-133220000D02*
X215500000Y-129210000D01*
X217500000Y-133220000D02*
X215500000Y-133220000D01*
X217500000Y-133220000D02*
X217500000Y-129210000D01*
%TO.C,D8*%
X229768750Y-76170000D02*
X229768750Y-72160000D01*
X231768750Y-76170000D02*
X229768750Y-76170000D01*
X231768750Y-76170000D02*
X231768750Y-72160000D01*
%TO.C,D4*%
X153568750Y-76170000D02*
X153568750Y-72160000D01*
X155568750Y-76170000D02*
X153568750Y-76170000D01*
X155568750Y-76170000D02*
X155568750Y-72160000D01*
%TO.C,D20*%
X196406250Y-95210000D02*
X196406250Y-91200000D01*
X198406250Y-95210000D02*
X196406250Y-95210000D01*
X198406250Y-95210000D02*
X198406250Y-91200000D01*
%TO.C,D7*%
X210718750Y-76170000D02*
X210718750Y-72160000D01*
X212718750Y-76170000D02*
X210718750Y-76170000D01*
X212718750Y-76170000D02*
X212718750Y-72160000D01*
%TO.C,D35*%
X244038750Y-114330000D02*
X244038750Y-110320000D01*
X246038750Y-114330000D02*
X244038750Y-114330000D01*
X246038750Y-114330000D02*
X246038750Y-110320000D01*
%TO.C,D40*%
X349290000Y-126210000D02*
X353300000Y-126210000D01*
X349290000Y-128210000D02*
X349290000Y-126210000D01*
X349290000Y-128210000D02*
X353300000Y-128210000D01*
%TO.C,D33*%
X205938750Y-114330000D02*
X205938750Y-110320000D01*
X207938750Y-114330000D02*
X205938750Y-114330000D01*
X207938750Y-114330000D02*
X207938750Y-110320000D01*
%TO.C,D45*%
X272646250Y-133220000D02*
X272646250Y-129210000D01*
X274646250Y-133220000D02*
X272646250Y-133220000D01*
X274646250Y-133220000D02*
X274646250Y-129210000D01*
%TO.C,D32*%
X186888750Y-114330000D02*
X186888750Y-110320000D01*
X188888750Y-114330000D02*
X186888750Y-114330000D01*
X188888750Y-114330000D02*
X188888750Y-110320000D01*
%TO.C,D50*%
X136888750Y-133220000D02*
X136888750Y-129210000D01*
X138888750Y-133220000D02*
X136888750Y-133220000D01*
X138888750Y-133220000D02*
X138888750Y-129210000D01*
%TO.C,D36*%
X263088750Y-114330000D02*
X263088750Y-110320000D01*
X265088750Y-114330000D02*
X263088750Y-114330000D01*
X265088750Y-114330000D02*
X265088750Y-110320000D01*
%TO.C,D1*%
X91650000Y-76170000D02*
X91650000Y-72160000D01*
X93650000Y-76170000D02*
X91650000Y-76170000D01*
X93650000Y-76170000D02*
X93650000Y-72160000D01*
%TO.C,D39*%
X332220000Y-114330000D02*
X332220000Y-110320000D01*
X334220000Y-114330000D02*
X332220000Y-114330000D01*
X334220000Y-114330000D02*
X334220000Y-110320000D01*
%TO.C,D41*%
X344050000Y-114330000D02*
X344050000Y-110320000D01*
X346050000Y-114330000D02*
X344050000Y-114330000D01*
X346050000Y-114330000D02*
X346050000Y-110320000D01*
%TO.C,D46*%
X253538750Y-133145000D02*
X253538750Y-129135000D01*
X255538750Y-133145000D02*
X253538750Y-133145000D01*
X255538750Y-133145000D02*
X255538750Y-129135000D01*
%TO.C,D22*%
X234506250Y-95210000D02*
X234506250Y-91200000D01*
X236506250Y-95210000D02*
X234506250Y-95210000D01*
X236506250Y-95210000D02*
X236506250Y-91200000D01*
%TO.C,D28*%
X98766250Y-114330000D02*
X98766250Y-110320000D01*
X100766250Y-114330000D02*
X98766250Y-114330000D01*
X100766250Y-114330000D02*
X100766250Y-110320000D01*
%TO.C,D12*%
X305968750Y-76170000D02*
X305968750Y-72160000D01*
X307968750Y-76170000D02*
X305968750Y-76170000D01*
X307968750Y-76170000D02*
X307968750Y-72160000D01*
%TO.C,D27*%
X336900000Y-95210000D02*
X336900000Y-91200000D01*
X338900000Y-95210000D02*
X336900000Y-95210000D01*
X338900000Y-95210000D02*
X338900000Y-91200000D01*
%TO.C,D15*%
X94000000Y-95210000D02*
X94000000Y-91200000D01*
X96000000Y-95210000D02*
X94000000Y-95210000D01*
X96000000Y-95210000D02*
X96000000Y-91200000D01*
%TO.C,D52*%
X89260000Y-133220000D02*
X89260000Y-129210000D01*
X91260000Y-133220000D02*
X89260000Y-133220000D01*
X91260000Y-133220000D02*
X91260000Y-129210000D01*
%TO.C,D2*%
X115468750Y-76170000D02*
X115468750Y-72160000D01*
X117468750Y-76170000D02*
X115468750Y-76170000D01*
X117468750Y-76170000D02*
X117468750Y-72160000D01*
%TO.C,D38*%
X301188750Y-114330000D02*
X301188750Y-110320000D01*
X303188750Y-114330000D02*
X301188750Y-114330000D01*
X303188750Y-114330000D02*
X303188750Y-110320000D01*
%TO.C,D34*%
X224988750Y-114330000D02*
X224988750Y-110320000D01*
X226988750Y-114330000D02*
X224988750Y-114330000D01*
X226988750Y-114330000D02*
X226988750Y-110320000D01*
%TO.C,D26*%
X310706250Y-95210000D02*
X310706250Y-91200000D01*
X312706250Y-95210000D02*
X310706250Y-95210000D01*
X312706250Y-95210000D02*
X312706250Y-91200000D01*
%TO.C,D6*%
X191668750Y-76170000D02*
X191668750Y-72160000D01*
X193668750Y-76170000D02*
X191668750Y-76170000D01*
X193668750Y-76170000D02*
X193668750Y-72160000D01*
%TO.C,D19*%
X177356250Y-95210000D02*
X177356250Y-91200000D01*
X179356250Y-95210000D02*
X177356250Y-95210000D01*
X179356250Y-95210000D02*
X179356250Y-91200000D01*
%TO.C,D21*%
X215456250Y-95210000D02*
X215456250Y-91200000D01*
X217456250Y-95210000D02*
X215456250Y-95210000D01*
X217456250Y-95210000D02*
X217456250Y-91200000D01*
%TO.C,D9*%
X248658750Y-76170000D02*
X248658750Y-72160000D01*
X250658750Y-76170000D02*
X248658750Y-76170000D01*
X250658750Y-76170000D02*
X250658750Y-72160000D01*
%TO.C,D3*%
X134518750Y-76170000D02*
X134518750Y-72160000D01*
X136518750Y-76170000D02*
X134518750Y-76170000D01*
X136518750Y-76170000D02*
X136518750Y-72160000D01*
%TO.C,D49*%
X158316250Y-133220000D02*
X158316250Y-129210000D01*
X160316250Y-133220000D02*
X158316250Y-133220000D01*
X160316250Y-133220000D02*
X160316250Y-129210000D01*
%TO.C,D10*%
X267706250Y-76170000D02*
X267706250Y-72160000D01*
X269706250Y-76170000D02*
X267706250Y-76170000D01*
X269706250Y-76170000D02*
X269706250Y-72160000D01*
%TO.C,D31*%
X167838750Y-114330000D02*
X167838750Y-110320000D01*
X169838750Y-114330000D02*
X167838750Y-114330000D01*
X169838750Y-114330000D02*
X169838750Y-110320000D01*
%TO.C,D44*%
X294008750Y-133220000D02*
X294008750Y-129210000D01*
X296008750Y-133220000D02*
X294008750Y-133220000D01*
X296008750Y-133220000D02*
X296008750Y-129210000D01*
%TO.C,D29*%
X129738750Y-114330000D02*
X129738750Y-110320000D01*
X131738750Y-114330000D02*
X129738750Y-114330000D01*
X131738750Y-114330000D02*
X131738750Y-110320000D01*
%TO.C,D14*%
X344050000Y-76160000D02*
X344050000Y-72150000D01*
X346050000Y-76160000D02*
X344050000Y-76160000D01*
X346050000Y-76160000D02*
X346050000Y-72150000D01*
D15*
%TO.C,G\u002A\u002A\u002A*%
G36*
X235869710Y-71718592D02*
G01*
X235936760Y-71919450D01*
X235948656Y-71968405D01*
X236019433Y-72379840D01*
X236096886Y-72981910D01*
X236166268Y-73662612D01*
X236283367Y-74985456D01*
X234770663Y-76527985D01*
X234656400Y-76644455D01*
X234071030Y-77234847D01*
X233648879Y-77634665D01*
X233335297Y-77881023D01*
X233075633Y-78011040D01*
X232815238Y-78061831D01*
X232499461Y-78070513D01*
X231945933Y-78125640D01*
X231023366Y-78465467D01*
X230764999Y-78606642D01*
X230414351Y-78793978D01*
X230255390Y-78872518D01*
X230261210Y-78859295D01*
X230400238Y-78661085D01*
X230699598Y-78254288D01*
X231131326Y-77676403D01*
X231667459Y-76964931D01*
X232280034Y-76157372D01*
X232358143Y-76054711D01*
X233034500Y-75165765D01*
X233689887Y-74304387D01*
X234280251Y-73528473D01*
X234761540Y-72895922D01*
X235089703Y-72464631D01*
X235337068Y-72141562D01*
X235617404Y-71799050D01*
X235779105Y-71668260D01*
X235869710Y-71718592D01*
G37*
G36*
X239176268Y-74732693D02*
G01*
X239172528Y-75654121D01*
X239155437Y-76375816D01*
X239117131Y-76902845D01*
X239049757Y-77302524D01*
X238945463Y-77642171D01*
X238796395Y-77989103D01*
X238635705Y-78286465D01*
X238198911Y-78909236D01*
X237715265Y-79435391D01*
X237014045Y-80067577D01*
X237404779Y-80366945D01*
X237607909Y-80514901D01*
X238051648Y-80830064D01*
X238686620Y-81277088D01*
X239472692Y-81827802D01*
X240369732Y-82454036D01*
X241337609Y-83127619D01*
X241875173Y-83503233D01*
X242904524Y-84236964D01*
X243725231Y-84843812D01*
X244321097Y-85311282D01*
X244675927Y-85626882D01*
X244773524Y-85778117D01*
X244746598Y-85823073D01*
X244549682Y-86115709D01*
X244271434Y-86502496D01*
X243875525Y-87037683D01*
X243115006Y-86493857D01*
X242632304Y-86149957D01*
X241384726Y-85272897D01*
X240208507Y-84462421D01*
X239135518Y-83739530D01*
X238197630Y-83125226D01*
X237426715Y-82640508D01*
X236854643Y-82306378D01*
X236513287Y-82143835D01*
X236475552Y-82132071D01*
X235783914Y-82012816D01*
X234928162Y-81991037D01*
X234029200Y-82058104D01*
X233207931Y-82205385D01*
X232585257Y-82424249D01*
X232444027Y-82508071D01*
X231976574Y-82858300D01*
X231423231Y-83344529D01*
X230875641Y-83888279D01*
X230479300Y-84293274D01*
X229919900Y-84772788D01*
X229362191Y-85092206D01*
X228724869Y-85282282D01*
X227926632Y-85373774D01*
X226886175Y-85397436D01*
X225483216Y-85397436D01*
X227553004Y-82670193D01*
X227696121Y-82481838D01*
X228336805Y-81643964D01*
X228928929Y-80877747D01*
X229435668Y-80230310D01*
X229820197Y-79748780D01*
X230045691Y-79480281D01*
X230596263Y-79001861D01*
X231533661Y-78522484D01*
X232615088Y-78277122D01*
X233498880Y-78185906D01*
X236337554Y-75238146D01*
X239176229Y-72290385D01*
X239176268Y-74732693D01*
G37*
G36*
X129464850Y-98725500D02*
G01*
X129383355Y-99459552D01*
X129131901Y-100462760D01*
X128707685Y-101279487D01*
X128080435Y-101980919D01*
X127694351Y-102311401D01*
X127274919Y-102601970D01*
X126824384Y-102812307D01*
X126283843Y-102957629D01*
X125594394Y-103053153D01*
X124697135Y-103114095D01*
X123533163Y-103155672D01*
X120824659Y-103231701D01*
X117836096Y-106223543D01*
X117098243Y-106959374D01*
X116358948Y-107690425D01*
X115723729Y-108311969D01*
X115223904Y-108793589D01*
X114890791Y-109104866D01*
X114755706Y-109215385D01*
X114691428Y-109181198D01*
X114447054Y-108974029D01*
X114107566Y-108641414D01*
X113551251Y-108067443D01*
X119557942Y-102051282D01*
X122171154Y-102051282D01*
X122223358Y-102087379D01*
X122541936Y-102151152D01*
X123070198Y-102185451D01*
X123727730Y-102190645D01*
X124434116Y-102167100D01*
X125108943Y-102115185D01*
X125671795Y-102035269D01*
X126401328Y-101812563D01*
X127254421Y-101286437D01*
X127895995Y-100543511D01*
X128294678Y-99623405D01*
X128419098Y-98565737D01*
X128398451Y-97573718D01*
X128267937Y-98574978D01*
X128251850Y-98691755D01*
X127986497Y-99796645D01*
X127538011Y-100648460D01*
X126886943Y-101274167D01*
X126013845Y-101700737D01*
X125802443Y-101751206D01*
X125253987Y-101821877D01*
X124541559Y-101870420D01*
X123765454Y-101888462D01*
X123384243Y-101891132D01*
X122684217Y-101917860D01*
X122274031Y-101971838D01*
X122171154Y-102051282D01*
X119557942Y-102051282D01*
X120710562Y-100896845D01*
X120863157Y-100744055D01*
X122130710Y-99478520D01*
X123337337Y-98280079D01*
X124461990Y-97169244D01*
X125483615Y-96166526D01*
X126381162Y-95292437D01*
X127133579Y-94567490D01*
X127719816Y-94012195D01*
X128118821Y-93647065D01*
X128309543Y-93492610D01*
X128408912Y-93447132D01*
X128908604Y-93312956D01*
X129469163Y-93258975D01*
X129728919Y-93270133D01*
X130074649Y-93341677D01*
X130455824Y-93509952D01*
X130945999Y-93809755D01*
X131618729Y-94275884D01*
X133048346Y-95292793D01*
X132412955Y-95533168D01*
X131702414Y-95827740D01*
X130886247Y-96239350D01*
X130250375Y-96648488D01*
X129862352Y-97015884D01*
X129741197Y-97232970D01*
X129570617Y-97835737D01*
X129483841Y-98565737D01*
X129464850Y-98725500D01*
G37*
G36*
X184007693Y-78175685D02*
G01*
X183925324Y-79029082D01*
X183628043Y-79775102D01*
X183093475Y-80358701D01*
X183081080Y-80368394D01*
X182887435Y-80497535D01*
X182655917Y-80588128D01*
X182328977Y-80646985D01*
X181849069Y-80680920D01*
X181158645Y-80696747D01*
X180200158Y-80701281D01*
X177739103Y-80703843D01*
X175133975Y-83051487D01*
X174842987Y-83312711D01*
X174089363Y-83979601D01*
X173423973Y-84554797D01*
X172884814Y-85006260D01*
X172509882Y-85301948D01*
X172337175Y-85409822D01*
X172256412Y-85385396D01*
X171986932Y-85180096D01*
X171660598Y-84832239D01*
X171175693Y-84243966D01*
X172910603Y-82690320D01*
X173033753Y-82579937D01*
X173657287Y-82019294D01*
X174461460Y-81294209D01*
X175398074Y-80448240D01*
X176081419Y-79830201D01*
X178227565Y-79830201D01*
X180229517Y-79857408D01*
X180936990Y-79865129D01*
X181561357Y-79860100D01*
X181978017Y-79829639D01*
X182251906Y-79763677D01*
X182447961Y-79652142D01*
X182631119Y-79484965D01*
X182724287Y-79386934D01*
X182915922Y-79096538D01*
X182999791Y-78721139D01*
X183009421Y-78141696D01*
X182988072Y-77198077D01*
X182866535Y-78149251D01*
X182833684Y-78392174D01*
X182734142Y-78886144D01*
X182569660Y-79230278D01*
X182288110Y-79455744D01*
X181837362Y-79593713D01*
X181165287Y-79675354D01*
X180219756Y-79731837D01*
X178227565Y-79830201D01*
X176081419Y-79830201D01*
X176418933Y-79524942D01*
X177475839Y-78567870D01*
X178520594Y-77620581D01*
X179449713Y-76783945D01*
X180525299Y-75834840D01*
X181435870Y-75055230D01*
X182164263Y-74459444D01*
X182693313Y-74061808D01*
X183005856Y-73876649D01*
X183536919Y-73727676D01*
X184091650Y-73726439D01*
X184641409Y-73930359D01*
X185245604Y-74362960D01*
X185963645Y-75047764D01*
X186287933Y-75386951D01*
X186707255Y-75843872D01*
X186994641Y-76180923D01*
X187101282Y-76342555D01*
X187100129Y-76348078D01*
X186927292Y-76407388D01*
X186517932Y-76449421D01*
X185954138Y-76465385D01*
X185397699Y-76475531D01*
X184961703Y-76528143D01*
X184665009Y-76649342D01*
X184407343Y-76865035D01*
X184374632Y-76898322D01*
X184145680Y-77207200D01*
X184035916Y-77591836D01*
X184009336Y-78141696D01*
X184007693Y-78175685D01*
G37*
G36*
X304309224Y-81329698D02*
G01*
X305403722Y-82317056D01*
X306399974Y-83215632D01*
X307274060Y-84003863D01*
X308002066Y-84660183D01*
X308560073Y-85163027D01*
X308924165Y-85490828D01*
X309070425Y-85622022D01*
X309085725Y-85719516D01*
X308959970Y-86015950D01*
X308690397Y-86409976D01*
X308489819Y-86657923D01*
X308233221Y-86955643D01*
X308108870Y-87071795D01*
X308014782Y-86998695D01*
X307707524Y-86734251D01*
X307219332Y-86304560D01*
X306583117Y-85738783D01*
X305831791Y-85066082D01*
X304998264Y-84315618D01*
X301945016Y-81559440D01*
X299723606Y-81506964D01*
X299577385Y-81503480D01*
X298722923Y-81479191D01*
X298119301Y-81446680D01*
X297701096Y-81394142D01*
X297402888Y-81309771D01*
X297159254Y-81181764D01*
X296904773Y-80998314D01*
X296314341Y-80426664D01*
X295914230Y-79696082D01*
X295706339Y-78758397D01*
X295669937Y-78520449D01*
X295581644Y-78279487D01*
X296483796Y-78279487D01*
X296601471Y-79007185D01*
X296960928Y-79734134D01*
X297494908Y-80299307D01*
X297585291Y-80361186D01*
X297876844Y-80500902D01*
X298273006Y-80594406D01*
X298847436Y-80655127D01*
X299673794Y-80696491D01*
X300375876Y-80715125D01*
X300942325Y-80706191D01*
X301236221Y-80661248D01*
X301285624Y-80578238D01*
X301268895Y-80559750D01*
X300994404Y-80471967D01*
X300444246Y-80415883D01*
X299659982Y-80396154D01*
X299331390Y-80393088D01*
X298438866Y-80330264D01*
X297792528Y-80160936D01*
X297336161Y-79851743D01*
X297013550Y-79369329D01*
X296768479Y-78680335D01*
X296628382Y-78197605D01*
X296541457Y-77968933D01*
X296499439Y-78004925D01*
X296483796Y-78279487D01*
X295581644Y-78279487D01*
X295403637Y-77793684D01*
X294911566Y-77291698D01*
X294168431Y-76985331D01*
X294023805Y-76949272D01*
X293449182Y-76805018D01*
X292976554Y-76685065D01*
X292494774Y-76561517D01*
X293679717Y-75564090D01*
X294170038Y-75168912D01*
X294859457Y-74708016D01*
X295445154Y-74473127D01*
X295986428Y-74444310D01*
X296542578Y-74601628D01*
X296549072Y-74604503D01*
X296795156Y-74770846D01*
X297254289Y-75133204D01*
X297900401Y-75669179D01*
X298707425Y-76356374D01*
X299649292Y-77172395D01*
X300699934Y-78094844D01*
X301833283Y-79101325D01*
X303023271Y-80169443D01*
X303140395Y-80275126D01*
X303476347Y-80578238D01*
X304309224Y-81329698D01*
G37*
G36*
X261929613Y-99717635D02*
G01*
X261905349Y-100535154D01*
X261871301Y-101114101D01*
X261815382Y-101520704D01*
X261725504Y-101821192D01*
X261589577Y-102081793D01*
X261395513Y-102368737D01*
X261242095Y-102563870D01*
X260730522Y-103063458D01*
X260189456Y-103440385D01*
X260020468Y-103526193D01*
X259700561Y-103657189D01*
X259343781Y-103742428D01*
X258877958Y-103791472D01*
X258230921Y-103813885D01*
X257330500Y-103819231D01*
X255189140Y-103819231D01*
X252384135Y-107159944D01*
X249579129Y-110500657D01*
X248933796Y-109982052D01*
X248699151Y-109789486D01*
X248403878Y-109531142D01*
X248288462Y-109405315D01*
X248386820Y-109274621D01*
X248671480Y-108922185D01*
X249119156Y-108376360D01*
X249706551Y-107665350D01*
X250410362Y-106817355D01*
X251207292Y-105860580D01*
X252074039Y-104823225D01*
X252879231Y-103860112D01*
X253983920Y-102533913D01*
X256179594Y-102533913D01*
X256334034Y-102612951D01*
X256787640Y-102662144D01*
X257518917Y-102678879D01*
X258430213Y-102633693D01*
X259314578Y-102438155D01*
X259950178Y-102062761D01*
X260364395Y-101480356D01*
X260584617Y-100663787D01*
X260638229Y-99585898D01*
X260614854Y-98201923D01*
X260503224Y-99586470D01*
X260449774Y-100153638D01*
X260338681Y-100846148D01*
X260169997Y-101336748D01*
X259913503Y-101701604D01*
X259538979Y-102016882D01*
X259272610Y-102174059D01*
X258915293Y-102284780D01*
X258412997Y-102339290D01*
X257675821Y-102353846D01*
X257429311Y-102356395D01*
X256825661Y-102386289D01*
X256383664Y-102442697D01*
X256185257Y-102516667D01*
X256179594Y-102533913D01*
X253983920Y-102533913D01*
X254018008Y-102492990D01*
X254971930Y-101338483D01*
X255757095Y-100374680D01*
X256389600Y-99579670D01*
X256885544Y-98931542D01*
X257261023Y-98408385D01*
X257532136Y-97988289D01*
X257714979Y-97649341D01*
X257825652Y-97369631D01*
X257880250Y-97127248D01*
X257894872Y-96900280D01*
X257881127Y-96617966D01*
X257783956Y-96217677D01*
X257555120Y-95781518D01*
X257149894Y-95207893D01*
X257088262Y-95126264D01*
X256717204Y-94649911D01*
X256419352Y-94291681D01*
X256254381Y-94123817D01*
X256188377Y-94057090D01*
X256103847Y-93776244D01*
X256107250Y-93733391D01*
X256183950Y-93628608D01*
X256406768Y-93574992D01*
X256835146Y-93564781D01*
X257528526Y-93590212D01*
X258189063Y-93634011D01*
X258797128Y-93722998D01*
X259297156Y-93877266D01*
X259808718Y-94124850D01*
X260102562Y-94293811D01*
X260771417Y-94782584D01*
X261269856Y-95353934D01*
X261616763Y-96054675D01*
X261831023Y-96931622D01*
X261931518Y-98031589D01*
X261937133Y-99401390D01*
X261932746Y-99585898D01*
X261929613Y-99717635D01*
G37*
G36*
X165052565Y-78771754D02*
G01*
X165051920Y-78880961D01*
X165006656Y-79385030D01*
X164843842Y-79753077D01*
X164498975Y-80145128D01*
X163945385Y-80698718D01*
X161427359Y-80698718D01*
X158909332Y-80698718D01*
X156249086Y-83059616D01*
X155914759Y-83355639D01*
X155163157Y-84015871D01*
X154508577Y-84583646D01*
X153987433Y-85027791D01*
X153636137Y-85317137D01*
X153491104Y-85420513D01*
X153425726Y-85386992D01*
X153179141Y-85180621D01*
X152838938Y-84848487D01*
X152565948Y-84560453D01*
X152403542Y-84330734D01*
X152424422Y-84167398D01*
X152603472Y-83977555D01*
X152768692Y-83827065D01*
X153155737Y-83479231D01*
X153718475Y-82975798D01*
X154420565Y-82349229D01*
X155225666Y-81631984D01*
X156097436Y-80856527D01*
X156607175Y-80402578D01*
X157362279Y-79726881D01*
X159543804Y-79726881D01*
X159617408Y-79781218D01*
X159973309Y-79836606D01*
X160589305Y-79872099D01*
X161428563Y-79884616D01*
X162015964Y-79883272D01*
X162661437Y-79870976D01*
X163091277Y-79836201D01*
X163371285Y-79767534D01*
X163567262Y-79653563D01*
X163745009Y-79482878D01*
X163758365Y-79468260D01*
X163982836Y-79089542D01*
X164146224Y-78584530D01*
X164230973Y-78059295D01*
X164219525Y-77619909D01*
X164094324Y-77372444D01*
X164028695Y-77361831D01*
X163941185Y-77560385D01*
X163912821Y-78065943D01*
X163843547Y-78742978D01*
X163601805Y-79256001D01*
X163593838Y-79265802D01*
X163426428Y-79437503D01*
X163214292Y-79550124D01*
X162887204Y-79618747D01*
X162374934Y-79658452D01*
X161607254Y-79684321D01*
X159923718Y-79728258D01*
X160807492Y-78912753D01*
X160880039Y-78845287D01*
X161278405Y-78452836D01*
X161539900Y-78156855D01*
X161611014Y-78016997D01*
X161524377Y-78040283D01*
X161247633Y-78220943D01*
X160854151Y-78520686D01*
X160415479Y-78880332D01*
X160003166Y-79240701D01*
X159688758Y-79542610D01*
X159543804Y-79726881D01*
X157362279Y-79726881D01*
X157625652Y-79491205D01*
X158651538Y-78568181D01*
X159621955Y-77690304D01*
X160474026Y-76914370D01*
X161144872Y-76297176D01*
X161481239Y-75988431D01*
X162154133Y-75389953D01*
X162758365Y-74876573D01*
X163238321Y-74494893D01*
X163538389Y-74291513D01*
X164131591Y-74067734D01*
X164841582Y-74048320D01*
X165522938Y-74330312D01*
X166192596Y-74921538D01*
X166867492Y-75829823D01*
X167019377Y-76069322D01*
X167337824Y-76584449D01*
X167560902Y-76964132D01*
X167647615Y-77139541D01*
X167589695Y-77161358D01*
X167301617Y-77121913D01*
X166851460Y-77007485D01*
X166231668Y-76886946D01*
X165690267Y-76965362D01*
X165324636Y-77294502D01*
X165117744Y-77891065D01*
X165105293Y-78059295D01*
X165052565Y-78771754D01*
G37*
G36*
X304188204Y-121306873D02*
G01*
X304259397Y-121437298D01*
X304881587Y-122581003D01*
X305657944Y-124012840D01*
X306373459Y-125337795D01*
X307014494Y-126530326D01*
X307567408Y-127564892D01*
X308018563Y-128415952D01*
X308354321Y-129057966D01*
X308561041Y-129465391D01*
X308625084Y-129612687D01*
X308596322Y-129632152D01*
X308362975Y-129780717D01*
X307992350Y-130011846D01*
X307864377Y-130087465D01*
X307489566Y-130267170D01*
X307259658Y-130314695D01*
X307257339Y-130313705D01*
X307132445Y-130150077D01*
X306875929Y-129739002D01*
X306509538Y-129117929D01*
X306055018Y-128324306D01*
X305534115Y-127395583D01*
X304968576Y-126369210D01*
X302840314Y-122473753D01*
X300735242Y-122392343D01*
X300357441Y-122377028D01*
X299575282Y-122335454D01*
X299025565Y-122281888D01*
X298641037Y-122204580D01*
X298354449Y-122091783D01*
X298098548Y-121931750D01*
X298052367Y-121898548D01*
X297700903Y-121614584D01*
X297435968Y-121308154D01*
X297243589Y-120928730D01*
X297109795Y-120425784D01*
X297020612Y-119748790D01*
X296962070Y-118847220D01*
X296933636Y-118048267D01*
X297923940Y-118048267D01*
X297934757Y-119037958D01*
X297990948Y-119771530D01*
X298107703Y-120300180D01*
X298300214Y-120675103D01*
X298583671Y-120947497D01*
X298973265Y-121168558D01*
X299359590Y-121287981D01*
X299880160Y-121369489D01*
X300443417Y-121409756D01*
X300958383Y-121405730D01*
X301323226Y-121355846D01*
X302159613Y-121355846D01*
X302293632Y-121415420D01*
X302379829Y-121403670D01*
X302402180Y-121306873D01*
X302378315Y-121287387D01*
X302185085Y-121306873D01*
X302159613Y-121355846D01*
X301323226Y-121355846D01*
X301334080Y-121354362D01*
X301479530Y-121252599D01*
X301329236Y-121169096D01*
X300926034Y-121111337D01*
X300342355Y-121089779D01*
X299719748Y-121076074D01*
X299304669Y-121013510D01*
X298993032Y-120870402D01*
X298673445Y-120615064D01*
X298141709Y-120140350D01*
X298050000Y-117725000D01*
X297958291Y-115309651D01*
X297927885Y-117645426D01*
X297923940Y-118048267D01*
X296933636Y-118048267D01*
X296920194Y-117670548D01*
X296838423Y-114821189D01*
X295902566Y-113168611D01*
X295550919Y-112542512D01*
X295247552Y-111991884D01*
X295042218Y-111606947D01*
X294966709Y-111446208D01*
X295094564Y-111431794D01*
X295465233Y-111467294D01*
X295998565Y-111542429D01*
X296613684Y-111643813D01*
X297229715Y-111758060D01*
X297765783Y-111871785D01*
X298141012Y-111971600D01*
X298261153Y-112014395D01*
X298505551Y-112128372D01*
X298749949Y-112292543D01*
X299008283Y-112528463D01*
X299294485Y-112857688D01*
X299622488Y-113301777D01*
X300006228Y-113882284D01*
X300459637Y-114620767D01*
X300996649Y-115538782D01*
X301631197Y-116657886D01*
X302377215Y-117999636D01*
X303248638Y-119585588D01*
X304158578Y-121252599D01*
X304188204Y-121306873D01*
G37*
G36*
X290565225Y-86501923D02*
G01*
X289979203Y-87031090D01*
X289780500Y-87204448D01*
X289454045Y-87459819D01*
X289271996Y-87560257D01*
X289233604Y-87534262D01*
X289013159Y-87311475D01*
X288630859Y-86890185D01*
X288118226Y-86306093D01*
X287506781Y-85594901D01*
X286828048Y-84792308D01*
X284505286Y-82024359D01*
X282295271Y-82020783D01*
X281991298Y-82018897D01*
X280753583Y-81967081D01*
X279792626Y-81825561D01*
X279072545Y-81568776D01*
X278557459Y-81171164D01*
X278211486Y-80607162D01*
X277998745Y-79851208D01*
X277883355Y-78877742D01*
X277867908Y-78677982D01*
X277861737Y-78629408D01*
X278701461Y-78629408D01*
X278744839Y-79141573D01*
X278845975Y-79650239D01*
X278998799Y-80060473D01*
X279017131Y-80093401D01*
X279388470Y-80556119D01*
X279851066Y-80912740D01*
X280169508Y-81048454D01*
X280611016Y-81145306D01*
X281220890Y-81195759D01*
X282077268Y-81210257D01*
X282589635Y-81204156D01*
X283188223Y-81178146D01*
X283597258Y-81136403D01*
X283748718Y-81084061D01*
X283748718Y-81084017D01*
X283649332Y-80894274D01*
X283385959Y-80528915D01*
X283010438Y-80049864D01*
X282574602Y-79519049D01*
X282130288Y-78998396D01*
X281729332Y-78549831D01*
X281423570Y-78235279D01*
X281264836Y-78116667D01*
X281212039Y-78185822D01*
X281336371Y-78401603D01*
X281658997Y-78784182D01*
X282106630Y-79326677D01*
X282538880Y-79861187D01*
X282907440Y-80327197D01*
X283164001Y-80664193D01*
X283260257Y-80811658D01*
X283204159Y-80830998D01*
X282891442Y-80858596D01*
X282365666Y-80877564D01*
X281697180Y-80884616D01*
X281405861Y-80884442D01*
X280777070Y-80875499D01*
X280362381Y-80837195D01*
X280079553Y-80748021D01*
X279846344Y-80586468D01*
X279580513Y-80331026D01*
X279386233Y-80128525D01*
X279151356Y-79798744D01*
X279049216Y-79424452D01*
X279026923Y-78865641D01*
X279011712Y-78481940D01*
X278952579Y-78101204D01*
X278864103Y-77953846D01*
X278812260Y-77974318D01*
X278721911Y-78208679D01*
X278701461Y-78629408D01*
X277861737Y-78629408D01*
X277765832Y-77874564D01*
X277591619Y-77336125D01*
X277305746Y-77013007D01*
X276868693Y-76855553D01*
X276240937Y-76814103D01*
X275964423Y-76806145D01*
X275591175Y-76760182D01*
X275444872Y-76686933D01*
X275496519Y-76615606D01*
X275774004Y-76402430D01*
X276232315Y-76103499D01*
X276803984Y-75758008D01*
X277421540Y-75405153D01*
X278017514Y-75084129D01*
X278524435Y-74834133D01*
X278874833Y-74694359D01*
X278887256Y-74690857D01*
X279591682Y-74636721D01*
X280337846Y-74800422D01*
X280965832Y-75147318D01*
X281063282Y-75245761D01*
X281365935Y-75582675D01*
X281838111Y-76124583D01*
X282456795Y-76844543D01*
X283198971Y-77715610D01*
X284041623Y-78710842D01*
X284961736Y-79803295D01*
X285936293Y-80966026D01*
X286034953Y-81084017D01*
X290565225Y-86501923D01*
G37*
G36*
X219538693Y-120270640D02*
G01*
X219984916Y-121694073D01*
X220431519Y-123111740D01*
X220437754Y-123131482D01*
X220843331Y-124427344D01*
X221210909Y-125624165D01*
X221530220Y-126686779D01*
X221790995Y-127580021D01*
X221982966Y-128268727D01*
X222095863Y-128717731D01*
X222119417Y-128891868D01*
X222111797Y-128898958D01*
X221880560Y-129029287D01*
X221497610Y-129189216D01*
X221269041Y-129270778D01*
X220898831Y-129354830D01*
X220657189Y-129267119D01*
X220471830Y-128960418D01*
X220270466Y-128387500D01*
X220243132Y-128302854D01*
X220073080Y-127773618D01*
X219829713Y-127013583D01*
X219533576Y-126087015D01*
X219205212Y-125058180D01*
X218865165Y-123991346D01*
X217789025Y-120612821D01*
X216616628Y-120611913D01*
X215973749Y-120590115D01*
X215313267Y-120528140D01*
X214829204Y-120440210D01*
X214469108Y-120303129D01*
X213792048Y-119876710D01*
X213201802Y-119311418D01*
X212814850Y-118707453D01*
X212667527Y-118210162D01*
X212597639Y-117288295D01*
X212655690Y-116809705D01*
X213976239Y-116809705D01*
X213999164Y-117162863D01*
X214190267Y-117711138D01*
X214701279Y-118451290D01*
X215420367Y-118973063D01*
X215447319Y-118985871D01*
X215940164Y-119161088D01*
X216479329Y-119271440D01*
X216975289Y-119309646D01*
X217338517Y-119268427D01*
X217479488Y-119140503D01*
X217439792Y-118924326D01*
X217318525Y-118488451D01*
X217137731Y-117907845D01*
X216919863Y-117247563D01*
X216687372Y-116572661D01*
X216462710Y-115948195D01*
X216268327Y-115439221D01*
X216126676Y-115110796D01*
X216060208Y-115027974D01*
X216075857Y-115224391D01*
X216177156Y-115671000D01*
X216348893Y-116292555D01*
X216573155Y-117019515D01*
X216787924Y-117691357D01*
X216977851Y-118301280D01*
X217106507Y-118733010D01*
X217153847Y-118920911D01*
X217096171Y-118954015D01*
X216799232Y-118973296D01*
X216334431Y-118947311D01*
X216124663Y-118916942D01*
X215391539Y-118643832D01*
X214786314Y-118167757D01*
X214374866Y-117553645D01*
X214223077Y-116866425D01*
X214187277Y-116674713D01*
X214059659Y-116624087D01*
X213976239Y-116809705D01*
X212655690Y-116809705D01*
X212718842Y-116289060D01*
X213024409Y-115321154D01*
X213162872Y-114949291D01*
X213389698Y-114157685D01*
X213612454Y-113180586D01*
X213810514Y-112102445D01*
X213855225Y-111829937D01*
X213988613Y-111048033D01*
X214105405Y-110407576D01*
X214194328Y-109968656D01*
X214244110Y-109791361D01*
X214306205Y-109800848D01*
X214559652Y-109973049D01*
X214949003Y-110297859D01*
X215417921Y-110722193D01*
X215910072Y-111192965D01*
X216369121Y-111657089D01*
X216738733Y-112061479D01*
X216962573Y-112353049D01*
X217005400Y-112431754D01*
X217189664Y-112861071D01*
X217427691Y-113507467D01*
X217693403Y-114297651D01*
X217960725Y-115158334D01*
X218101896Y-115627535D01*
X218374452Y-116519890D01*
X218716246Y-117628134D01*
X219110065Y-118896856D01*
X219186084Y-119140503D01*
X219538693Y-120270640D01*
G37*
G36*
X287376701Y-101020259D02*
G01*
X288500233Y-102359471D01*
X289518932Y-103562745D01*
X289964901Y-104087817D01*
X290749049Y-105018239D01*
X291447265Y-105855911D01*
X292034292Y-106569987D01*
X292484869Y-107129620D01*
X292773739Y-107503960D01*
X292875641Y-107662162D01*
X292862105Y-107708263D01*
X292677769Y-107940948D01*
X292346475Y-108237035D01*
X292224366Y-108330933D01*
X291890476Y-108562376D01*
X291699573Y-108655887D01*
X291699298Y-108655883D01*
X291564829Y-108535609D01*
X291248678Y-108199338D01*
X290779497Y-107679202D01*
X290185938Y-107007336D01*
X289496653Y-106215874D01*
X288740294Y-105336950D01*
X285898750Y-102016208D01*
X283892004Y-101951254D01*
X283223529Y-101921101D01*
X282164984Y-101814497D01*
X281321057Y-101620861D01*
X280621247Y-101313703D01*
X279995053Y-100866531D01*
X279371974Y-100252856D01*
X279002303Y-99813103D01*
X278551801Y-99101603D01*
X278236375Y-98297510D01*
X278029031Y-97324649D01*
X277902777Y-96106846D01*
X277896899Y-96033274D01*
X278914945Y-96033274D01*
X278947979Y-96578934D01*
X279044841Y-97212786D01*
X279194482Y-97848562D01*
X279385854Y-98400000D01*
X279771995Y-99102681D01*
X280551954Y-99969666D01*
X281559616Y-100616426D01*
X281933343Y-100776220D01*
X282427010Y-100914994D01*
X283014876Y-100984177D01*
X283811966Y-101003538D01*
X284121881Y-101000794D01*
X284689345Y-100976496D01*
X285070590Y-100932408D01*
X285195941Y-100874999D01*
X285122400Y-100756683D01*
X284870065Y-100421037D01*
X284483689Y-99937087D01*
X284005678Y-99354977D01*
X283478441Y-98724851D01*
X282944383Y-98096850D01*
X282445911Y-97521119D01*
X282025434Y-97047801D01*
X281725357Y-96727038D01*
X281588087Y-96608975D01*
X281550350Y-96610244D01*
X281518106Y-96632069D01*
X281544022Y-96707125D01*
X281652946Y-96868402D01*
X281869724Y-97148892D01*
X282219205Y-97581588D01*
X282726236Y-98199481D01*
X283415665Y-99035562D01*
X284947587Y-100892277D01*
X283622046Y-100801422D01*
X283551940Y-100796394D01*
X282417958Y-100637765D01*
X281562149Y-100355073D01*
X281193797Y-100150200D01*
X280363833Y-99444211D01*
X279735606Y-98524726D01*
X279337705Y-97441471D01*
X279198718Y-96244172D01*
X279194246Y-96014260D01*
X279139378Y-95627032D01*
X279022022Y-95559217D01*
X278956786Y-95662067D01*
X278914945Y-96033274D01*
X277896899Y-96033274D01*
X277850359Y-95450811D01*
X277762889Y-94840351D01*
X277612175Y-94345131D01*
X277359159Y-93876198D01*
X276964785Y-93344599D01*
X276389998Y-92661382D01*
X276381253Y-92651205D01*
X275992674Y-92177121D01*
X275801822Y-91854648D01*
X275833910Y-91660394D01*
X276114153Y-91570965D01*
X276667761Y-91562970D01*
X277519949Y-91613016D01*
X278018670Y-91651628D01*
X278571223Y-91717804D01*
X279050396Y-91826726D01*
X279490708Y-92004899D01*
X279926681Y-92278830D01*
X280392834Y-92675027D01*
X280923688Y-93219994D01*
X281553763Y-93940240D01*
X282317579Y-94862270D01*
X283249657Y-96012590D01*
X284030046Y-96973341D01*
X285076313Y-98248560D01*
X286213629Y-99623744D01*
X287255723Y-100874999D01*
X287376701Y-101020259D01*
G37*
G36*
X208959947Y-92494309D02*
G01*
X209016270Y-92518262D01*
X209115888Y-92625866D01*
X209043148Y-92826875D01*
X208778201Y-93198153D01*
X208411187Y-93681458D01*
X207944154Y-94324105D01*
X207626069Y-94840257D01*
X207425615Y-95311706D01*
X207311472Y-95820239D01*
X207252324Y-96447647D01*
X207216853Y-97275717D01*
X207177634Y-98147984D01*
X207122126Y-98784046D01*
X207034709Y-99268130D01*
X206899669Y-99687183D01*
X206701289Y-100128152D01*
X206244185Y-100886941D01*
X205397645Y-101768871D01*
X204322375Y-102419432D01*
X204251451Y-102450328D01*
X203808924Y-102600203D01*
X203265917Y-102704909D01*
X202547451Y-102775470D01*
X201578549Y-102822913D01*
X199575686Y-102893711D01*
X196693933Y-106699253D01*
X196479187Y-106982639D01*
X195762918Y-107924847D01*
X195118556Y-108767940D01*
X194570931Y-109479741D01*
X194144874Y-110028070D01*
X193865215Y-110380750D01*
X193756784Y-110505602D01*
X193747046Y-110505150D01*
X193522787Y-110398264D01*
X193191822Y-110158595D01*
X192847853Y-109865549D01*
X192584582Y-109598529D01*
X192495709Y-109436941D01*
X192581082Y-109307937D01*
X192837394Y-108951983D01*
X193235109Y-108410607D01*
X193744865Y-107723012D01*
X194337302Y-106928403D01*
X194983058Y-106065984D01*
X195652772Y-105174958D01*
X196317083Y-104294528D01*
X196946629Y-103463900D01*
X197512050Y-102722277D01*
X197983983Y-102108862D01*
X197991133Y-102089620D01*
X197881384Y-101872517D01*
X197537655Y-101469867D01*
X196975417Y-100898531D01*
X196210138Y-100175371D01*
X195802399Y-99797777D01*
X195199251Y-99230613D01*
X194710839Y-98760557D01*
X194379200Y-98428297D01*
X194246368Y-98274522D01*
X194260794Y-98254861D01*
X194500508Y-98206502D01*
X194988644Y-98167527D01*
X195668945Y-98141517D01*
X196485150Y-98132051D01*
X198778206Y-98132051D01*
X198778206Y-98625743D01*
X198779786Y-98684745D01*
X198862047Y-99193386D01*
X199030688Y-99724781D01*
X199369259Y-100353072D01*
X200018036Y-101062516D01*
X200808600Y-101534748D01*
X201685185Y-101758129D01*
X202592024Y-101721023D01*
X203473351Y-101411793D01*
X204273398Y-100818802D01*
X204571412Y-100491495D01*
X204855325Y-100096929D01*
X204964776Y-99822385D01*
X204951932Y-99704297D01*
X204862799Y-99717059D01*
X204662448Y-100004487D01*
X204150198Y-100645460D01*
X203388012Y-101192956D01*
X202527420Y-101479589D01*
X201627442Y-101496799D01*
X200747097Y-101236024D01*
X199945406Y-100688703D01*
X199744429Y-100493182D01*
X199506374Y-100211523D01*
X199331666Y-99896214D01*
X199211213Y-99498609D01*
X199135923Y-98970063D01*
X199096706Y-98261930D01*
X199084469Y-97325566D01*
X199090122Y-96112325D01*
X199091857Y-95919895D01*
X199104155Y-94942729D01*
X199120529Y-94091255D01*
X199139620Y-93415461D01*
X199160068Y-92965333D01*
X199180512Y-92790856D01*
X199205786Y-92796270D01*
X199425194Y-92941885D01*
X199828874Y-93250463D01*
X200370894Y-93686204D01*
X201005327Y-94213305D01*
X202767308Y-95698588D01*
X203255770Y-95083589D01*
X204081711Y-94142355D01*
X204939067Y-93381382D01*
X205735477Y-92905764D01*
X205941343Y-92828482D01*
X206550760Y-92666325D01*
X207260950Y-92538607D01*
X207968292Y-92458550D01*
X208569165Y-92439376D01*
X208959947Y-92494309D01*
G37*
G36*
X128883334Y-121606592D02*
G01*
X128876416Y-121839774D01*
X128829016Y-122987977D01*
X128756202Y-123868280D01*
X128641790Y-124529739D01*
X128469600Y-125021409D01*
X128223448Y-125392346D01*
X127887152Y-125691605D01*
X127444530Y-125968243D01*
X127436328Y-125972843D01*
X127117728Y-126129276D01*
X126778117Y-126232461D01*
X126341379Y-126293084D01*
X125731399Y-126321830D01*
X124872062Y-126329386D01*
X122940385Y-126330385D01*
X120769177Y-130318488D01*
X120693106Y-130458133D01*
X120132170Y-131482604D01*
X119623710Y-132402313D01*
X119188191Y-133180914D01*
X118846076Y-133782059D01*
X118617827Y-134169401D01*
X118523908Y-134306592D01*
X118341032Y-134255454D01*
X117988525Y-134082092D01*
X117601301Y-133849484D01*
X117288749Y-133624435D01*
X117160257Y-133473755D01*
X117199903Y-133377479D01*
X117379609Y-133016366D01*
X117691609Y-132414554D01*
X118121964Y-131598202D01*
X118656737Y-130593469D01*
X119281990Y-129426516D01*
X119983783Y-128123500D01*
X120748180Y-126710583D01*
X121497823Y-125330661D01*
X123673077Y-125330661D01*
X123673106Y-125332119D01*
X123824105Y-125423291D01*
X124209786Y-125479578D01*
X124742194Y-125500479D01*
X125333369Y-125485494D01*
X125895354Y-125434121D01*
X126340191Y-125345859D01*
X126814394Y-125130231D01*
X127391471Y-124601699D01*
X127742930Y-123898170D01*
X127757691Y-123839099D01*
X127822969Y-123399071D01*
X127869115Y-122787566D01*
X127896116Y-122075520D01*
X127903963Y-121333868D01*
X127892644Y-120633547D01*
X127862150Y-120045492D01*
X127812468Y-119640640D01*
X127743590Y-119489926D01*
X127681422Y-119612481D01*
X127627211Y-120028585D01*
X127592807Y-120707122D01*
X127580770Y-121614678D01*
X127569976Y-122514176D01*
X127519350Y-123353656D01*
X127413213Y-123963903D01*
X127236309Y-124397157D01*
X126973383Y-124705661D01*
X126609176Y-124941657D01*
X126518813Y-124979355D01*
X126127482Y-125073193D01*
X125603494Y-125145424D01*
X125037736Y-125190371D01*
X124521096Y-125202356D01*
X124144461Y-125175701D01*
X123998718Y-125104730D01*
X124002821Y-125088857D01*
X124102864Y-124859407D01*
X124316550Y-124408925D01*
X124616890Y-123793563D01*
X124976896Y-123069473D01*
X125075819Y-122870864D01*
X125407631Y-122183268D01*
X125659625Y-121626899D01*
X125808688Y-121254504D01*
X125831704Y-121118831D01*
X125726217Y-121245268D01*
X125510032Y-121604660D01*
X125217385Y-122133911D01*
X124880728Y-122769704D01*
X124532511Y-123448720D01*
X124205186Y-124107642D01*
X123931204Y-124683151D01*
X123743018Y-125111930D01*
X123673077Y-125330661D01*
X121497823Y-125330661D01*
X121561241Y-125213923D01*
X121851769Y-124680309D01*
X122804351Y-122933974D01*
X123621314Y-121446017D01*
X124317635Y-120194408D01*
X124908290Y-119157121D01*
X125408257Y-118312128D01*
X125832511Y-117637402D01*
X126196030Y-117110915D01*
X126513789Y-116710638D01*
X126800766Y-116414546D01*
X127071936Y-116200609D01*
X127342278Y-116046801D01*
X127626766Y-115931094D01*
X127940378Y-115831461D01*
X128381069Y-115717882D01*
X128990721Y-115596613D01*
X129605850Y-115503124D01*
X130145483Y-115447517D01*
X130528645Y-115439896D01*
X130674359Y-115490364D01*
X130622957Y-115623697D01*
X130443210Y-115993871D01*
X130164781Y-116533752D01*
X129819552Y-117180305D01*
X128964744Y-118757233D01*
X128891126Y-121333868D01*
X128883334Y-121606592D01*
G37*
%TD*%
M02*
