%TF.GenerationSoftware,KiCad,Pcbnew,9.0.2*%
%TF.CreationDate,2025-07-09T23:02:58+05:30*%
%TF.ProjectId,comfort40pcb,636f6d66-6f72-4743-9430-7063622e6b69,rev?*%
%TF.SameCoordinates,Original*%
%TF.FileFunction,Copper,L1,Top*%
%TF.FilePolarity,Positive*%
%FSLAX46Y46*%
G04 Gerber Fmt 4.6, Leading zero omitted, Abs format (unit mm)*
G04 Created by KiCad (PCBNEW 9.0.2) date 2025-07-09 23:02:58*
%MOMM*%
%LPD*%
G01*
G04 APERTURE LIST*
%TA.AperFunction,ComponentPad*%
%ADD10C,2.540000*%
%TD*%
%TA.AperFunction,ComponentPad*%
%ADD11C,3.250000*%
%TD*%
%TA.AperFunction,ComponentPad*%
%ADD12C,3.300000*%
%TD*%
%TA.AperFunction,ComponentPad*%
%ADD13O,2.600000X1.500000*%
%TD*%
%TA.AperFunction,ComponentPad*%
%ADD14O,1.500000X2.600000*%
%TD*%
%TA.AperFunction,ComponentPad*%
%ADD15R,2.000000X2.000000*%
%TD*%
%TA.AperFunction,ComponentPad*%
%ADD16C,2.000000*%
%TD*%
%TA.AperFunction,ComponentPad*%
%ADD17C,1.600000*%
%TD*%
%TA.AperFunction,ComponentPad*%
%ADD18R,2.000000X3.200000*%
%TD*%
%TA.AperFunction,ViaPad*%
%ADD19C,0.500000*%
%TD*%
%TA.AperFunction,Conductor*%
%ADD20C,0.250000*%
%TD*%
G04 APERTURE END LIST*
D10*
%TO.P,SW15,1,Col*%
%TO.N,Net-(D15-A)*%
X94350000Y-84296250D03*
%TO.P,SW15,2,Row*%
%TO.N,COL0*%
X88000000Y-86836250D03*
%TD*%
D11*
%TO.P,,*%
%TO.N,*%
X98896119Y-134476257D03*
%TD*%
D12*
%TO.P,,*%
%TO.N,*%
X377758619Y-89478093D03*
%TD*%
D10*
%TO.P,SW26,1,Col*%
%TO.N,Net-(D26-A)*%
X310991250Y-84296250D03*
%TO.P,SW26,2,Row*%
%TO.N,COL11*%
X304641250Y-86836250D03*
%TD*%
%TO.P,SW8,1,Col*%
%TO.N,Net-(D8-A)*%
X230028750Y-65246250D03*
%TO.P,SW8,2,Row*%
%TO.N,COL7*%
X223678750Y-67786250D03*
%TD*%
D13*
%TO.P,U1,1,1*%
%TO.N,ENC_CW*%
X373994150Y-62520000D03*
%TO.P,U1,2,2*%
%TO.N,ROW3*%
X373994150Y-65060000D03*
%TO.P,U1,3,3*%
%TO.N,ROW2*%
X373994150Y-67600000D03*
%TO.P,U1,4,4*%
%TO.N,COL13*%
X373994150Y-70140000D03*
%TO.P,U1,5,5*%
%TO.N,COL12*%
X373994150Y-72680000D03*
%TO.P,U1,6,6*%
%TO.N,COL11*%
X373994150Y-75220000D03*
%TO.P,U1,7,7*%
%TO.N,COL10*%
X373994150Y-77760000D03*
%TO.P,U1,8,8*%
%TO.N,COL9*%
X373994150Y-80300000D03*
%TO.P,U1,9,9*%
%TO.N,COL8*%
X373994150Y-82840000D03*
D14*
%TO.P,U1,10,10*%
%TO.N,COL7*%
X370904150Y-83390000D03*
%TO.P,U1,11,11*%
%TO.N,COL6*%
X368364150Y-83390000D03*
%TO.P,U1,12,12*%
%TO.N,COL5*%
X365824150Y-83390000D03*
%TO.P,U1,13,13*%
%TO.N,COL4*%
X363284150Y-83390000D03*
%TO.P,U1,14,14*%
%TO.N,COL3*%
X360744150Y-83390000D03*
D13*
%TO.P,U1,15,15*%
%TO.N,COL2*%
X357654150Y-82840000D03*
%TO.P,U1,16*%
%TO.N,N/C*%
X357654150Y-80300000D03*
%TO.P,U1,17*%
X357654150Y-77760000D03*
%TO.P,U1,18*%
X357654150Y-75220000D03*
%TO.P,U1,19*%
X357654150Y-72680000D03*
%TO.P,U1,20*%
X357654150Y-70140000D03*
%TO.P,U1,21*%
X357654150Y-67600000D03*
%TO.P,U1,22*%
X357654150Y-65060000D03*
%TO.P,U1,23*%
X357654150Y-62520000D03*
%TD*%
D10*
%TO.P,SW34,1,Col*%
%TO.N,Net-(D34-A)*%
X225266250Y-103346250D03*
%TO.P,SW34,2,Row*%
%TO.N,COL6*%
X218916250Y-105886250D03*
%TD*%
D12*
%TO.P,,*%
%TO.N,*%
X217958619Y-63326251D03*
%TD*%
D10*
%TO.P,SW37,1,Col*%
%TO.N,Net-(D37-A)*%
X282416250Y-103346250D03*
%TO.P,SW37,2,Row*%
%TO.N,COL9*%
X276066250Y-105886250D03*
%TD*%
%TO.P,SW54,1,Col*%
%TO.N,Net-(D46-A)*%
X232092500Y-122396250D03*
%TO.P,SW54,2,Row*%
%TO.N,COL8*%
X238442500Y-124936250D03*
%TD*%
%TO.P,SW20,1,Col*%
%TO.N,Net-(D20-A)*%
X196691250Y-84296250D03*
%TO.P,SW20,2,Row*%
%TO.N,COL5*%
X190341250Y-86836250D03*
%TD*%
%TO.P,SW6,1,Col*%
%TO.N,Net-(D6-A)*%
X191928750Y-65246250D03*
%TO.P,SW6,2,Row*%
%TO.N,COL5*%
X185578750Y-67786250D03*
%TD*%
%TO.P,SW12,1,Col*%
%TO.N,Net-(D12-A)*%
X306228750Y-65246250D03*
%TO.P,SW12,2,Row*%
%TO.N,COL11*%
X299878750Y-67786250D03*
%TD*%
%TO.P,SW36,1,Col*%
%TO.N,Net-(D36-A)*%
X263366250Y-103346250D03*
%TO.P,SW36,2,Row*%
%TO.N,COL8*%
X257016250Y-105886250D03*
%TD*%
D12*
%TO.P,,*%
%TO.N,*%
X353864619Y-63301251D03*
%TD*%
D10*
%TO.P,SW47,1,Col*%
%TO.N,Net-(D48-A)*%
X189547500Y-122396250D03*
%TO.P,SW47,2,Row*%
%TO.N,COL4*%
X183197500Y-124936250D03*
%TD*%
%TO.P,SW46,1,Col*%
%TO.N,Net-(D48-A)*%
X177641250Y-122396250D03*
%TO.P,SW46,2,Row*%
%TO.N,COL4*%
X171291250Y-124936250D03*
%TD*%
D15*
%TO.P,SW3,A*%
%TO.N,ENC_CCW*%
X359698250Y-105090000D03*
D16*
%TO.P,SW3,B*%
%TO.N,ENC_CW*%
X359698250Y-107630000D03*
%TO.P,SW3,C*%
%TO.N,GND*%
X359698250Y-110170000D03*
%TO.P,SW3,D*%
%TO.N,N/C*%
X359698250Y-112710000D03*
D17*
%TO.P,SW3,S1*%
%TO.N,Net-(D40-A)*%
X358473250Y-102250000D03*
%TO.P,SW3,S2*%
%TO.N,COL12*%
X360323250Y-102250000D03*
%TD*%
D10*
%TO.P,SW24,1,Col*%
%TO.N,Net-(D24-A)*%
X272891250Y-84296250D03*
%TO.P,SW24,2,Row*%
%TO.N,COL9*%
X266541250Y-86836250D03*
%TD*%
D12*
%TO.P,MP,*%
%TO.N,*%
X365824119Y-134476253D03*
%TD*%
D10*
%TO.P,SW27,1,Col*%
%TO.N,Net-(D27-A)*%
X337185000Y-84296250D03*
%TO.P,SW27,2,Row*%
%TO.N,COL12*%
X330835000Y-86836250D03*
%TD*%
%TO.P,SW7,1,Col*%
%TO.N,Net-(D7-A)*%
X210978750Y-65246250D03*
%TO.P,SW7,2,Row*%
%TO.N,COL6*%
X204628750Y-67786250D03*
%TD*%
%TO.P,SW9,1,Col*%
%TO.N,Net-(D9-A)*%
X249078750Y-65246250D03*
%TO.P,SW9,2,Row*%
%TO.N,COL8*%
X242728750Y-67786250D03*
%TD*%
%TO.P,SW39,1,Col*%
%TO.N,Net-(D39-A)*%
X322897500Y-103346250D03*
%TO.P,SW39,2,Row*%
%TO.N,COL11*%
X316547500Y-105886250D03*
%TD*%
%TO.P,SW32,1,Col*%
%TO.N,Net-(D32-A)*%
X187166250Y-103346250D03*
%TO.P,SW32,2,Row*%
%TO.N,COL4*%
X180816250Y-105886250D03*
%TD*%
%TO.P,SW30,1,Col*%
%TO.N,Net-(D30-A)*%
X149066250Y-103346250D03*
%TO.P,SW30,2,Row*%
%TO.N,COL2*%
X142716250Y-105886250D03*
%TD*%
D15*
%TO.P,SW55,A,A*%
%TO.N,ENC_CCW*%
X368324150Y-112710000D03*
D16*
%TO.P,SW55,B,B*%
%TO.N,ENC_CW*%
X363324150Y-112710000D03*
%TO.P,SW55,C,C*%
%TO.N,GND*%
X365824150Y-112710000D03*
D18*
%TO.P,SW55,MP*%
%TO.N,N/C*%
X371424150Y-120210000D03*
X360224150Y-120210000D03*
D16*
%TO.P,SW55,S1,S1*%
%TO.N,Net-(D40-A)*%
X363324150Y-127210000D03*
%TO.P,SW55,S2,S2*%
%TO.N,COL12*%
X368324150Y-127210000D03*
%TD*%
D10*
%TO.P,SW16,1,Col*%
%TO.N,Net-(D16-A)*%
X120491250Y-84296250D03*
%TO.P,SW16,2,Row*%
%TO.N,COL1*%
X114141250Y-86836250D03*
%TD*%
%TO.P,SW29,1,Col*%
%TO.N,Net-(D29-A)*%
X130016250Y-103346250D03*
%TO.P,SW29,2,Row*%
%TO.N,COL1*%
X123666250Y-105886250D03*
%TD*%
D11*
%TO.P,,*%
%TO.N,*%
X281062369Y-134476257D03*
%TD*%
D10*
%TO.P,SW23,1,Col*%
%TO.N,Net-(D23-A)*%
X253841250Y-84296250D03*
%TO.P,SW23,2,Row*%
%TO.N,COL8*%
X247491250Y-86836250D03*
%TD*%
D12*
%TO.P,,*%
%TO.N,*%
X101267974Y-63326251D03*
%TD*%
D10*
%TO.P,SW45,1,Col*%
%TO.N,Net-(D49-A)*%
X158591250Y-122396250D03*
%TO.P,SW45,2,Row*%
%TO.N,COL3*%
X152241250Y-124936250D03*
%TD*%
D12*
%TO.P,,*%
%TO.N,*%
X377783619Y-134501255D03*
%TD*%
%TO.P,,*%
%TO.N,*%
X377783619Y-63301251D03*
%TD*%
%TO.P,,*%
%TO.N,*%
X332258619Y-63326249D03*
%TD*%
D10*
%TO.P,SW14,1,Col*%
%TO.N,Net-(D14-A)*%
X344328750Y-65246250D03*
%TO.P,SW14,2,Row*%
%TO.N,COL13*%
X337978750Y-67786250D03*
%TD*%
%TO.P,SW22,1,Col*%
%TO.N,Net-(D22-A)*%
X234791250Y-84296250D03*
%TO.P,SW22,2,Row*%
%TO.N,COL7*%
X228441250Y-86836250D03*
%TD*%
%TO.P,SW52,1,Col*%
%TO.N,Net-(D43-A)*%
X318135000Y-122396250D03*
%TO.P,SW52,2,Row*%
%TO.N,COL11*%
X311785000Y-124936250D03*
%TD*%
%TO.P,SW18,1,Col*%
%TO.N,Net-(D18-A)*%
X158591250Y-84296250D03*
%TO.P,SW18,2,Row*%
%TO.N,COL3*%
X152241250Y-86836250D03*
%TD*%
%TO.P,SW17,1,Col*%
%TO.N,Net-(D17-A)*%
X139541250Y-84296250D03*
%TO.P,SW17,2,Row*%
%TO.N,COL2*%
X133191250Y-86836250D03*
%TD*%
D12*
%TO.P,,*%
%TO.N,*%
X353864619Y-134501253D03*
%TD*%
D10*
%TO.P,SW40,1,Col*%
%TO.N,Net-(D39-A)*%
X332422500Y-103346250D03*
%TO.P,SW40,2,Row*%
%TO.N,COL11*%
X326072500Y-105886250D03*
%TD*%
%TO.P,SW5,1,Col*%
%TO.N,Net-(D5-A)*%
X172878750Y-65246250D03*
%TO.P,SW5,2,Row*%
%TO.N,COL4*%
X166528750Y-67786250D03*
%TD*%
%TO.P,SW2,1,Col*%
%TO.N,Net-(D2-A)*%
X115728750Y-65246250D03*
%TO.P,SW2,2,Row*%
%TO.N,COL1*%
X109378750Y-67786250D03*
%TD*%
%TO.P,SW31,1,Col*%
%TO.N,Net-(D31-A)*%
X168116250Y-103346250D03*
%TO.P,SW31,2,Row*%
%TO.N,COL3*%
X161766250Y-105886250D03*
%TD*%
D11*
%TO.P,,*%
%TO.N,*%
X145329869Y-134476257D03*
%TD*%
D10*
%TO.P,SW19,1,Col*%
%TO.N,Net-(D19-A)*%
X177641250Y-84296250D03*
%TO.P,SW19,2,Row*%
%TO.N,COL4*%
X171291250Y-86836250D03*
%TD*%
%TO.P,SW49,1,Col*%
%TO.N,Net-(D46-A)*%
X253841250Y-122396250D03*
%TO.P,SW49,2,Row*%
%TO.N,COL8*%
X247491250Y-124936250D03*
%TD*%
%TO.P,SW50,1,Col*%
%TO.N,Net-(D45-A)*%
X272891250Y-122396250D03*
%TO.P,SW50,2,Row*%
%TO.N,COL9*%
X266541250Y-124936250D03*
%TD*%
%TO.P,SW28,1,Col*%
%TO.N,Net-(D28-A)*%
X99060000Y-103346250D03*
%TO.P,SW28,2,Row*%
%TO.N,COL0*%
X92710000Y-105886250D03*
%TD*%
%TO.P,SW51,1,Col*%
%TO.N,Net-(D44-A)*%
X294322500Y-122396250D03*
%TO.P,SW51,2,Row*%
%TO.N,COL10*%
X287972500Y-124936250D03*
%TD*%
%TO.P,SW48,1,Col*%
%TO.N,Net-(D47-A)*%
X215741250Y-122396250D03*
%TO.P,SW48,2,Row*%
%TO.N,COL6*%
X209391250Y-124936250D03*
%TD*%
%TO.P,SW10,1,Col*%
%TO.N,Net-(D10-A)*%
X268128750Y-65246250D03*
%TO.P,SW10,2,Row*%
%TO.N,COL9*%
X261778750Y-67786250D03*
%TD*%
%TO.P,SW3,1,Col*%
%TO.N,Net-(D3-A)*%
X134778750Y-65246250D03*
%TO.P,SW3,2,Row*%
%TO.N,COL2*%
X128428750Y-67786250D03*
%TD*%
%TO.P,SW44,1,Col*%
%TO.N,Net-(D50-A)*%
X137160000Y-122396250D03*
%TO.P,SW44,2,Row*%
%TO.N,COL2*%
X130810000Y-124936250D03*
%TD*%
%TO.P,SW42,1,Col*%
%TO.N,Net-(D52-A)*%
X89535000Y-122396250D03*
%TO.P,SW42,2,Row*%
%TO.N,COL0*%
X83185000Y-124936250D03*
%TD*%
%TO.P,SW11,1,Col*%
%TO.N,Net-(D11-A)*%
X287178750Y-65246250D03*
%TO.P,SW11,2,Row*%
%TO.N,COL10*%
X280828750Y-67786250D03*
%TD*%
%TO.P,SW13,1,Col*%
%TO.N,Net-(D13-A)*%
X325278750Y-65246250D03*
%TO.P,SW13,2,Row*%
%TO.N,COL12*%
X318928750Y-67786250D03*
%TD*%
%TO.P,SW1,1,Col*%
%TO.N,Net-(D1-A)*%
X91916250Y-65246250D03*
%TO.P,SW1,2,Row*%
%TO.N,COL0*%
X85566250Y-67786250D03*
%TD*%
%TO.P,SW55,1*%
%TO.N,Net-(D15-A)*%
X94297500Y-84296250D03*
%TO.P,SW55,2*%
%TO.N,COL0*%
X87947500Y-86836250D03*
%TD*%
%TO.P,SW41,1,Col*%
%TO.N,Net-(D41-A)*%
X344328750Y-103346250D03*
%TO.P,SW41,2,Row*%
%TO.N,COL13*%
X337978750Y-105886250D03*
%TD*%
%TO.P,SW21,1,Col*%
%TO.N,Net-(D21-A)*%
X215741250Y-84296250D03*
%TO.P,SW21,2,Row*%
%TO.N,COL6*%
X209391250Y-86836250D03*
%TD*%
%TO.P,SW25,1,Col*%
%TO.N,Net-(D25-A)*%
X291941250Y-84296250D03*
%TO.P,SW25,2,Row*%
%TO.N,COL10*%
X285591250Y-86836250D03*
%TD*%
%TO.P,SW4,1,Col*%
%TO.N,Net-(D4-A)*%
X153828750Y-65246250D03*
%TO.P,SW4,2,Row*%
%TO.N,COL3*%
X147478750Y-67786250D03*
%TD*%
%TO.P,SW43,1,Col*%
%TO.N,Net-(D51-A)*%
X113347500Y-122396250D03*
%TO.P,SW43,2,Row*%
%TO.N,COL1*%
X106997500Y-124936250D03*
%TD*%
%TO.P,SW33,1,Col*%
%TO.N,Net-(D33-A)*%
X206216250Y-103346250D03*
%TO.P,SW33,2,Row*%
%TO.N,COL5*%
X199866250Y-105886250D03*
%TD*%
D11*
%TO.P,,*%
%TO.N,*%
X327496119Y-134476257D03*
%TD*%
D10*
%TO.P,SW35,1,Col*%
%TO.N,Net-(D35-A)*%
X244316250Y-103346250D03*
%TO.P,SW35,2,Row*%
%TO.N,COL7*%
X237966250Y-105886250D03*
%TD*%
%TO.P,SW53,1,Col*%
%TO.N,Net-(D42-A)*%
X341947500Y-122396250D03*
%TO.P,SW53,2,Row*%
%TO.N,COL13*%
X335597500Y-124936250D03*
%TD*%
%TO.P,SW38,1,Col*%
%TO.N,Net-(D38-A)*%
X301466250Y-103346250D03*
%TO.P,SW38,2,Row*%
%TO.N,COL10*%
X295116250Y-105886250D03*
%TD*%
D19*
%TO.N,ROW1*%
X350100000Y-76735500D03*
X350100000Y-88100000D03*
%TO.N,COL13*%
X337978750Y-112800000D03*
%TO.N,COL12*%
X371000000Y-108600000D03*
X330835000Y-101200000D03*
%TD*%
D20*
%TO.N,ROW1*%
X350100000Y-88100000D02*
X350100000Y-76735500D01*
%TO.N,Net-(D40-A)*%
X363324150Y-127210000D02*
X363324150Y-118800000D01*
X361824150Y-117300000D02*
X359100000Y-117300000D01*
X357600000Y-115800000D02*
X357600000Y-103744570D01*
X357600000Y-115800000D02*
G75*
G03*
X359100000Y-117300000I1500000J0D01*
G01*
X357600000Y-103744570D02*
G75*
G02*
X358039355Y-102683925I1500000J-30D01*
G01*
X363324150Y-118800000D02*
G75*
G03*
X361824150Y-117299950I-1500050J0D01*
G01*
%TO.N,ENC_CW*%
X361824150Y-107630000D02*
X360248250Y-107630000D01*
X363324150Y-112710000D02*
X363324150Y-109130000D01*
X363324150Y-109130000D02*
G75*
G03*
X361824150Y-107629950I-1500050J0D01*
G01*
%TO.N,GND*%
X365238363Y-97138363D02*
X355339340Y-87239340D01*
X355339340Y-67060660D02*
X356900660Y-65499340D01*
X365824150Y-112710000D02*
X365824150Y-98552577D01*
X354900000Y-86178680D02*
X354900000Y-68121320D01*
X355339340Y-87239340D02*
G75*
G02*
X354900014Y-86178680I1060660J1060640D01*
G01*
X354900000Y-68121320D02*
G75*
G02*
X355339330Y-67060650I1500000J20D01*
G01*
X365824150Y-98552577D02*
G75*
G03*
X365238341Y-97138385I-1999950J-23D01*
G01*
%TO.N,COL0*%
X83624340Y-96800590D02*
X92710000Y-105886250D01*
X83185000Y-86836250D02*
X83185000Y-95739930D01*
X85126910Y-84894340D02*
X83185000Y-86836250D01*
X92270660Y-115850590D02*
X83185000Y-124936250D01*
X85566250Y-67786250D02*
X85566250Y-83833680D01*
X92710000Y-105886250D02*
X92710000Y-114789930D01*
X85126910Y-84894340D02*
G75*
G03*
X85566221Y-83833680I-1060710J1060640D01*
G01*
X92270660Y-115850590D02*
G75*
G03*
X92710021Y-114789930I-1060660J1060690D01*
G01*
X83624340Y-96800590D02*
G75*
G02*
X83184979Y-95739930I1060660J1060690D01*
G01*
%TO.N,COL1*%
X114580590Y-96800590D02*
X123666250Y-105886250D01*
X109378750Y-67786250D02*
X109378750Y-81452430D01*
X113694410Y-118239340D02*
X106997500Y-124936250D01*
X114141250Y-86836250D02*
X114141250Y-95739930D01*
X109818090Y-82513090D02*
X114141250Y-86836250D01*
X118958680Y-117800000D02*
X114755070Y-117800000D01*
X123226910Y-114153090D02*
X120019340Y-117360660D01*
X123666250Y-105886250D02*
X123666250Y-113092430D01*
X114755070Y-117800000D02*
G75*
G03*
X113694425Y-118239355I30J-1500000D01*
G01*
X118958680Y-117800000D02*
G75*
G03*
X120019350Y-117360670I20J1500000D01*
G01*
X114141250Y-95739930D02*
G75*
G03*
X114580594Y-96800586I1500050J30D01*
G01*
X123666250Y-113092430D02*
G75*
G02*
X123226906Y-114153086I-1500050J30D01*
G01*
X109378750Y-81452430D02*
G75*
G03*
X109818094Y-82513086I1500050J30D01*
G01*
%TO.N,COL2*%
X128428750Y-67786250D02*
X128428750Y-81452430D01*
X142716250Y-105886250D02*
X142716250Y-112408680D01*
X128868090Y-82513090D02*
X133191250Y-86836250D01*
X142276910Y-113469340D02*
X130810000Y-124936250D01*
X133630590Y-96800590D02*
X142716250Y-105886250D01*
X133191250Y-86836250D02*
X133191250Y-95739930D01*
X142276910Y-113469340D02*
G75*
G03*
X142716221Y-112408680I-1060710J1060640D01*
G01*
X128428750Y-81452430D02*
G75*
G03*
X128868094Y-82513086I1500050J30D01*
G01*
X133630590Y-96800590D02*
G75*
G02*
X133191244Y-95739930I1060710J1060690D01*
G01*
%TO.N,COL3*%
X147918090Y-82513090D02*
X152241250Y-86836250D01*
X152241250Y-119880070D02*
X152241250Y-124936250D01*
X152241250Y-86836250D02*
X152241250Y-95739930D01*
X161326910Y-110173090D02*
X152680590Y-118819410D01*
X152680590Y-96800590D02*
X161766250Y-105886250D01*
X161766250Y-105886250D02*
X161766250Y-109112430D01*
X147478750Y-67786250D02*
X147478750Y-81452430D01*
X147918090Y-82513090D02*
G75*
G02*
X147478744Y-81452430I1060710J1060690D01*
G01*
X161766250Y-109112430D02*
G75*
G02*
X161326906Y-110173086I-1500050J30D01*
G01*
X152241250Y-119880070D02*
G75*
G02*
X152680594Y-118819414I1500050J-30D01*
G01*
X152241250Y-95739930D02*
G75*
G03*
X152680594Y-96800586I1500050J30D01*
G01*
%TO.N,COL4*%
X171291250Y-86836250D02*
X171291250Y-95739930D01*
X181211490Y-122950240D02*
X183197500Y-124936250D01*
X166968090Y-82513090D02*
X171291250Y-86836250D01*
X171730590Y-96800590D02*
X180816250Y-105886250D01*
X180772150Y-105930350D02*
X180772150Y-121889580D01*
X166528750Y-67786250D02*
X166528750Y-81452430D01*
X171291250Y-95739930D02*
G75*
G03*
X171730594Y-96800586I1500050J30D01*
G01*
X180772150Y-121889580D02*
G75*
G03*
X181211469Y-122950261I1500050J-20D01*
G01*
X166968090Y-82513090D02*
G75*
G02*
X166528744Y-81452430I1060710J1060690D01*
G01*
%TO.N,COL5*%
X185578750Y-81245323D02*
X185578750Y-67786250D01*
X190341250Y-86836250D02*
X186164536Y-82659536D01*
X199866250Y-105886250D02*
X190927036Y-96947036D01*
X190341250Y-95532823D02*
X190341250Y-86836250D01*
X190927036Y-96947036D02*
G75*
G02*
X190341219Y-95532823I1414164J1414236D01*
G01*
X185578750Y-81245323D02*
G75*
G03*
X186164558Y-82659514I1999950J23D01*
G01*
%TO.N,COL6*%
X205023990Y-82468990D02*
X209391250Y-86836250D01*
X209391250Y-86836250D02*
X209391250Y-95739930D01*
X204584650Y-67830350D02*
X204584650Y-81408330D01*
X218476910Y-115850590D02*
X209391250Y-124936250D01*
X218916250Y-105886250D02*
X218916250Y-114789930D01*
X209830590Y-96800590D02*
X218916250Y-105886250D01*
X205023990Y-82468990D02*
G75*
G02*
X204584644Y-81408330I1060710J1060690D01*
G01*
X209391250Y-95739930D02*
G75*
G03*
X209830594Y-96800586I1500050J30D01*
G01*
X218476910Y-115850590D02*
G75*
G03*
X218916256Y-114789930I-1060710J1060690D01*
G01*
%TO.N,COL7*%
X224118090Y-82513090D02*
X228441250Y-86836250D01*
X228880590Y-96800590D02*
X237966250Y-105886250D01*
X223678750Y-67786250D02*
X223678750Y-81452430D01*
X228441250Y-86836250D02*
X228441250Y-95739930D01*
X224118090Y-82513090D02*
G75*
G02*
X223678744Y-81452430I1060710J1060690D01*
G01*
X228441250Y-95739930D02*
G75*
G03*
X228880594Y-96800586I1500050J30D01*
G01*
%TO.N,COL8*%
X256576910Y-115850590D02*
X247491250Y-124936250D01*
X247930590Y-96800590D02*
X257016250Y-105886250D01*
X243168090Y-82513090D02*
X247491250Y-86836250D01*
X247491250Y-86836250D02*
X247491250Y-95739930D01*
X257016250Y-105886250D02*
X257016250Y-114789930D01*
X242728750Y-67786250D02*
X242728750Y-81452430D01*
X243168090Y-82513090D02*
G75*
G02*
X242728744Y-81452430I1060710J1060690D01*
G01*
X247930590Y-96800590D02*
G75*
G02*
X247491244Y-95739930I1060710J1060690D01*
G01*
X257016250Y-114789930D02*
G75*
G02*
X256576906Y-115850586I-1500050J30D01*
G01*
%TO.N,COL9*%
X276066250Y-109097041D02*
X276066250Y-105886250D01*
X266541250Y-95739930D02*
X266541250Y-86836250D01*
X266541250Y-124936250D02*
X266541250Y-119864681D01*
X276066250Y-105886250D02*
X266980590Y-96800590D01*
X266980590Y-118804021D02*
X275626910Y-110157701D01*
X262218090Y-82513090D02*
X266541250Y-86836250D01*
X261778750Y-67786250D02*
X261778750Y-81452430D01*
X261778750Y-81452430D02*
G75*
G03*
X262218094Y-82513086I1500050J30D01*
G01*
X275626910Y-110157701D02*
G75*
G03*
X276066264Y-109097041I-1060710J1060701D01*
G01*
X266541250Y-119864681D02*
G75*
G02*
X266980589Y-118804020I1500050J-19D01*
G01*
X266541250Y-95739930D02*
G75*
G03*
X266980594Y-96800586I1500050J30D01*
G01*
%TO.N,COL10*%
X285591250Y-86836250D02*
X285591250Y-95739930D01*
X286030590Y-96800590D02*
X295116250Y-105886250D01*
X280828750Y-67786250D02*
X280828750Y-81452430D01*
X294676910Y-118231840D02*
X287972500Y-124936250D01*
X281268090Y-82513090D02*
X285591250Y-86836250D01*
X295116250Y-105886250D02*
X295116250Y-117171180D01*
X280828750Y-81452430D02*
G75*
G03*
X281268094Y-82513086I1500050J30D01*
G01*
X294676910Y-118231840D02*
G75*
G03*
X295116221Y-117171180I-1060710J1060640D01*
G01*
X286030590Y-96800590D02*
G75*
G02*
X285591244Y-95739930I1060710J1060690D01*
G01*
%TO.N,COL11*%
X315961713Y-112238287D02*
X312370786Y-115829214D01*
X316547500Y-105886250D02*
X305227036Y-94565786D01*
X316547500Y-105886250D02*
X316547500Y-110824073D01*
X299878750Y-81245323D02*
X299878750Y-67786250D01*
X311785000Y-117243427D02*
X311785000Y-124936250D01*
X304641250Y-86836250D02*
X300464536Y-82659536D01*
X304641250Y-93151573D02*
X304641250Y-86836250D01*
X311785000Y-117243427D02*
G75*
G02*
X312370772Y-115829200I2000000J27D01*
G01*
X316547500Y-110824073D02*
G75*
G02*
X315961727Y-112238301I-2000000J-27D01*
G01*
X299878750Y-81245323D02*
G75*
G03*
X300464558Y-82659514I1999950J23D01*
G01*
X305227036Y-94565786D02*
G75*
G02*
X304641255Y-93151573I1414164J1414186D01*
G01*
%TO.N,COL13*%
X338418090Y-98021910D02*
X342850660Y-93589340D01*
X343290000Y-92528680D02*
X343290000Y-79262504D01*
X337978750Y-105886250D02*
X337978750Y-99082570D01*
X337978750Y-121933680D02*
X337978750Y-105886250D01*
X335597500Y-124936250D02*
X337539410Y-122994340D01*
X342850660Y-78201844D02*
X338418090Y-73769274D01*
X337978750Y-72708614D02*
X337978750Y-67786250D01*
X338418090Y-98021910D02*
G75*
G03*
X337978744Y-99082570I1060710J-1060690D01*
G01*
X342850660Y-93589340D02*
G75*
G03*
X343289986Y-92528680I-1060660J1060640D01*
G01*
X338418090Y-73769274D02*
G75*
G02*
X337978755Y-72708614I1060710J1060674D01*
G01*
X337978750Y-121933680D02*
G75*
G02*
X337539431Y-122994361I-1500050J-20D01*
G01*
X343290000Y-79262504D02*
G75*
G03*
X342850662Y-78201842I-1500000J4D01*
G01*
%TO.N,COL12*%
X319368090Y-75369340D02*
X330835000Y-86836250D01*
X376364214Y-77214214D02*
X374955787Y-75805787D01*
X376950000Y-84021573D02*
X376950000Y-78628427D01*
X318928750Y-67786250D02*
X318928750Y-74308680D01*
X371000000Y-108600000D02*
X371000000Y-91628427D01*
X330835000Y-101200000D02*
X330835000Y-86836250D01*
X368804299Y-116104299D02*
X370414214Y-114494384D01*
X368324150Y-127210000D02*
X368324150Y-117404277D01*
X371585787Y-90214213D02*
X376364213Y-85435787D01*
X371000000Y-113080171D02*
X371000000Y-108600000D01*
X371000000Y-91628427D02*
G75*
G02*
X371585773Y-90214199I2000000J27D01*
G01*
X376950000Y-78628427D02*
G75*
G03*
X376364228Y-77214200I-2000000J27D01*
G01*
X370414214Y-114494384D02*
G75*
G03*
X370999979Y-113080171I-1414214J1414184D01*
G01*
X319368090Y-75369340D02*
G75*
G02*
X318928779Y-74308680I1060710J1060640D01*
G01*
X368324150Y-117404277D02*
G75*
G02*
X368909958Y-115990086I1999950J-23D01*
G01*
X374955787Y-75805787D02*
G75*
G03*
X373541573Y-75220019I-1414187J-1414213D01*
G01*
X376364213Y-85435787D02*
G75*
G03*
X376949981Y-84021573I-1414213J1414187D01*
G01*
%TD*%
M02*
